<?xml version="1.0" encoding="UTF-8"?>
<svg version="1.1" xmlns="http://www.w3.org/2000/svg" width="216" height="233">
<path d="M0 0 C71.28 0 142.56 0 216 0 C216 76.89 216 153.78 216 233 C144.72 233 73.44 233 0 233 C0 156.11 0 79.22 0 0 Z " fill="#FDFEFE" transform="translate(0,0)"/>
<path d="M0 0 C0 0.99 0 1.98 0 3 C0.99 3 1.98 3 3 3 C1.63791024 6.33201479 0.53021972 7.59407815 -2.75390625 9.04296875 C-3.51783691 9.39020996 -4.28176758 9.73745117 -5.06884766 10.09521484 C-5.89175293 10.45566895 -6.7146582 10.81612305 -7.5625 11.1875 C-14.91540375 14.52158186 -22.07718138 18.05656792 -29.12719727 21.99291992 C-33.92287266 24.61339891 -38.77168882 26.42018996 -44 28 C-44 28.66 -44 29.32 -44 30 C-40.54308288 29.42485617 -37.78702124 28.56158307 -34.6875 26.9375 C-33.82511719 26.49277344 -32.96273437 26.04804688 -32.07421875 25.58984375 C-31.05972656 25.06519531 -30.04523438 24.54054687 -29 24 C-26.33709742 22.6591157 -23.66848879 21.32972576 -21 20 C-17.3135563 18.16129427 -13.62847996 16.32151032 -9.9609375 14.4453125 C-5.70520588 12.2724465 -1.61179968 10.33499464 3 9 C3 9.66 3 10.32 3 11 C1.71086513 11.67154933 0.41859796 12.33708859 -0.875 13 C-1.59429687 13.37125 -2.31359375 13.7425 -3.0546875 14.125 C-5 15 -5 15 -7 15 C-7 15.99 -7 16.98 -7 18 C-6.01 18.33 -5.02 18.66 -4 19 C-4 18.34 -4 17.68 -4 17 C-0.21812119 15.16308743 1.94568308 14.84162374 6 16 C5.67 17.32 5.34 18.64 5 20 C5.66 20.33 6.32 20.66 7 21 C6.34515625 21.24105469 5.6903125 21.48210937 5.015625 21.73046875 C1.1308864 23.36588331 -2.5340017 25.32813819 -6.25 27.3125 C-7.95279056 28.2154747 -9.65593406 29.11778408 -11.359375 30.01953125 C-12.26880859 30.50115723 -13.17824219 30.9827832 -14.11523438 31.47900391 C-19.23114828 34.17637557 -24.36646424 36.83636556 -29.5 39.5 C-37.05023778 43.421308 -44.59527485 47.35193433 -52.125 51.3125 C-52.88643311 51.71130371 -53.64786621 52.11010742 -54.43237305 52.52099609 C-58.07814424 54.43573021 -61.70099281 56.38048552 -65.29296875 58.39453125 C-65.97278809 58.7711792 -66.65260742 59.14782715 -67.35302734 59.53588867 C-68.61069717 60.23492494 -69.86291395 60.94391676 -71.10791016 61.6652832 C-74.94657918 63.78834286 -77.64312117 64.6271265 -82 64 C-84.84027624 62.96168516 -87.49526466 61.62166864 -90.1875 60.25 C-91.87333355 59.41978459 -93.5609447 58.59317231 -95.25 57.76953125 C-96.16523437 57.32303223 -97.08046875 56.8765332 -98.0234375 56.41650391 C-103.52243922 53.79960693 -109.11080198 51.38316204 -114.6875 48.9375 C-122.8850233 45.32935892 -130.99730815 41.63835683 -138.95263672 37.52197266 C-142.5063678 35.6939778 -146.05570643 34.17031253 -149.8125 32.8125 C-152.97573322 31.61301895 -153.8681717 31.16378668 -156.0625 28.4375 C-158.47592544 22.16259387 -159.15309935 16.73861094 -156.5 10.4375 C-156.005 9.633125 -155.51 8.82875 -155 8 C-151.40140703 8.60913474 -148.33761359 9.58903187 -145.0078125 11.07421875 C-144.06333252 11.49131104 -143.11885254 11.90840332 -142.14575195 12.33813477 C-141.14890381 12.78342529 -140.15205566 13.22871582 -139.125 13.6875 C-132.5582139 16.5862224 -125.99968688 19.45250644 -119.3125 22.0625 C-111.59821458 25.09280292 -104.07250621 28.51448972 -96.53125 31.94921875 C-95.75652344 32.29774902 -94.98179688 32.6462793 -94.18359375 33.00537109 C-92.81273904 33.62979664 -91.44926871 34.27098354 -90.09765625 34.93603516 C-85.34098117 37.19651521 -81.06064154 38.05544479 -75.95373535 36.2943573 C-73.64820028 35.26809665 -71.4034265 34.16016391 -69.15625 33.01171875 C-68.31768967 32.59723984 -67.47912933 32.18276093 -66.61515808 31.75572205 C-63.90364634 30.41221234 -61.20201547 29.04999176 -58.5 27.6875 C-56.63850714 26.76138841 -54.77628068 25.83674992 -52.91333008 24.91357422 C-49.25554498 23.1000389 -45.60063841 21.2809036 -41.94775391 19.45751953 C-35.89430977 16.44239797 -29.79994906 13.51867346 -23.6875 10.625 C-17.07697695 7.48680975 -10.50933865 4.29316091 -4.01171875 0.92578125 C-2 0 -2 0 0 0 Z " fill="#F7FBFA" transform="translate(186,108)"/>
<path d="M0 0 C4.26935679 1.0673392 7.73551374 2.85240141 11.5625 4.9375 C12.23474609 5.29779297 12.90699219 5.65808594 13.59960938 6.02929688 C16.48675493 7.58611916 19.26900173 9.17933449 22 11 C22 11.66 22 12.32 22 13 C-17.61411885 32.90769718 -17.61411885 32.90769718 -33.84765625 40.5546875 C-37.5242309 42.28675012 -41.17098835 44.07035762 -44.80859375 45.8828125 C-45.7637085 46.35323975 -46.71882324 46.82366699 -47.70288086 47.30834961 C-49.50466414 48.19673869 -51.30151421 49.09524025 -53.09204102 50.00610352 C-57.93117419 52.37311821 -61.52532721 53.90375551 -67 53 C-71.30057658 51.42234913 -75.41849302 49.50966641 -79.5625 47.5625 C-81.98839429 46.45170353 -84.41527234 45.34338443 -86.84375 44.23828125 C-87.75381554 43.82199966 -87.75381554 43.82199966 -88.68226624 43.39730835 C-94.24870528 40.86031639 -99.88594836 38.5273457 -105.5625 36.25 C-113.28345735 33.14781706 -120.90688529 29.88440633 -128.45727539 26.38574219 C-132.55811154 24.5039853 -132.55811154 24.5039853 -137 24 C-140.01127997 29.83435494 -139.53978721 35.5086744 -138.1875 41.75 C-135.8349755 45.24517926 -134.99251549 45.70635748 -131.26953125 47.27734375 C-126.82096695 49.20733961 -122.41480386 51.19533989 -118.03125 53.26953125 C-116.79753528 53.85062572 -115.56364543 54.43134852 -114.32958984 55.01171875 C-113.39092072 55.45330322 -113.39092072 55.45330322 -112.43328857 55.90380859 C-102.40596661 60.61688734 -92.36516461 65.23742821 -82.10473633 69.42700195 C-76.72827596 71.63568037 -71.62879816 74.14412391 -66.54296875 76.96875 C-62.57941287 78.57609063 -59.31592519 78.50907266 -55.32543945 76.96533203 C-54.43042725 76.48435059 -53.53541504 76.00336914 -52.61328125 75.5078125 C-51.60281738 74.97293213 -50.59235352 74.43805176 -49.55126953 73.88696289 C-48.48247559 73.30551514 -47.41368164 72.72406738 -46.3125 72.125 C-45.19472168 71.53001709 -44.07694336 70.93503418 -42.92529297 70.32202148 C-40.66027224 69.11564118 -38.39786627 67.90433795 -36.13818359 66.68798828 C-31.98136574 64.45208983 -27.80414194 62.25627165 -23.625 60.0625 C-22.52865234 59.48326782 -22.52865234 59.48326782 -21.41015625 58.89233398 C-16.65603022 56.3823697 -11.88550261 53.90552703 -7.10546875 51.4453125 C-5.88784395 50.81765435 -4.67023333 50.1899687 -3.45263672 49.56225586 C-1.08246829 48.34051426 1.28985633 47.12331468 3.66357422 45.90844727 C8.44665839 43.44367675 13.1225165 40.98914797 17.61328125 38.01953125 C18.73089844 37.35308594 19.84851563 36.68664062 21 36 C21.99 36.33 22.98 36.66 24 37 C24 38.32 24 39.64 24 41 C3.98512353 51.54605787 3.98512353 51.54605787 -4.125 55.5625 C-15.31774019 61.1196432 -26.33146365 67.0222788 -37.3359375 72.94140625 C-37.96851471 73.28138641 -38.60109192 73.62136658 -39.25283813 73.97164917 C-42.41852435 75.67318476 -45.5828039 77.37723713 -48.74462891 79.0859375 C-50.4797876 80.01986328 -50.4797876 80.01986328 -52.25 80.97265625 C-53.28640625 81.53218994 -54.3228125 82.09172363 -55.390625 82.66821289 C-58 84 -58 84 -61 85 C-63.42789692 84.11117091 -65.68700874 83.15866413 -68.01953125 82.0625 C-68.71455246 81.74474609 -69.40957367 81.42699219 -70.12565613 81.09960938 C-72.35890706 80.0754791 -74.58552566 79.0376963 -76.8125 78 C-78.26979594 77.33118877 -79.72747479 76.66321121 -81.18554688 75.99609375 C-89.2295887 72.30005433 -97.1853759 68.4606316 -105.07177734 64.43920898 C-108.37341145 62.81646986 -111.72482262 61.47944299 -115.15625 60.1640625 C-119.10218708 58.54883001 -122.9536109 56.74938276 -126.8125 54.9375 C-127.54251221 54.59662354 -128.27252441 54.25574707 -129.0246582 53.90454102 C-140.18608313 48.62783373 -140.18608313 48.62783373 -143 43 C-144.09559136 39.71322591 -144.20212543 37.14643798 -144.25 33.6875 C-144.27578125 32.57761719 -144.3015625 31.46773437 -144.328125 30.32421875 C-143.94264146 26.41890335 -143.21901471 24.2455892 -141 21 C-138.56574678 19.42524127 -136.42348431 18.23681979 -133.8125 17.0625 C-133.11286133 16.73113037 -132.41322266 16.39976074 -131.69238281 16.05834961 C-129.47135499 15.01597299 -127.23822679 14.004859 -125 13 C-124.25733887 12.66226563 -123.51467773 12.32453125 -122.74951172 11.9765625 C-109.22512123 5.84289035 -109.22512123 5.84289035 -105 5 C-104.98582031 5.67546875 -104.97164062 6.3509375 -104.95703125 7.046875 C-104.75346498 12.62600838 -104.75346498 12.62600838 -102.0625 17.3125 C-101.051875 17.869375 -100.04125 18.42625 -99 19 C-98.35417969 19.39574219 -97.70835938 19.79148437 -97.04296875 20.19921875 C-80.35257679 29.6675331 -59.09991351 30.55569894 -40.8125 25.9375 C-33.08606272 23.79601048 -25.80093142 20.67889304 -20.61328125 14.29296875 C-18.18609401 12.34769278 -16.23641672 12.78026027 -13.1875 12.9375 C-8.66878814 13.06347621 -5.20315812 12.86807028 -1 11 C-0.67 7.37 -0.34 3.74 0 0 Z " fill="#036598" transform="translate(168,93)"/>
<path d="M0 0 C2.29860617 0.6928926 4.60801425 1.22341303 6.9609375 1.69726562 C10.27139981 2.37440564 13.26021041 3.4722792 16.40625 4.71679688 C25.29093796 7.76655654 34.72679323 9.60691328 43.8984375 11.57226562 C43.8984375 13.88226563 43.8984375 16.19226563 43.8984375 18.57226562 C42.1082314 19.2428445 40.31622261 19.90861253 38.5234375 20.57226562 C37.52570313 20.94351563 36.52796875 21.31476562 35.5 21.69726562 C32.8984375 22.57226562 32.8984375 22.57226562 30.8984375 22.57226562 C30.8984375 20.59226562 30.8984375 18.61226562 30.8984375 16.57226562 C30.16238281 16.58386719 29.42632812 16.59546875 28.66796875 16.60742188 C27.20423828 16.62095703 27.20423828 16.62095703 25.7109375 16.63476562 C24.26654297 16.65216797 24.26654297 16.65216797 22.79296875 16.66992188 C19.8984375 16.57226562 19.8984375 16.57226562 17.609375 16.09570312 C13.66304962 15.33373252 9.72085418 15.2884203 5.7109375 15.13476562 C-12.35212421 14.32170391 -12.35212421 14.32170391 -15.1015625 11.57226562 C-16.95443752 11.50000061 -18.80990128 11.48845343 -20.6640625 11.50976562 C-21.67597656 11.51878906 -22.68789062 11.5278125 -23.73046875 11.53710938 C-24.51292969 11.54871094 -25.29539063 11.5603125 -26.1015625 11.57226562 C-25.6065625 13.55226563 -25.6065625 13.55226563 -25.1015625 15.57226562 C-23.87308594 15.52585937 -22.64460938 15.47945312 -21.37890625 15.43164062 C-4.67620945 15.0188302 11.41476386 17.14791151 27.8984375 19.57226562 C27.6706543 21.4675293 27.6706543 21.4675293 26.8984375 23.57226562 C25.02270508 24.55786133 25.02270508 24.55786133 22.54296875 25.24804688 C21.62080566 25.51552734 20.69864258 25.78300781 19.74853516 26.05859375 C18.74612793 26.33123047 17.7437207 26.60386719 16.7109375 26.88476562 C14.61005595 27.48284848 12.50981025 28.0831687 10.41015625 28.68554688 C9.33169434 28.99186035 8.25323242 29.29817383 7.14208984 29.61376953 C3.99699409 30.54314225 0.89654929 31.55617595 -2.20703125 32.61523438 C-3.17680908 32.94289795 -4.14658691 33.27056152 -5.14575195 33.6081543 C-6.98592338 34.2348759 -8.82202415 34.87372595 -10.65307617 35.52661133 C-18.88183771 38.27892809 -25.24149683 37.50656074 -33.3515625 34.57226562 C-41.14548843 31.83707455 -49.02330974 29.38511565 -56.9140625 26.94726562 C-58.15381836 26.563125 -59.39357422 26.17898437 -60.67089844 25.78320312 C-66.8725185 23.86527928 -73.07775869 21.97087341 -79.31518555 20.17236328 C-81.1015625 19.57226562 -81.1015625 19.57226562 -82.1015625 18.57226562 C-82.14249187 16.23929129 -82.14397973 13.90521338 -82.1015625 11.57226562 C-71.6462746 8.16293261 -61.22485433 4.96098121 -50.51953125 2.43164062 C-47.12424323 1.62383512 -47.12424323 1.62383512 -43.96484375 0.52539062 C-41.33430309 -0.35026002 -38.82578404 -0.93877154 -36.1015625 -1.42773438 C-33.26069127 -1.96039773 -30.81892024 -2.53372522 -28.1015625 -3.55273438 C-18.24390286 -6.4278851 -9.40037425 -2.96164207 0 0 Z " fill="#070707" transform="translate(127.1015625,42.427734375)"/>
<path d="M0 0 C4.54888117 0.64984017 7.87296711 1.12509369 12.03125 2.55859375 C12.92457031 2.86216797 13.81789063 3.16574219 14.73828125 3.47851562 C15.64964844 3.79498047 16.56101562 4.11144531 17.5 4.4375 C20.19807581 5.36293619 22.89701625 6.2845539 25.6015625 7.19091797 C27.60643171 7.8672348 29.60144087 8.57268918 31.59375 9.28515625 C40.05014961 11.05983644 48.07723532 7.98930858 56.125 5.5 C58.20953256 4.85998939 60.29544311 4.22444694 62.3828125 3.59375 C63.29434082 3.31208984 64.20586914 3.03042969 65.14501953 2.74023438 C68.41051024 1.89356362 71.65585311 1.42521328 75 1 C75.14857681 5.34149055 75.25731436 9.68162732 75.32958984 14.02490234 C75.35972248 15.50140156 75.40063879 16.97772232 75.45263672 18.45361328 C75.52562629 20.57889779 75.55948491 22.70181393 75.5859375 24.828125 C75.6173584 26.1059082 75.6487793 27.38369141 75.68115234 28.70019531 C75 32 75 32 72.16894531 34.35766602 C68.95116782 36.02530771 65.77259535 37.4263317 62.375 38.6875 C61.26898438 39.10386719 60.16296875 39.52023438 59.0234375 39.94921875 C55.11144937 41.30881152 51.80430883 42.12649474 47.65625 42.1328125 C46.41427856 42.13643799 46.41427856 42.13643799 45.1472168 42.14013672 C41.56480099 42.11965256 37.98294297 42.09255315 34.40087891 42.03710938 C32.44839628 42.00693067 30.49566464 41.99320074 28.54296875 41.984375 C19.37330342 41.63314295 11.12997194 38.06498597 3 34 C3 33.34 3 32.68 3 32 C2.01 31.67 1.02 31.34 0 31 C0 20.77 0 10.54 0 0 Z " fill="#030303" transform="translate(68,74)"/>
<path d="M0 0 C0.495 1.485 0.495 1.485 1 3 C1.66 3 2.32 3 3 3 C3.04898438 3.84304687 3.09796875 4.68609375 3.1484375 5.5546875 C3.26058594 7.19824219 3.26058594 7.19824219 3.375 8.875 C3.47941406 10.51082031 3.47941406 10.51082031 3.5859375 12.1796875 C3.73253491 15.13046474 3.73253491 15.13046474 6 17 C6.33333333 19.33333333 6.66666667 21.66666667 7 24 C7.99 24.99 7.99 24.99 9 26 C9.265625 28.75 9.265625 28.75 9.25 32 C9.25773437 33.60875 9.25773437 33.60875 9.265625 35.25 C9 38 9 38 7 40 C8.32 40 9.64 40 11 40 C11.66 38.68 12.32 37.36 13 36 C13 37.65 13 39.3 13 41 C8.35032396 43.53618693 5.37080094 44.09985 0.0625 43.75 C-4.68675665 43.60158573 -6.89920868 44.10257284 -10.4375 47.3125 C-11.30181641 48.23482422 -11.30181641 48.23482422 -12.18359375 49.17578125 C-20.51932784 57.54736796 -35.61190519 59.25012237 -46.8359375 59.3449707 C-50.89594215 59.29873949 -54.94366185 59.18162708 -59 59 C-59 58.67 -59 58.34 -59 58 C-51.08 57.505 -51.08 57.505 -43 57 C-43 56.01 -43 55.02 -43 54 C-43.94101563 54.01160156 -44.88203125 54.02320313 -45.8515625 54.03515625 C-47.09679687 54.04417969 -48.34203125 54.05320313 -49.625 54.0625 C-50.85476562 54.07410156 -52.08453125 54.08570313 -53.3515625 54.09765625 C-56.67723791 54.00863924 -59.74047588 53.63686087 -63 53 C-63 52.67 -63 52.34 -63 52 C-61.82981323 52.0314209 -61.82981323 52.0314209 -60.63598633 52.06347656 C-57.02829395 52.14771737 -53.42080953 52.19899916 -49.8125 52.25 C-48.58595703 52.28351563 -47.35941406 52.31703125 -46.09570312 52.3515625 C-34.89165863 52.46981099 -24.74967558 50.5372426 -15.48828125 43.953125 C-14 43 -14 43 -12 43 C-12 32.77 -12 22.54 -12 12 C-15.17625 12.9075 -18.3525 13.815 -21.625 14.75 C-22.66495117 15.04495361 -23.70490234 15.33990723 -24.77636719 15.64379883 C-28.95328158 16.82910815 -33.12319639 18.02291647 -37.265625 19.32421875 C-38.45671875 19.69160156 -39.6478125 20.05898437 -40.875 20.4375 C-41.90367188 20.76621094 -42.93234375 21.09492187 -43.9921875 21.43359375 C-51.10379566 22.77279269 -58.15428208 19.93583693 -64.9375 17.9375 C-65.90751953 17.65583984 -66.87753906 17.37417969 -67.87695312 17.08398438 C-70.25256591 16.39353534 -72.62682705 15.69877999 -75 15 C-74.360625 14.896875 -73.72125 14.79375 -73.0625 14.6875 C-72.0415625 14.3471875 -72.0415625 14.3471875 -71 14 C-70.67 13.01 -70.34 12.02 -70 11 C-64.98267533 11.87338615 -60.33788642 13.56343041 -55.546875 15.2578125 C-47.53086455 16.93517151 -40.26560502 14.36901027 -32.6875 11.8125 C-30.76100012 11.17791348 -28.83390105 10.54514352 -26.90625 9.9140625 C-25.93300781 9.59469727 -24.95976562 9.27533203 -23.95703125 8.94628906 C-21.03475352 8.01112158 -18.10211788 7.13115814 -15.15625 6.2734375 C-14.23626221 6.0055542 -13.31627441 5.7376709 -12.3684082 5.46166992 C-10.6082068 4.9533739 -8.84635736 4.45074385 -7.08276367 3.9543457 C-5.03768712 3.36007323 -3.01565171 2.68749261 -1 2 C-0.67 1.34 -0.34 0.68 0 0 Z " fill="#F8F8F8" transform="translate(155,63)"/>
<path d="M0 0 C0.99 0 1.98 0 3 0 C3.04898438 0.68707031 3.09796875 1.37414062 3.1484375 2.08203125 C3.22320312 2.98308594 3.29796875 3.88414063 3.375 4.8125 C3.47941406 6.15248047 3.47941406 6.15248047 3.5859375 7.51953125 C3.86645036 10.24398499 3.86645036 10.24398499 6 13 C4.35 13.33 2.7 13.66 1 14 C0.690625 12.906875 0.38125 11.81375 0.0625 10.6875 C-0.58337897 8.44592006 -1.2623117 6.2130649 -2 4 C-3.46080933 4.61919078 -4.91857455 5.24556692 -6.375 5.875 C-7.18710937 6.22304687 -7.99921875 6.57109375 -8.8359375 6.9296875 C-11.13802299 7.92446067 -11.13802299 7.92446067 -13 10 C-12.6814823 12.10820797 -12.6814823 12.10820797 -12 14 C-12.66 14 -13.32 14 -14 14 C-14 15.98 -14 17.96 -14 20 C-13.34 20 -12.68 20 -12 20 C-11.67 20.99 -11.34 21.98 -11 23 C-7.37 23.66 -3.74 24.32 0 25 C0.495 26.485 0.495 26.485 1 28 C4.51190809 29.22969878 4.51190809 29.22969878 8 30 C8 30.66 8 31.32 8 32 C9.65 32 11.3 32 13 32 C13 32.66 13 33.32 13 34 C14.32 34.33 15.64 34.66 17 35 C13.46491895 36.17836035 12.85217929 35.80230209 9.52734375 34.41015625 C8.63571533 34.04140381 7.74408691 33.67265137 6.82543945 33.29272461 C5.87241943 32.88675049 4.91939941 32.48077637 3.9375 32.0625 C2.96192139 31.65588135 1.98634277 31.2492627 0.98120117 30.83032227 C-6.21913931 27.81082465 -13.36649329 24.67045846 -20.45141602 21.38891602 C-24.55492887 19.50480089 -24.55492887 19.50480089 -29 19 C-32.01127997 24.83435494 -31.53978721 30.5086744 -30.1875 36.75 C-27.8349755 40.24517926 -26.99251549 40.70635748 -23.26953125 42.27734375 C-18.82096695 44.20733961 -14.41480386 46.19533989 -10.03125 48.26953125 C-8.79753528 48.85062572 -7.56364543 49.43134852 -6.32958984 50.01171875 C-5.39092072 50.45330322 -5.39092072 50.45330322 -4.43328857 50.90380859 C5.59403339 55.61688734 15.63483539 60.23742821 25.89526367 64.42700195 C31.27172404 66.63568037 36.37120184 69.14412391 41.45703125 71.96875 C45.42058713 73.57609063 48.68407481 73.50907266 52.67456055 71.96533203 C53.56957275 71.48435059 54.46458496 71.00336914 55.38671875 70.5078125 C56.39718262 69.97293213 57.40764648 69.43805176 58.44873047 68.88696289 C59.51752441 68.30551514 60.58631836 67.72406738 61.6875 67.125 C62.80527832 66.53001709 63.92305664 65.93503418 65.07470703 65.32202148 C67.33972776 64.11564118 69.60213373 62.90433795 71.86181641 61.68798828 C76.01863426 59.45208983 80.19585806 57.25627165 84.375 55.0625 C85.47134766 54.48326782 85.47134766 54.48326782 86.58984375 53.89233398 C91.34396978 51.3823697 96.11449739 48.90552703 100.89453125 46.4453125 C102.11215605 45.81765435 103.32976667 45.1899687 104.54736328 44.56225586 C106.91753171 43.34051426 109.28985633 42.12331468 111.66357422 40.90844727 C116.44665839 38.44367675 121.1225165 35.98914797 125.61328125 33.01953125 C126.73089844 32.35308594 127.84851563 31.68664062 129 31 C129.99 31.33 130.98 31.66 132 32 C132 33.32 132 34.64 132 36 C111.98512353 46.54605787 111.98512353 46.54605787 103.875 50.5625 C92.68225981 56.1196432 81.66853635 62.0222788 70.6640625 67.94140625 C70.03148529 68.28138641 69.39890808 68.62136658 68.74716187 68.97164917 C65.58147565 70.67318476 62.4171961 72.37723713 59.25537109 74.0859375 C57.5202124 75.01986328 57.5202124 75.01986328 55.75 75.97265625 C54.71359375 76.53218994 53.6771875 77.09172363 52.609375 77.66821289 C50 79 50 79 47 80 C44.57210308 79.11117091 42.31299126 78.15866413 39.98046875 77.0625 C39.28544754 76.74474609 38.59042633 76.42699219 37.87434387 76.09960938 C35.64109294 75.0754791 33.41447434 74.0376963 31.1875 73 C29.73020406 72.33118877 28.27252521 71.66321121 26.81445312 70.99609375 C18.7704113 67.30005433 10.8146241 63.4606316 2.92822266 59.43920898 C-0.37341145 57.81646986 -3.72482262 56.47944299 -7.15625 55.1640625 C-11.10218708 53.54883001 -14.9536109 51.74938276 -18.8125 49.9375 C-19.54251221 49.59662354 -20.27252441 49.25574707 -21.0246582 48.90454102 C-32.18608313 43.62783373 -32.18608313 43.62783373 -35 38 C-36.09559136 34.71322591 -36.20212543 32.14643798 -36.25 28.6875 C-36.27578125 27.57761719 -36.3015625 26.46773437 -36.328125 25.32421875 C-35.94264146 21.41890335 -35.21901471 19.2455892 -33 16 C-30.56584947 14.4253077 -28.42321879 13.23712088 -25.8125 12.0625 C-25.11503662 11.73113037 -24.41757324 11.39976074 -23.69897461 11.05834961 C-17.84646016 8.30518755 -11.91699201 5.70313914 -5.96606445 3.17016602 C-2.74934787 1.96064506 -2.74934787 1.96064506 0 0 Z M-16 20 C-15.67 20.66 -15.34 21.32 -15 22 C-14.34 21.67 -13.68 21.34 -13 21 C-13.99 20.67 -14.98 20.34 -16 20 Z " fill="#18628A" transform="translate(60,98)"/>
<path d="M0 0 C-5.0158922 3.5851295 -10.29075196 6.16076914 -15.875 8.75 C-23.32136288 12.24095081 -30.71621893 15.80355824 -38.02490234 19.57519531 C-40.97539616 21.07850076 -43.72649907 22.40407589 -47 23 C-47 23.66 -47 24.32 -47 25 C-43.54308288 24.42485617 -40.78702124 23.56158307 -37.6875 21.9375 C-36.82511719 21.49277344 -35.96273437 21.04804688 -35.07421875 20.58984375 C-34.05972656 20.06519531 -33.04523438 19.54054687 -32 19 C-29.33709742 17.6591157 -26.66848879 16.32972576 -24 15 C-20.3135563 13.16129427 -16.62847996 11.32151032 -12.9609375 9.4453125 C-8.70520588 7.2724465 -4.61179968 5.33499464 0 4 C0 4.66 0 5.32 0 6 C-1.28913487 6.67154933 -2.58140204 7.33708859 -3.875 8 C-4.59429687 8.37125 -5.31359375 8.7425 -6.0546875 9.125 C-8 10 -8 10 -10 10 C-10 10.99 -10 11.98 -10 13 C-9.01 13.33 -8.02 13.66 -7 14 C-7 13.34 -7 12.68 -7 12 C-2.375 9.875 -2.375 9.875 1 11 C-4.27579793 14.80389464 -9.92759414 17.44985089 -15.8125 20.1875 C-22.93567657 23.54477402 -30.00008862 26.96016814 -36.9375 30.6875 C-44.8824475 34.95268234 -52.90094118 39.03543839 -61 43 C-61.83015625 43.40879395 -62.6603125 43.81758789 -63.515625 44.23876953 C-66.13095998 45.52274039 -68.75199687 46.79427823 -71.375 48.0625 C-72.61612549 48.67254883 -72.61612549 48.67254883 -73.88232422 49.29492188 C-74.6507666 49.66294922 -75.41920898 50.03097656 -76.2109375 50.41015625 C-76.89462402 50.74152588 -77.57831055 51.07289551 -78.28271484 51.41430664 C-78.84941895 51.60758545 -79.41612305 51.80086426 -80 52 C-80.66 51.67 -81.32 51.34 -82 51 C-78.44395814 48.02135669 -74.43726863 46.2178205 -70.25 44.3125 C-64.29394638 41.55518693 -58.37061297 38.74780648 -52.5 35.8125 C-51.83693848 35.48096924 -51.17387695 35.14943848 -50.49072266 34.80786133 C-46.11767673 32.60369177 -41.82487798 30.29104808 -37.6015625 27.8125 C-36 27 -36 27 -34 27 C-34.495 26.01 -34.495 26.01 -35 25 C-35.721875 25.144375 -36.44375 25.28875 -37.1875 25.4375 C-39.79166667 25.95833333 -42.39583333 26.47916667 -45 27 C-45 27.66 -45 28.32 -45 29 C-46.15628906 29.41507813 -47.31257813 29.83015625 -48.50390625 30.2578125 C-52.79551808 31.86870134 -56.85609809 33.79595498 -60.9375 35.875 C-61.98019043 36.39791626 -61.98019043 36.39791626 -63.04394531 36.93139648 C-67.54341474 39.20370203 -71.92807121 41.60897258 -76.203125 44.28515625 C-78.49309726 45.19616695 -79.7168975 44.80312676 -82 44 C-80.21118264 42.99491199 -78.41885304 41.99607264 -76.625 41 C-75.62726563 40.443125 -74.62953125 39.88625 -73.6015625 39.3125 C-71 38 -71 38 -69 38 C-69.33 37.34 -69.66 36.68 -70 36 C-71.03060547 36.54140625 -71.03060547 36.54140625 -72.08203125 37.09375 C-72.98308594 37.5578125 -73.88414063 38.021875 -74.8125 38.5 C-75.70582031 38.9640625 -76.59914063 39.428125 -77.51953125 39.90625 C-80 41 -80 41 -83 41 C-83 40.34 -83 39.68 -83 39 C-82.46334717 38.74943848 -81.92669434 38.49887695 -81.3737793 38.24072266 C-70.79458461 33.28751652 -60.33295062 28.19473403 -50.0324707 22.68432617 C-43.78445281 19.36224107 -37.42944657 16.32381575 -31.01464844 13.33935547 C-24.73724117 10.39951926 -18.60796487 7.22559037 -12.51708984 3.91772461 C-2.74140384 -1.37070192 -2.74140384 -1.37070192 0 0 Z " fill="#F6F8F7" transform="translate(189,113)"/>
<path d="M0 0 C4.26935679 1.0673392 7.73551374 2.85240141 11.5625 4.9375 C12.23474609 5.29779297 12.90699219 5.65808594 13.59960938 6.02929688 C16.48675493 7.58611916 19.26900173 9.17933449 22 11 C22 11.66 22 12.32 22 13 C16.93181333 15.57113315 11.85975895 18.13440557 6.78393555 20.69042969 C5.057259 21.56131761 3.33166492 22.43435513 1.60717773 23.30957031 C-0.86975112 24.56620031 -3.35045212 25.81508377 -5.83203125 27.0625 C-6.60400345 27.45622803 -7.37597565 27.84995605 -8.17134094 28.25561523 C-9.25212166 28.79617554 -9.25212166 28.79617554 -10.35473633 29.34765625 C-10.98761063 29.66742432 -11.62048492 29.98719238 -12.27253723 30.31665039 C-14 31 -14 31 -17 31 C-15.80697654 27.42092962 -15.22977496 26.8571206 -12 25 C-9.02775226 24.16982046 -6.03531522 23.55128588 -3 23 C-3.33 22.01 -3.66 21.02 -4 20 C-2.68 20 -1.36 20 0 20 C-1.15584346 18.3932003 -1.15584346 18.3932003 -3 17 C-5.64228384 16.67439596 -5.64228384 16.67439596 -8.5 16.875 C-11.80026498 17.0080752 -13.8385284 17.05382387 -17 16 C-17.33 16.99 -17.66 17.98 -18 19 C-19.65 18.67 -21.3 18.34 -23 18 C-21.75 15.5 -21.75 15.5 -19 13 C-15.93622535 12.70591275 -13.00291737 12.81802208 -9.9296875 12.95703125 C-6.59939093 13.0058756 -4.03878203 12.35056979 -1 11 C-0.67 7.37 -0.34 3.74 0 0 Z " fill="#076597" transform="translate(168,93)"/>
<path d="M0 0 C0 0.99 0 1.98 0 3 C0.99 3.33 1.98 3.66 3 4 C-15 13 -15 13 -33 22 C-33.6607251 22.33040283 -34.3214502 22.66080566 -35.00219727 23.0012207 C-36.32807606 23.66407909 -37.65408405 24.32667914 -38.98022461 24.98901367 C-42.42874717 26.71179017 -45.87453376 28.43975247 -49.31640625 30.17578125 C-50.3827832 30.71235352 -50.3827832 30.71235352 -51.47070312 31.25976562 C-52.81790587 31.93776962 -54.16432416 32.61733571 -55.50976562 33.29882812 C-59.61363599 35.36148397 -63.76237641 37.22750622 -68 39 C-68.66 38.34 -69.32 37.68 -70 37 C-71.31747324 36.30251417 -72.64914193 35.63040043 -74 35 C-68.68801107 32.41561492 -63.37546358 29.8323808 -58.0625 27.25 C-56.87392899 26.67226334 -56.87392899 26.67226334 -55.66134644 26.08285522 C-44.51377687 20.66544366 -33.35659247 15.26946891 -22.17016602 9.93261719 C-16.21077094 7.08391564 -10.30698052 4.1440348 -4.43139648 1.12573242 C-2 0 -2 0 0 0 Z " fill="#F8FAF8" transform="translate(186,108)"/>
<path d="M0 0 C0.99 0.33 1.98 0.66 3 1 C2.34 1 1.68 1 1 1 C1.33 11.23 1.66 21.46 2 32 C2.66 32.33 3.32 32.66 4 33 C4 33.66 4 34.32 4 35 C6.09063215 35.69687738 8.18222234 36.39095659 10.27734375 37.07421875 C12.05582855 37.67895461 13.82063038 38.32600385 15.56640625 39.01953125 C25.12646518 42.65044979 34.88742663 43.24055773 45 44 C45 44.66 45 45.32 45 46 C46.98 46 48.96 46 51 46 C51 46.33 51 46.66 51 47 C34.26349147 50.33105267 15.4400547 48.88795288 0.91796875 39.46484375 C-2.70842032 36.69519833 -2.70842032 36.69519833 -4 35 C-4.29296875 32.51953125 -4.29296875 32.51953125 -4.1875 29.8125 C-4.16042969 28.91144531 -4.13335937 28.01039062 -4.10546875 27.08203125 C-4.07066406 26.39496094 -4.03585938 25.70789063 -4 25 C-3.34 26.32 -2.68 27.64 -2 29 C-0.16780354 27.16780354 -0.76098672 24.24286259 -0.68359375 21.77734375 C-0.64169922 20.51728516 -0.59980469 19.25722656 -0.55664062 17.95898438 C-0.51682404 16.61849264 -0.47711186 15.2779978 -0.4375 13.9375 C-0.39431958 12.59308477 -0.35070544 11.2486834 -0.30664062 9.90429688 C-0.20014642 6.6029766 -0.0981354 3.30157764 0 0 Z " fill="#DDF8FD" transform="translate(67,73)"/>
<path d="M0 0 C0.66 0.99 1.32 1.98 2 3 C2.33 2.01 2.66 1.02 3 0 C3.61875 0.165 4.2375 0.33 4.875 0.5 C6.96063386 1.07634644 6.96063386 1.07634644 9 1 C9.33 0.67 9.66 0.34 10 0 C11.83115883 -0.09851171 13.66619933 -0.12972629 15.5 -0.125 C16.5003125 -0.12757813 17.500625 -0.13015625 18.53125 -0.1328125 C21 0 21 0 22 1 C23.66842534 0.67558396 25.33480481 0.34060811 27 0 C28.6662553 -0.0370279 30.33401319 -0.04759962 32 0 C31.34 2.31 30.68 4.62 30 7 C29.34 7 28.68 7 28 7 C28 6.01 28 5.02 28 4 C25.90493748 7.44708859 25.90493748 7.44708859 24 11 C15.09 11 6.18 11 -3 11 C-2.34 10.01 -1.68 9.02 -1 8 C-1.33 7.67 -1.66 7.34 -2 7 C-2.1875 4.5625 -2.1875 4.5625 -2 2 C-1.34 1.34 -0.68 0.68 0 0 Z " fill="#F7F7F7" transform="translate(140,222)"/>
<path d="M0 0 C0.33 1.98 0.66 3.96 1 6 C1.66 5.01 2.32 4.02 3 3 C6.625 2.8125 6.625 2.8125 10 3 C9.01 3.495 9.01 3.495 8 4 C8 4.99 8 5.98 8 7 C8.66 6.67 9.32 6.34 10 6 C10.65772428 2.97065509 10.65772428 2.97065509 11 0 C11.66 0.99 12.32 1.98 13 3 C13.66 3.33 14.32 3.66 15 4 C14.67 4.99 14.34 5.98 14 7 C15.32 7 16.64 7 18 7 C18.33 5.68 18.66 4.36 19 3 C23.63098598 1.84225351 29.61563621 0.80781811 34 3 C34 4.65 34 6.3 34 8 C32.35 8 30.7 8 29 8 C28.67 9.32 28.34 10.64 28 12 C24.41668375 12.02907084 20.83339792 12.04682263 17.25 12.0625 C16.23421875 12.07087891 15.2184375 12.07925781 14.171875 12.08789062 C13.1921875 12.09111328 12.2125 12.09433594 11.203125 12.09765625 C10.30239258 12.10289307 9.40166016 12.10812988 8.47363281 12.11352539 C6.16610196 12.00762312 4.20865595 11.65132813 2 11 C2 10.34 2 9.68 2 9 C-0.64738916 7.5393715 -1.89448334 7 -5 7 C-6.6875 5.5 -6.6875 5.5 -8 4 C-8.33 5.32 -8.66 6.64 -9 8 C-9 6.02 -9 4.04 -9 2 C-2.25 0 -2.25 0 0 0 Z " fill="#CFCFCF" transform="translate(80,221)"/>
<path d="M0 0 C0.66 0 1.32 0 2 0 C2.07347656 1.15628906 2.07347656 1.15628906 2.1484375 2.3359375 C2.22320312 3.33882813 2.29796875 4.34171875 2.375 5.375 C2.44460937 6.37273437 2.51421875 7.37046875 2.5859375 8.3984375 C2.76363964 11.15508879 2.76363964 11.15508879 5 13 C5.36760731 15.32817964 5.70241581 17.6618385 6 20 C6.33 20.33 6.66 20.66 7 21 C7.09873816 22.99799572 7.12971799 24.99957158 7.125 27 C7.12757813 28.093125 7.13015625 29.18625 7.1328125 30.3125 C7 33 7 33 6 34 C3.98035801 34.07244053 1.95832876 34.08377188 -0.0625 34.0625 C-1.16722656 34.05347656 -2.27195313 34.04445312 -3.41015625 34.03515625 C-4.69212891 34.01775391 -4.69212891 34.01775391 -6 34 C-6.02685938 31.85423363 -6.04633088 29.70837355 -6.0625 27.5625 C-6.07410156 26.36753906 -6.08570313 25.17257813 -6.09765625 23.94140625 C-6 21 -6 21 -5 20 C-4.87625 18.88625 -4.7525 17.7725 -4.625 16.625 C-4 13 -4 13 -2.50390625 11.59765625 C-0.44293233 9.40820604 -0.50467639 7.77201637 -0.3125 4.8125 C-0.24675781 3.91144531 -0.18101562 3.01039062 -0.11328125 2.08203125 C-0.07589844 1.39496094 -0.03851563 0.70789063 0 0 Z " fill="#0E0E0E" transform="translate(156,67)"/>
<path d="M0 0 C0.99 0 1.98 0 3 0 C3 10.56 3 21.12 3 32 C4.65 32 6.3 32 8 32 C2.32946505 39.61978134 -4.56132996 43.44566391 -13.6875 45.8125 C-14.48969971 46.02479248 -15.29189941 46.23708496 -16.1184082 46.45581055 C-25.6806218 48.74172693 -35.2397252 48.43702723 -45 48 C-45 47.67 -45 47.34 -45 47 C-37.08 46.505 -37.08 46.505 -29 46 C-29 45.01 -29 44.02 -29 43 C-29.94101563 43.01160156 -30.88203125 43.02320313 -31.8515625 43.03515625 C-33.09679687 43.04417969 -34.34203125 43.05320313 -35.625 43.0625 C-37.46964844 43.07990234 -37.46964844 43.07990234 -39.3515625 43.09765625 C-42.67723791 43.00863924 -45.74047588 42.63686087 -49 42 C-49 41.67 -49 41.34 -49 41 C-47.82981323 41.0314209 -47.82981323 41.0314209 -46.63598633 41.06347656 C-43.02829395 41.14771737 -39.42080953 41.19899916 -35.8125 41.25 C-34.58595703 41.28351563 -33.35941406 41.31703125 -32.09570312 41.3515625 C-20.89165863 41.46981099 -10.74967558 39.5372426 -1.48828125 32.953125 C0 32 0 32 2 32 C2 21.77 2 11.54 2 1 C1.34 0.67 0.68 0.34 0 0 Z " fill="#D3E2E7" transform="translate(141,74)"/>
<path d="M0 0 C-1.65 0.33 -3.3 0.66 -5 1 C-4.505 3.475 -4.505 3.475 -4 6 C-7.80874901 7.15855655 -11.62256948 8.29947928 -15.4375 9.4375 C-16.50677734 9.76298828 -17.57605469 10.08847656 -18.67773438 10.42382812 C-28.06394604 13.20811721 -35.13663472 15.23594345 -44.5625 11.6875 C-45.85598856 11.21659565 -47.15025555 10.74782374 -48.4453125 10.28125 C-49.61835937 9.8584375 -50.79140625 9.435625 -52 9 C-54.65855206 8.24257776 -57.30239518 7.60558476 -60 7 C-59.360625 6.896875 -58.72125 6.79375 -58.0625 6.6875 C-57.381875 6.460625 -56.70125 6.23375 -56 6 C-55.67 5.01 -55.34 4.02 -55 3 C-49.98267533 3.87338615 -45.33788642 5.56343041 -40.546875 7.2578125 C-32.18333789 9.00789185 -24.53234864 6.14285881 -16.625 3.5 C-15.64144531 3.17902344 -14.65789062 2.85804687 -13.64453125 2.52734375 C-11.09346685 1.69327481 -8.54582007 0.84991483 -6 0 C-3 -1 -3 -1 0 0 Z " fill="#E3E3E3" transform="translate(140,71)"/>
<path d="M0 0 C0.78246094 -0.01417969 1.56492187 -0.02835938 2.37109375 -0.04296875 C4.5625 0.1875 4.5625 0.1875 7.5625 2.1875 C13.21537426 3.11949328 18.84515662 3.39283869 24.5625 3.625 C33.30333103 4.02502024 41.90302291 4.95725705 50.5625 6.1875 C48.99107078 8.05586072 48.10427028 9.08911001 45.65893555 9.53320312 C39.80246071 9.357409 34.15522382 8.61832078 28.375 7.6875 C17.07313145 5.98609114 5.96781097 5.86244364 -5.4375 6.1875 C-5.7675 4.5375 -6.0975 2.8875 -6.4375 1.1875 C-4.0978331 0.01766655 -2.60358473 0.0213759 0 0 Z " fill="#F4F4F4" transform="translate(107.4375,52.8125)"/>
<path d="M0 0 C-5.27579793 3.80389464 -10.92759414 6.44985089 -16.8125 9.1875 C-23.93567657 12.54477402 -31.00008862 15.96016814 -37.9375 19.6875 C-45.8824475 23.95268234 -53.90094118 28.03543839 -62 32 C-62.83015625 32.40879395 -63.6603125 32.81758789 -64.515625 33.23876953 C-67.13095998 34.52274039 -69.75199687 35.79427823 -72.375 37.0625 C-73.61612549 37.67254883 -73.61612549 37.67254883 -74.88232422 38.29492188 C-75.6507666 38.66294922 -76.41920898 39.03097656 -77.2109375 39.41015625 C-77.89462402 39.74152588 -78.57831055 40.07289551 -79.28271484 40.41430664 C-79.84941895 40.60758545 -80.41612305 40.80086426 -81 41 C-81.66 40.67 -82.32 40.34 -83 40 C-79.44397393 37.02136992 -75.43728201 35.21773925 -71.25 33.3125 C-65.43643522 30.622502 -59.65998487 27.87900971 -53.9375 25 C-53.28233398 24.67040283 -52.62716797 24.34080566 -51.95214844 24.0012207 C-50.62912959 23.33467275 -49.30637473 22.66760055 -47.98388672 22 C-44.00221822 19.99299604 -40.01175061 18.00351672 -36.02172852 16.01318359 C-32.55768361 14.28393374 -29.09929811 12.5444936 -25.6484375 10.7890625 C-24.93300781 10.42683594 -24.21757812 10.06460938 -23.48046875 9.69140625 C-22.11939922 9.00203337 -20.75990581 8.30953585 -19.40234375 7.61328125 C-15.6770982 5.73129649 -11.99241104 4.21614983 -8 3 C-8 2.34 -8 1.68 -8 1 C-3.375 -1.125 -3.375 -1.125 0 0 Z " fill="#D5D5D4" transform="translate(190,124)"/>
<path d="M0 0 C-5.01601961 3.58522058 -10.29104298 6.15999441 -15.875 8.75 C-17.77529047 9.64336039 -19.6750264 10.53790124 -21.57421875 11.43359375 C-22.50411621 11.87171387 -23.43401367 12.30983398 -24.39208984 12.76123047 C-29.83470306 15.34649722 -35.20607808 18.07207989 -40.58496094 20.78662109 C-43.51347332 22.25798245 -46.4480313 23.71696436 -49.3828125 25.17578125 C-50.52403564 25.74385498 -51.66525879 26.31192871 -52.84106445 26.8972168 C-55.09410393 28.01858682 -57.34780904 29.13862085 -59.60229492 30.25708008 C-65.74728791 33.32043014 -71.78823743 36.49805857 -77.74682617 39.91162109 C-80 41 -80 41 -83 41 C-83 40.34 -83 39.68 -83 39 C-82.46334717 38.74943848 -81.92669434 38.49887695 -81.3737793 38.24072266 C-70.79458461 33.28751652 -60.33295062 28.19473403 -50.0324707 22.68432617 C-43.78445281 19.36224107 -37.42944657 16.32381575 -31.01464844 13.33935547 C-24.73724117 10.39951926 -18.60796487 7.22559037 -12.51708984 3.91772461 C-2.74140384 -1.37070192 -2.74140384 -1.37070192 0 0 Z " fill="#D5D2D0" transform="translate(189,113)"/>
<path d="M0 0 C0 0.99 0 1.98 0 3 C-0.99 3 -1.98 3 -3 3 C-2.505 4.485 -2.505 4.485 -2 6 C-3.010625 6.103125 -4.02125 6.20625 -5.0625 6.3125 C-8.98034786 6.81604789 -8.98034786 6.81604789 -12.20361328 8.52026367 C-16.37834646 10.36205772 -20.16917001 10.41745248 -24.6796875 10.36328125 C-25.89798752 10.36402901 -25.89798752 10.36402901 -27.14089966 10.36479187 C-28.85030578 10.36246326 -30.55971611 10.35280682 -32.26904297 10.33618164 C-34.86066986 10.31263023 -37.45126216 10.31562527 -40.04296875 10.32226562 C-41.7135477 10.31668601 -43.38412237 10.30957435 -45.0546875 10.30078125 C-45.81748016 10.30169266 -46.58027283 10.30260406 -47.36618042 10.30354309 C-52.78472708 10.23351108 -57.75755755 9.35294609 -63 8 C-62.67 7.34 -62.34 6.68 -62 6 C-60.41632253 6.14204741 -58.83306682 6.28880153 -57.25 6.4375 C-56.36828125 6.51871094 -55.4865625 6.59992188 -54.578125 6.68359375 C-52 7 -52 7 -50.10864258 7.50268555 C-31.13124774 11.97842403 -16.69551605 0 0 0 Z " fill="#1C688C" transform="translate(144,113)"/>
<path d="M0 0 C1.90072266 0.21462891 1.90072266 0.21462891 3.83984375 0.43359375 C9.076965 1.01549611 14.31886073 1.54313734 19.5625 2.0625 C20.47580078 2.15337891 21.38910156 2.24425781 22.33007812 2.33789062 C24.55334022 2.55905282 26.77664752 2.77974864 29 3 C29 3.66 29 4.32 29 5 C30.98 5 32.96 5 35 5 C35 5.33 35 5.66 35 6 C29.70693358 7.07420661 24.56534859 7.21786946 19.1875 7.25 C18.33607422 7.270625 17.48464844 7.29125 16.60742188 7.3125 C10.55127163 7.34939962 5.61384594 6.25677118 0 4 C0 2.66666667 0 1.33333333 0 0 Z " fill="#F9FCFC" transform="translate(83,114)"/>
<path d="M0 0 C0.87527344 0.37125 1.75054687 0.7425 2.65234375 1.125 C5.64683582 2.49391066 8.56450694 3.98379669 11.48828125 5.49609375 C13.69459814 6.51853328 15.84257735 7.01157217 18.25 7.3125 C17.26 8.9625 16.27 10.6125 15.25 12.3125 C9.20523473 10.51763796 3.58824153 7.81927707 -2.125 5.1875 C-3.14722656 4.71957031 -4.16945313 4.25164062 -5.22265625 3.76953125 C-7.73303821 2.61991708 -10.24209231 1.46749936 -12.75 0.3125 C-11.8204248 0.08566528 -11.8204248 0.08566528 -10.87207031 -0.14575195 C-8.76204114 -0.65447872 -8.76204114 -0.65447872 -6.796875 -1.35546875 C-4.05559123 -1.80014264 -2.53896691 -1.08755111 0 0 Z " fill="#256E93" transform="translate(90.75,164.6875)"/>
<path d="M0 0 C4.3177458 0.50797009 8.03302114 1.19682779 12 3 C12 2.34 12 1.68 12 1 C12.66 1 13.32 1 14 1 C14 2.32 14 3.64 14 5 C14.99 5 15.98 5 17 5 C17 5.66 17 6.32 17 7 C23.72542934 8.26260142 23.72542934 8.26260142 30 6 C30.33 5.01 30.66 4.02 31 3 C31.99 2.67 32.98 2.34 34 2 C34.495 3.485 34.495 3.485 35 5 C37.00016466 6.20882096 37.00016466 6.20882096 39 7 C37.63487396 7.84941176 36.25729967 8.67883188 34.875 9.5 C33.72644531 10.19609375 33.72644531 10.19609375 32.5546875 10.90625 C28.66300575 12.57241344 25.82685959 12.68927273 21.82324219 11.17871094 C19.32759248 10.05378179 16.88174533 8.85751969 14.4375 7.625 C12.770115 6.80350161 11.10216243 5.98315401 9.43359375 5.1640625 C8.27706299 4.59220215 8.27706299 4.59220215 7.09716797 4.00878906 C4.77200655 2.89032958 2.41813254 1.90000025 0 1 C0 0.67 0 0.34 0 0 Z " fill="#E3F4FA" transform="translate(80,160)"/>
<path d="M0 0 C0.66 0 1.32 0 2 0 C2 0.99 2 1.98 2 3 C3.04800781 2.87431641 3.04800781 2.87431641 4.1171875 2.74609375 C5.02726562 2.64425781 5.93734375 2.54242188 6.875 2.4375 C7.77992187 2.33308594 8.68484375 2.22867188 9.6171875 2.12109375 C12 2 12 2 14 3 C14 2.34 14 1.68 14 1 C15.65 1 17.3 1 19 1 C19 1.66 19 2.32 19 3 C19.66 3 20.32 3 21 3 C21 4.65 21 6.3 21 8 C13.08 8 5.16 8 -3 8 C-3.33 6.35 -3.66 4.7 -4 3 C-3.01 3.33 -2.02 3.66 -1 4 C-0.67 2.68 -0.34 1.36 0 0 Z " fill="#828282" transform="translate(49,221)"/>
<path d="M0 0 C0 0.66 0 1.32 0 2 C-3.43253617 5.43253617 -7.40442855 6.00429285 -12 7 C-12 7.99 -12 8.98 -12 10 C-14.64 10.33 -17.28 10.66 -20 11 C-20 11.66 -20 12.32 -20 13 C-20.99 13.495 -20.99 13.495 -22 14 C-22 14.99 -22 15.98 -22 17 C-24.31 17.99 -26.62 18.98 -29 20 C-29.66 19.34 -30.32 18.68 -31 18 C-32.31747324 17.30251417 -33.64914193 16.63040043 -35 16 C-30.33933873 13.71635949 -25.67622642 11.43783351 -21.01074219 9.1640625 C-19.42313895 8.3894317 -17.83622112 7.61339456 -16.25 6.8359375 C-13.97313242 5.72027239 -11.69386775 4.60964724 -9.4140625 3.5 C-8.70255035 3.15001953 -7.99103821 2.80003906 -7.25796509 2.43945312 C-2.22774341 0 -2.22774341 0 0 0 Z " fill="#ECF9FB" transform="translate(147,127)"/>
<path d="M0 0 C4.04184793 -0.18372036 6.4568192 0.10186743 10 2 C10.66 1.67 11.32 1.34 12 1 C12.33 1.99 12.66 2.98 13 4 C16.63 4.66 20.26 5.32 24 6 C24.33 6.99 24.66 7.98 25 9 C28.51190809 10.22969878 28.51190809 10.22969878 32 11 C32 11.66 32 12.32 32 13 C33.65 13 35.3 13 37 13 C37 13.66 37 14.32 37 15 C38.32 15.33 39.64 15.66 41 16 C37.44458573 17.18513809 36.80532709 16.78127755 33.45703125 15.375 C32.55484863 15.00109131 31.65266602 14.62718262 30.72314453 14.24194336 C29.76263184 13.83210205 28.80211914 13.42226074 27.8125 13 C26.83394043 12.59080322 25.85538086 12.18160645 24.84716797 11.76000977 C16.52488403 8.26579148 8.24463669 4.67346993 0 1 C0 0.67 0 0.34 0 0 Z " fill="#1F658A" transform="translate(36,117)"/>
<path d="M0 0 C3.25696479 0.41755959 4.63443291 0.63443291 7 3 C7.66 2.67 8.32 2.34 9 2 C9 2.66 9 3.32 9 4 C9.598125 4.103125 10.19625 4.20625 10.8125 4.3125 C13 5 13 5 16 8 C9.73 8 3.46 8 -3 8 C-3.33 6.35 -3.66 4.7 -4 3 C-2.68 3.33 -1.36 3.66 0 4 C-0.33 3.01 -0.66 2.02 -1 1 C-0.67 0.67 -0.34 0.34 0 0 Z " fill="#F1F1F1" transform="translate(70,225)"/>
<path d="M0 0 C0 0.99 0 1.98 0 3 C0.99 3.33 1.98 3.66 3 4 C1.27398621 4.81917642 -0.4559647 5.63006016 -2.1875 6.4375 C-3.15042969 6.88996094 -4.11335938 7.34242187 -5.10546875 7.80859375 C-7.77331318 8.90669436 -10.17336802 9.49716219 -13 10 C-13.99 10.495 -13.99 10.495 -15 11 C-17.3329866 11.04022391 -19.66706666 11.04320247 -22 11 C-18.29827831 7.92815242 -14.15955301 5.93178248 -9.875 3.8125 C-9.14667969 3.44447266 -8.41835937 3.07644531 -7.66796875 2.69726562 C-2.25342069 0 -2.25342069 0 0 0 Z " fill="#F0F7F9" transform="translate(186,108)"/>
<path d="M0 0 C0.99 0 1.98 0 3 0 C3.07347656 1.03060547 3.07347656 1.03060547 3.1484375 2.08203125 C3.22320312 2.98308594 3.29796875 3.88414063 3.375 4.8125 C3.44460937 5.70582031 3.51421875 6.59914063 3.5859375 7.51953125 C3.86645036 10.24398499 3.86645036 10.24398499 6 13 C4.35 13.33 2.7 13.66 1 14 C0.5359375 12.3603125 0.5359375 12.3603125 0.0625 10.6875 C-0.58337897 8.44592006 -1.2623117 6.2130649 -2 4 C-2.58007812 4.27714844 -3.16015625 4.55429688 -3.7578125 4.83984375 C-8.17841841 6.88966266 -12.09514353 8.4969378 -17 9 C-14.37237786 6.37237786 -11.31793921 5.3227049 -7.9375 3.9375 C-3.66087864 2.44283706 -3.66087864 2.44283706 0 0 Z " fill="#16628C" transform="translate(60,98)"/>
<path d="M0 0 C0.12375 0.639375 0.2475 1.27875 0.375 1.9375 C0.58125 2.618125 0.7875 3.29875 1 4 C1.66 4.33 2.32 4.66 3 5 C0.93929649 7.45699265 -0.45102584 8.83932464 -3.5625 9.75 C-8.37890727 10.10028417 -13.17341842 10.07729401 -18 10 C-18.33 10.99 -18.66 11.98 -19 13 C-20.65 12.67 -22.3 12.34 -24 12 C-22.75 9.5 -22.75 9.5 -20 7 C-16.96448219 6.7444702 -14.03448042 6.88136023 -10.9921875 7.0078125 C-6.82205341 6.99692442 -4.52665181 6.19436113 -1 4 C0.04289755 1.93109581 0.04289755 1.93109581 0 0 Z " fill="#1C6287" transform="translate(169,99)"/>
<path d="M0 0 C0.33 1.98 0.66 3.96 1 6 C1.66 5.01 2.32 4.02 3 3 C6.625 2.8125 6.625 2.8125 10 3 C9.01 3.495 9.01 3.495 8 4 C8 4.99 8 5.98 8 7 C6.58456585 7.19658808 5.16755969 7.38187546 3.75 7.5625 C2.96109375 7.66691406 2.1721875 7.77132812 1.359375 7.87890625 C-2.03962549 8.05335826 -4.1897488 7.72343857 -6.75 5.4375 C-7.1625 4.963125 -7.575 4.48875 -8 4 C-8.33 5.32 -8.66 6.64 -9 8 C-9 6.02 -9 4.04 -9 2 C-2.25 0 -2.25 0 0 0 Z " fill="#898989" transform="translate(80,221)"/>
<path d="M0 0 C2 3 2 3 2.7734375 5.015625 C4.523783 7.84739415 6.59062862 8.47979803 9.625 9.75 C10.62789062 10.17796875 11.63078125 10.6059375 12.6640625 11.046875 C13.43492188 11.36140625 14.20578125 11.6759375 15 12 C13.28125 13.56640625 13.28125 13.56640625 11 15 C6.55254114 14.55368811 2.80124282 12.68398777 -0.5625 9.8125 C-1.036875 9.214375 -1.51125 8.61625 -2 8 C-1.67 7.4225 -1.34 6.845 -1 6.25 C0.27075898 3.80116138 0.27075898 3.80116138 0 0 Z " fill="#1A5E85" transform="translate(28,131)"/>
<path d="M0 0 C0 0.66 0 1.32 0 2 C-1.03898437 2.51949219 -2.07796875 3.03898437 -3.1484375 3.57421875 C-3.81979736 3.91001953 -4.49115723 4.24582031 -5.18286133 4.59179688 C-6.64845437 5.32434856 -8.11444006 6.05611517 -9.58081055 6.78710938 C-12.79141606 8.38867846 -15.9958032 9.99783208 -19.18359375 11.64453125 C-20.05113281 12.09183594 -20.91867188 12.53914062 -21.8125 13 C-22.56144531 13.391875 -23.31039062 13.78375 -24.08203125 14.1875 C-26 15 -26 15 -29 15 C-29 15.66 -29 16.32 -29 17 C-31.64 17.66 -34.28 18.32 -37 19 C-34.22258211 15.61469442 -30.42081065 14.04643875 -26.5625 12.1875 C-25.12106676 11.48052378 -23.67966077 10.77349198 -22.23828125 10.06640625 C-21.52365723 9.71852051 -20.8090332 9.37063477 -20.07275391 9.01220703 C-17.12112761 7.57081214 -14.18581372 6.09833685 -11.25 4.625 C-9.5 3.75 -7.75 2.875 -6 2 C-5.27296875 1.61585937 -4.5459375 1.23171875 -3.796875 0.8359375 C-2 0 -2 0 0 0 Z " fill="#D6D7D5" transform="translate(189,117)"/>
<path d="M0 0 C8.33597362 -0.71861842 16.74694114 0.86583731 25 2 C22.59972498 4.80772911 22.21533059 4.98205578 18.25 5.3125 C11.45902146 5.09852224 4.71389684 3.99071996 -2 3 C-1.34 2.01 -0.68 1.02 0 0 Z " fill="#D1D1D1" transform="translate(133,57)"/>
<path d="M0 0 C1.58367747 0.14204741 3.16693318 0.28880153 4.75 0.4375 C5.63171875 0.51871094 6.5134375 0.59992188 7.421875 0.68359375 C10 1 10 1 11.7265625 1.51367188 C14.8300805 2.17756877 17.78051046 2.11109953 20.953125 2.09765625 C21.94345734 2.09553383 21.94345734 2.09553383 22.95379639 2.09336853 C25.05257794 2.08779245 27.15125095 2.07524447 29.25 2.0625 C30.67708179 2.0574819 32.10416525 2.05291954 33.53125 2.04882812 C37.02086832 2.03783088 40.51042356 2.0205828 44 2 C41.54481975 4.45518025 40.17247932 4.2454567 36.82041931 4.27789307 C36.11526688 4.2738446 35.41011444 4.26979614 34.68359375 4.265625 C33.95310318 4.26753845 33.22261261 4.2694519 32.46998596 4.27142334 C30.91903338 4.27278613 29.36806943 4.26908311 27.81713867 4.26074219 C25.47092131 4.25015087 23.12548862 4.26057759 20.77929688 4.2734375 C13.29003109 4.27943635 6.25223866 4.09342972 -1 2 C-0.67 1.34 -0.34 0.68 0 0 Z " fill="#176286" transform="translate(82,119)"/>
<path d="M0 0 C4.80549747 -0.02468447 9.61095818 -0.04285255 14.41650391 -0.05493164 C16.05192711 -0.05996621 17.6873458 -0.06679427 19.32275391 -0.07543945 C21.67090975 -0.08754335 24.01900619 -0.093237 26.3671875 -0.09765625 C27.10057343 -0.10281754 27.83395935 -0.10797882 28.58956909 -0.11329651 C33.77225659 -0.11387171 33.77225659 -0.11387171 36 1 C36 1.66 36 2.32 36 3 C30.63904667 4.12862175 25.44693314 4.09688221 20 4 C20 3.34 20 2.68 20 2 C19.05898437 2.01160156 18.11796875 2.02320312 17.1484375 2.03515625 C15.90320313 2.04417969 14.65796875 2.05320312 13.375 2.0625 C12.14523438 2.07410156 10.91546875 2.08570312 9.6484375 2.09765625 C6.32276209 2.00863924 3.25952412 1.63686087 0 1 C0 0.67 0 0.34 0 0 Z " fill="#D5D4D3" transform="translate(92,115)"/>
<path d="M0 0 C0.66 0.99 1.32 1.98 2 3 C2.66 3.33 3.32 3.66 4 4 C3.67 5.32 3.34 6.64 3 8 C3.66 8.33 4.32 8.66 5 9 C3.9375 10.5 3.9375 10.5 2 12 C-1.85646386 12.2804701 -5.30516081 12.18234854 -9 11 C-8.67 10.01 -8.34 9.02 -8 8 C-4.4375 6.8125 -4.4375 6.8125 -1 6 C-0.67 4.02 -0.34 2.04 0 0 Z " fill="#D7D7D7" transform="translate(91,221)"/>
<path d="M0 0 C0.99 0.33 1.98 0.66 3 1 C3.66 0.67 4.32 0.34 5 0 C6.54023996 -0.06950541 8.08334988 -0.08452357 9.625 -0.0625 C10.85089844 -0.04896484 10.85089844 -0.04896484 12.1015625 -0.03515625 C13.04128906 -0.01775391 13.04128906 -0.01775391 14 0 C13.34 2.31 12.68 4.62 12 7 C11.34 7 10.68 7 10 7 C10 6.01 10 5.02 10 4 C9.01 5.485 9.01 5.485 8 7 C7.4225 6.814375 6.845 6.62875 6.25 6.4375 C3.79307475 5.95976454 2.35602466 6.24270636 0 7 C0.66 6.67 1.32 6.34 2 6 C2 5.34 2 4.68 2 4 C1.34 4 0.68 4 0 4 C0 2.68 0 1.36 0 0 Z " fill="#B1B1B1" transform="translate(158,222)"/>
<path d="M0 0 C0.33 0 0.66 0 1 0 C1.08082094 1.95766281 1.13910778 3.91626728 1.1875 5.875 C1.22230469 6.96554688 1.25710937 8.05609375 1.29296875 9.1796875 C1.19628906 10.11039063 1.09960938 11.04109375 1 12 C-2.35327639 14.23551759 -2.90743657 14.17283528 -6.6875 13.625 C-7.49574219 13.51414062 -8.30398437 13.40328125 -9.13671875 13.2890625 C-9.75160156 13.19367188 -10.36648437 13.09828125 -11 13 C-11 12.67 -11 12.34 -11 12 C-7.7 11.67 -4.4 11.34 -1 11 C-0.67 7.37 -0.34 3.74 0 0 Z M4 10 C4.33 10 4.66 10 5 10 C5 11.65 5 13.3 5 15 C-0.34260484 17.72813864 -4.97809337 18.89861785 -11 18 C-11.99 17.34 -12.98 16.68 -14 16 C-10.37 16 -6.74 16 -3 16 C-2.67 15.34 -2.34 14.68 -2 14 C-0.35 14 1.3 14 3 14 C3.33 12.68 3.66 11.36 4 10 Z " fill="#C6DAE1" transform="translate(163,89)"/>
<path d="M0 0 C10.12468828 0.34912718 10.12468828 0.34912718 13.4375 2.8125 C13.953125 3.534375 14.46875 4.25625 15 5 C15.7425 5.7425 16.485 6.485 17.25 7.25 C17.8275 7.8275 18.405 8.405 19 9 C18.01 9.495 18.01 9.495 17 10 C15.32874278 9.00769103 13.66360078 8.00509214 12 7 C9.41827814 5.97137696 6.82195081 5.00340059 4.20703125 4.0625 C2 3 2 3 0 0 Z " fill="#E3F6F9" transform="translate(30,136)"/>
<path d="M0 0 C-1.05058594 0.51949219 -2.10117188 1.03898438 -3.18359375 1.57421875 C-4.60169812 2.27837277 -6.0196574 2.98281904 -7.4375 3.6875 C-8.53433105 4.23071899 -8.53433105 4.23071899 -9.65332031 4.78491211 C-14.29317189 7.09815075 -18.80537507 9.53216479 -23.203125 12.28515625 C-25.50235883 13.19985145 -26.67238248 12.67161338 -29 12 C-25.98156906 10.39128326 -22.95983439 8.78886951 -19.9375 7.1875 C-19.08994141 6.73568359 -18.24238281 6.28386719 -17.36914062 5.81835938 C-3.90724114 -1.30241371 -3.90724114 -1.30241371 0 0 Z " fill="#D7D6D6" transform="translate(136,145)"/>
<path d="M0 0 C0.99 0.33 1.98 0.66 3 1 C2.34 1 1.68 1 1 1 C1.0407666 1.98919434 1.0815332 2.97838867 1.12353516 3.99755859 C1.27179588 7.6611042 1.40651574 11.32504337 1.53710938 14.98925781 C1.5955764 16.57631279 1.65773514 18.16323619 1.72363281 19.75 C1.8176169 22.02840213 1.89839523 24.3069448 1.9765625 26.5859375 C2.00875885 27.29744965 2.0409552 28.00896179 2.0741272 28.74203491 C2.1276313 30.49404733 2.07274185 32.24868084 2 34 C1.34 34.66 0.68 35.32 0 36 C0 35.34 0 34.68 0 34 C-0.66 34 -1.32 34 -2 34 C-2.042721 32.33388095 -2.04063832 30.66617115 -2 29 C-1.67 28.67 -1.34 28.34 -1 28 C-0.8415735 25.9291528 -0.74875578 23.85321971 -0.68359375 21.77734375 C-0.64169922 20.51728516 -0.59980469 19.25722656 -0.55664062 17.95898438 C-0.51682404 16.61849264 -0.47711186 15.2779978 -0.4375 13.9375 C-0.39431958 12.59308477 -0.35070544 11.2486834 -0.30664062 9.90429688 C-0.20014642 6.6029766 -0.0981354 3.30157764 0 0 Z " fill="#E7E7E7" transform="translate(67,73)"/>
<path d="M0 0 C0 0.66 0 1.32 0 2 C-0.66 2 -1.32 2 -2 2 C-2 2.66 -2 3.32 -2 4 C-2.763125 4.268125 -3.52625 4.53625 -4.3125 4.8125 C-6.97712451 5.79662745 -6.97712451 5.79662745 -8.5 7.5 C-10.46640406 9.46640406 -12.3736174 10.14642565 -15 11 C-15.99 11 -16.98 11 -18 11 C-16.56623011 6.69869034 -13.38384483 5.76374995 -9.5625 3.8125 C-8.86833984 3.44447266 -8.17417969 3.07644531 -7.45898438 2.69726562 C-2.28964228 0 -2.28964228 0 0 0 Z " fill="#D9F1F7" transform="translate(127,168)"/>
<path d="M0 0 C1.65 0 3.3 0 5 0 C5 0.66 5 1.32 5 2 C6.32 1.67 7.64 1.34 9 1 C9 1.99 9 2.98 9 4 C9.66 3.67 10.32 3.34 11 3 C12.54023996 2.93049459 14.08334988 2.91547643 15.625 2.9375 C16.85089844 2.95103516 16.85089844 2.95103516 18.1015625 2.96484375 C19.04128906 2.98224609 19.04128906 2.98224609 20 3 C17.59247874 5.31122041 16.15747678 5.97838554 12.8125 6.4375 C8.00694853 5.88604327 4.27894941 4.17343462 0 2 C0 1.34 0 0.68 0 0 Z " fill="#206387" transform="translate(92,140)"/>
<path d="M0 0 C1.093125 0.0825 2.18625 0.165 3.3125 0.25 C2.6525 2.56 1.9925 4.87 1.3125 7.25 C-0.3375 7.25 -1.9875 7.25 -3.6875 7.25 C-3.6875 6.59 -3.6875 5.93 -3.6875 5.25 C-4.6775 4.92 -5.6675 4.59 -6.6875 4.25 C-4.79150483 0.68106792 -4.16790733 0.28256999 0 0 Z " fill="#AAAAAA" transform="translate(153.6875,221.75)"/>
<path d="M0 0 C0.33 0.99 0.66 1.98 1 3 C0.525625 3.391875 0.05125 3.78375 -0.4375 4.1875 C-2.35179633 6.40808374 -2.61266988 8.13375709 -3 11 C-5.97 10.67 -8.94 10.34 -12 10 C-11 7 -11 7 -8.0625 5.3125 C-5 4 -5 4 -3 4 C-3 3.01 -3 2.02 -3 1 C-2.01 0.67 -1.02 0.34 0 0 Z " fill="#E8F8F7" transform="translate(195,130)"/>
<path d="M0 0 C-3.12202006 1.50626117 -6.24808399 3.00393243 -9.375 4.5 C-10.26445313 4.92925781 -11.15390625 5.35851562 -12.0703125 5.80078125 C-13.34648438 6.40986328 -13.34648438 6.40986328 -14.6484375 7.03125 C-15.43395996 7.40830078 -16.21948242 7.78535156 -17.02880859 8.17382812 C-19 9 -19 9 -21 9 C-21 8.01 -21 7.02 -21 6 C-4.89320388 -1.63106796 -4.89320388 -1.63106796 0 0 Z " fill="#1B6186" transform="translate(133,134)"/>
<path d="M0 0 C0 1.32 0 2.64 0 4 C-0.763125 3.690625 -1.52625 3.38125 -2.3125 3.0625 C-4.18789677 2.32106407 -6.08684652 1.63771783 -8 1 C-8.06058594 1.71027344 -8.12117187 2.42054687 -8.18359375 3.15234375 C-8.30927734 4.53099609 -8.30927734 4.53099609 -8.4375 5.9375 C-8.51871094 6.85402344 -8.59992188 7.77054688 -8.68359375 8.71484375 C-9 11 -9 11 -10 12 C-11.66617115 12.04063832 -13.33388095 12.042721 -15 12 C-14.67 11.34 -14.34 10.68 -14 10 C-13.01 10 -12.02 10 -11 10 C-10.34 6.7 -9.68 3.4 -9 0 C-5.16380575 -0.95904856 -3.67568464 -0.91892116 0 0 Z " fill="#EBFCFE" transform="translate(176,92)"/>
<path d="M0 0 C0.99 0.33 1.98 0.66 3 1 C3 1.66 3 2.32 3 3 C-6.9 7.95 -6.9 7.95 -17 13 C-17 12.01 -17 11.02 -17 10 C-16.34 10 -15.68 10 -15 10 C-15 9.34 -15 8.68 -15 8 C-12.69 7.01 -10.38 6.02 -8 5 C-8 4.67 -8 4.34 -8 4 C-6.865625 3.71125 -5.73125 3.4225 -4.5625 3.125 C-3.386875 2.75375 -2.21125 2.3825 -1 2 C-0.67 1.34 -0.34 0.68 0 0 Z " fill="#165D7F" transform="translate(187,103)"/>
<path d="M0 0 C1.4589426 0.47730838 2.91713496 0.95691042 4.375 1.4375 C5.18710938 1.70433594 5.99921875 1.97117188 6.8359375 2.24609375 C9 3 9 3 11 4 C14.83936768 4.1421988 18.32016639 4.17754676 22 3 C22 3.66 22 4.32 22 5 C18.79474083 7.62248477 17.37982123 8.03113289 13.1875 7.6875 C11.6096875 7.3471875 11.6096875 7.3471875 10 7 C10 6.34 10 5.68 10 5 C8.906875 4.87625 7.81375 4.7525 6.6875 4.625 C3 4 3 4 0 2 C0 1.34 0 0.68 0 0 Z " fill="#D7F2F9" transform="translate(90,141)"/>
<path d="M0 0 C0.66 0.33 1.32 0.66 2 1 C0.75627811 1.98712878 -0.49527218 2.96439905 -1.75 3.9375 C-2.44609375 4.48277344 -3.1421875 5.02804688 -3.859375 5.58984375 C-5.96092128 6.97425654 -7.54321799 7.56286987 -10 8 C-10 8.66 -10 9.32 -10 10 C-12.31 10 -14.62 10 -17 10 C-13.66248862 7.33656727 -10.11898148 5.29524496 -6.375 3.25 C-5.22773438 2.61578125 -4.08046875 1.9815625 -2.8984375 1.328125 C-1.46371094 0.67070312 -1.46371094 0.67070312 0 0 Z " fill="#C5E4F0" transform="translate(144,158)"/>
<path d="M0 0 C0.33 0.66 0.66 1.32 1 2 C-0.32 2.33 -1.64 2.66 -3 3 C-3 3.66 -3 4.32 -3 5 C-2.01 5 -1.02 5 0 5 C-0.33 5.66 -0.66 6.32 -1 7 C-1.99 7 -2.98 7 -4 7 C-4.99 8.485 -4.99 8.485 -6 10 C-7.32 9.67 -8.64 9.34 -10 9 C-9.34928072 6.07176325 -8.65065146 4.41562022 -6.0859375 2.77734375 C-4.07869072 1.78790585 -2.0657943 0.85994693 0 0 Z " fill="#256686" transform="translate(35,110)"/>
<path d="M0 0 C3.3 0.99 6.6 1.98 10 3 C9.34 4.65 8.68 6.3 8 8 C1.25 7.25 1.25 7.25 -1 5 C0.32 5 1.64 5 3 5 C3 4.34 3 3.68 3 3 C2.01 2.67 1.02 2.34 0 2 C0 1.34 0 0.68 0 0 Z " fill="#DBE7E9" transform="translate(75,110)"/>
<path d="M0 0 C0.845625 0.309375 1.69125 0.61875 2.5625 0.9375 C6.0497854 2.01538821 9.38177535 2.56581304 13 3 C12.67 5.31 12.34 7.62 12 10 C11.67 9.34 11.34 8.68 11 8 C9.16074601 6.95494265 9.16074601 6.95494265 7 6 C4.33333333 4.66666667 1.66666667 3.33333333 -1 2 C-0.67 1.34 -0.34 0.68 0 0 Z " fill="#D7F0F6" transform="translate(179,96)"/>
<path d="M0 0 C0.66 0.99 1.32 1.98 2 3 C2.33 2.01 2.66 1.02 3 0 C4.32 0.33 5.64 0.66 7 1 C6.67 2.65 6.34 4.3 6 6 C5.01 6 4.02 6 3 6 C3.33 5.34 3.66 4.68 4 4 C3.34 4 2.68 4 2 4 C1.67 4.99 1.34 5.98 1 7 C0.01 7 -0.98 7 -2 7 C-2.125 4.625 -2.125 4.625 -2 2 C-1.34 1.34 -0.68 0.68 0 0 Z " fill="#939393" transform="translate(140,222)"/>
<path d="M0 0 C1.65 0 3.3 0 5 0 C5 0.66 5 1.32 5 2 C5.66 2 6.32 2 7 2 C7 3.65 7 5.3 7 7 C4.36 7 1.72 7 -1 7 C-1.33 5.68 -1.66 4.36 -2 3 C-1.01 2.67 -0.02 2.34 1 2 C0.67 1.34 0.34 0.68 0 0 Z " fill="#DADADA" transform="translate(63,222)"/>
<path d="M0 0 C0 0.66 0 1.32 0 2 C-1.93370231 3.00732399 -3.87210306 4.00563288 -5.8125 5 C-7.43091797 5.8353125 -7.43091797 5.8353125 -9.08203125 6.6875 C-12 8 -12 8 -15 8 C-13.82421252 4.47263757 -13.12452867 3.89116209 -10 2 C-6.51931562 0.83977187 -3.67275518 0 0 0 Z " fill="#1E6488" transform="translate(166,116)"/>
<path d="M0 0 C2.97 0.33 5.94 0.66 9 1 C8.67 2.65 8.34 4.3 8 6 C5.69 5.67 3.38 5.34 1 5 C0.67 3.35 0.34 1.7 0 0 Z " fill="#EEEEEE" transform="translate(100,79)"/>
<path d="M0 0 C-0.66 1.98 -1.32 3.96 -2 6 C-5 6 -5 6 -6.6875 4.5 C-7.120625 4.005 -7.55375 3.51 -8 3 C-8.33 4.32 -8.66 5.64 -9 7 C-9 5.02 -9 3.04 -9 1 C-2.25 -1.125 -2.25 -1.125 0 0 Z " fill="#B9B9B9" transform="translate(80,222)"/>
<path d="M0 0 C0.66 0 1.32 0 2 0 C2 0.66 2 1.32 2 2 C2.9590625 2.1546875 2.9590625 2.1546875 3.9375 2.3125 C4.618125 2.539375 5.29875 2.76625 6 3 C6.33 3.99 6.66 4.98 7 6 C7.66 6.33 8.32 6.66 9 7 C9 7.66 9 8.32 9 9 C6.06486136 8.37104172 3.64573598 7.41105919 1 6 C0.34 5.67 -0.32 5.34 -1 5 C-0.67 3.35 -0.34 1.7 0 0 Z " fill="#F1F4F4" transform="translate(69,106)"/>
<path d="M0 0 C0.33 0.66 0.66 1.32 1 2 C1.928125 2.2165625 1.928125 2.2165625 2.875 2.4375 C5 3 5 3 8 6 C4.37 6 0.74 6 -3 6 C-3.33 5.01 -3.66 4.02 -4 3 C-2.68 2.01 -1.36 1.02 0 0 Z " fill="#FCFCFC" transform="translate(78,227)"/>
<path d="M0 0 C-2.76387192 2.15178156 -5.56533069 3.98370421 -8.625 5.6875 C-9.40101563 6.12449219 -10.17703125 6.56148437 -10.9765625 7.01171875 C-13 8 -13 8 -15 8 C-14.8125 6.125 -14.8125 6.125 -14 4 C-11.6875 2.875 -11.6875 2.875 -9 2 C-8.34 1.62875 -7.68 1.2575 -7 0.875 C-4.55711377 -0.19376273 -2.63824739 -0.1465693 0 0 Z " fill="#D5F1F6" transform="translate(154,148)"/>
<path d="M0 0 C3.3 0.99 6.6 1.98 10 3 C10 3.66 10 4.32 10 5 C11.65 5 13.3 5 15 5 C15 5.66 15 6.32 15 7 C16.32 7.33 17.64 7.66 19 8 C14.86523099 9.37825634 12.21908952 7.82520961 8.375 6.25 C7.68148437 5.98445312 6.98796875 5.71890625 6.2734375 5.4453125 C4.4758761 4.72207491 2.73221585 3.86817501 1 3 C0.67 2.01 0.34 1.02 0 0 Z " fill="#1A5E84" transform="translate(58,125)"/>
<path d="M0 0 C5.53657294 -0.42589023 9.89665983 1.094753 15 3 C15 3.33 15 3.66 15 4 C9.21101581 4.20674944 4.57067277 3.59162079 -1 2 C-0.67 1.34 -0.34 0.68 0 0 Z " fill="#DDF5FC" transform="translate(85,117)"/>
<path d="M0 0 C0.66 0.33 1.32 0.66 2 1 C1.67 1.598125 1.34 2.19625 1 2.8125 C-0.20787988 5.05386471 -0.20787988 5.05386471 0 8 C-1.32 8.33 -2.64 8.66 -4 9 C-4 8.34 -4 7.68 -4 7 C-4.99 7 -5.98 7 -7 7 C-7 6.34 -7 5.68 -7 5 C-6.360625 4.896875 -5.72125 4.79375 -5.0625 4.6875 C-4.381875 4.460625 -3.70125 4.23375 -3 4 C-2.67 3.01 -2.34 2.02 -2 1 C-1.34 0.67 -0.68 0.34 0 0 Z " fill="#0D608D" transform="translate(39,108)"/>
<path d="M0 0 C4.05819183 0.65503282 7.53971282 1.94559121 11.3125 3.5625 C12.38113281 4.01753906 13.44976562 4.47257812 14.55078125 4.94140625 C15.76314453 5.46541016 15.76314453 5.46541016 17 6 C17 6.33 17 6.66 17 7 C10.95198929 6.45018084 5.69398894 5.09570426 0 3 C0 2.01 0 1.02 0 0 Z " fill="#C6EBF6" transform="translate(31,116)"/>
<path d="M0 0 C0.33 0.66 0.66 1.32 1 2 C0.67 2.33 0.34 2.66 0 3 C0.66 3 1.32 3 2 3 C2 3.66 2 4.32 2 5 C0.71349294 5.69710731 -0.57940665 6.38242876 -1.875 7.0625 C-2.95394531 7.63677734 -2.95394531 7.63677734 -4.0546875 8.22265625 C-4.69664062 8.47917969 -5.33859375 8.73570312 -6 9 C-6.66 8.67 -7.32 8.34 -8 8 C-7.01 7.67 -6.02 7.34 -5 7 C-5.33 5.68 -5.66 4.36 -6 3 C-4.02 2.01 -2.04 1.02 0 0 Z " fill="#266683" transform="translate(169,140)"/>
<path d="M0 0 C0.99 0.33 1.98 0.66 3 1 C-1.90924297 4.92739438 -4.73920552 5.43177893 -11 5 C-10.34 4.67 -9.68 4.34 -9 4 C-8.67 3.01 -8.34 2.02 -8 1 C-7.05125 1.020625 -6.1025 1.04125 -5.125 1.0625 C-2.09333717 1.22551826 -2.09333717 1.22551826 0 0 Z " fill="#E2F7FB" transform="translate(139,112)"/>
<path d="M0 0 C0.86625 0.391875 1.7325 0.78375 2.625 1.1875 C-0.57836822 4.02124881 -3.15587253 4.7080537 -7.375 5.1875 C-7.375 4.5275 -7.375 3.8675 -7.375 3.1875 C-8.035 2.8575 -8.695 2.5275 -9.375 2.1875 C-4.20576923 -1.0125 -4.20576923 -1.0125 0 0 Z " fill="#1A6896" transform="translate(128.375,163.8125)"/>
<path d="M0 0 C0.79921875 0.01804687 1.5984375 0.03609375 2.421875 0.0546875 C3.02515625 0.07789062 3.6284375 0.10109375 4.25 0.125 C3.92 1.115 3.59 2.105 3.25 3.125 C-2.69 3.62 -2.69 3.62 -8.75 4.125 C-8.75 3.465 -8.75 2.805 -8.75 2.125 C-5.68753253 0.34090198 -3.52920727 -0.10380021 0 0 Z " fill="#F4FDFE" transform="translate(156.75,101.875)"/>
<path d="M0 0 C5.19644079 1.59890486 10.06612142 3.74138003 15 6 C15 6.33 15 6.66 15 7 C11.04170312 7.22822613 8.32148459 6.55050009 4.6875 5 C3.80449219 4.62875 2.92148438 4.2575 2.01171875 3.875 C1.34785156 3.58625 0.68398437 3.2975 0 3 C0 2.01 0 1.02 0 0 Z " fill="#DBF4F9" transform="translate(72,162)"/>
<path d="M0 0 C-4.625 3 -4.625 3 -8 3 C-8 3.66 -8 4.32 -8 5 C-10.64 5.66 -13.28 6.32 -16 7 C-12.26910751 2.45804392 -5.88161013 -1.96053671 0 0 Z " fill="#D6D9D7" transform="translate(152,137)"/>
<path d="M0 0 C0 0.66 0 1.32 0 2 C-2.99308281 4.76284567 -6.07192042 6.01798011 -10 7 C-12.1875 6.546875 -12.1875 6.546875 -14 6 C-12.04414675 4.99515796 -10.08523763 3.99626195 -8.125 3 C-6.48917969 2.1646875 -6.48917969 2.1646875 -4.8203125 1.3125 C-2 0 -2 0 0 0 Z " fill="#CFECF5" transform="translate(147,127)"/>
<path d="M0 0 C0.33 0.99 0.66 1.98 1 3 C1.66 3.33 2.32 3.66 3 4 C2.34 4 1.68 4 1 4 C1 7.3 1 10.6 1 14 C0.67 14 0.34 14 0 14 C-0.33 10.7 -0.66 7.4 -1 4 C-1.7425 4.350625 -2.485 4.70125 -3.25 5.0625 C-6.21122875 6.0720098 -7.12062561 5.87980884 -10 5 C-9.36191406 4.80664062 -8.72382813 4.61328125 -8.06640625 4.4140625 C-7.24011719 4.15367188 -6.41382813 3.89328125 -5.5625 3.625 C-4.32693359 3.24214844 -4.32693359 3.24214844 -3.06640625 2.8515625 C-0.82201984 2.19117773 -0.82201984 2.19117773 0 0 Z " fill="#9D9D9D" transform="translate(155,63)"/>
<path d="M0 0 C0.66 0 1.32 0 2 0 C2 0.99 2 1.98 2 3 C2.66 3 3.32 3 4 3 C3.34 4.65 2.68 6.3 2 8 C0.35 8 -1.3 8 -3 8 C-3.33 6.35 -3.66 4.7 -4 3 C-3.01 3.33 -2.02 3.66 -1 4 C-0.67 2.68 -0.34 1.36 0 0 Z " fill="#909090" transform="translate(49,221)"/>
<path d="M0 0 C1.65 0 3.3 0 5 0 C4.34 2.31 3.68 4.62 3 7 C2.34 7 1.68 7 1 7 C1 6.01 1 5.02 1 4 C0.01 5.485 0.01 5.485 -1 7 C-1.99 7 -2.98 7 -4 7 C-3 5 -3 5 -1 2 C-0.67 1.34 -0.34 0.68 0 0 Z " fill="#919191" transform="translate(167,222)"/>
<path d="M0 0 C0.66 0.66 1.32 1.32 2 2 C-4.435 4.97 -4.435 4.97 -11 8 C-11 7.01 -11 6.02 -11 5 C-8.09399739 3.74335022 -6.20395416 3 -3 3 C-3 2.34 -3 1.68 -3 1 C-2.01 0.67 -1.02 0.34 0 0 Z " fill="#1B6387" transform="translate(147,124)"/>
<path d="M0 0 C-6.93 2.97 -6.93 2.97 -14 6 C-14 5.34 -14 4.68 -14 4 C-13.34 4 -12.68 4 -12 4 C-12 3.34 -12 2.68 -12 2 C-7.58416436 -0.94389043 -5.16552273 -1.29138068 0 0 Z " fill="#CEEDF6" transform="translate(52,103)"/>
<path d="M0 0 C1.22589844 0.01353516 1.22589844 0.01353516 2.4765625 0.02734375 C3.41628906 0.04474609 3.41628906 0.04474609 4.375 0.0625 C4.375 0.3925 4.375 0.7225 4.375 1.0625 C2.065 1.3925 -0.245 1.7225 -2.625 2.0625 C-2.295 3.3825 -1.965 4.7025 -1.625 6.0625 C-3.275 5.7325 -4.925 5.4025 -6.625 5.0625 C-6.625 3.7425 -6.625 2.4225 -6.625 1.0625 C-4.21954362 -0.14022819 -2.67503047 -0.03821472 0 0 Z " fill="#D7D7D7" transform="translate(107.625,52.9375)"/>
<path d="M0 0 C0 0.99 0 1.98 0 3 C-1.60032137 3.84069415 -3.20541171 4.67231505 -4.8125 5.5 C-6.15248047 6.19609375 -6.15248047 6.19609375 -7.51953125 6.90625 C-10 8 -10 8 -13 8 C-13 7.34 -13 6.68 -13 6 C-8.71 4.02 -4.42 2.04 0 0 Z " fill="#D7D7D6" transform="translate(119,146)"/>
<path d="M0 0 C2.21736634 1.10868317 4.03617993 2.49440461 6 4 C3.64561267 5.42944945 2.51967567 6.08661261 -0.25 5.625 C-0.8275 5.41875 -1.405 5.2125 -2 5 C-2 3.68 -2 2.36 -2 1 C-1.34 0.67 -0.68 0.34 0 0 Z " fill="#E4F5F9" transform="translate(154,142)"/>
<path d="M0 0 C4.96432365 -0.29201904 8.03701574 -0.14707573 12 3 C12.33 3.99 12.66 4.98 13 6 C8.52761347 4.58192622 4.28853694 2.88695626 0 1 C0 0.67 0 0.34 0 0 Z " fill="#C9E9F3" transform="translate(36,140)"/>
<path d="M0 0 C2.31 0.33 4.62 0.66 7 1 C3.63576723 3.96052484 0.30840713 4.92289822 -4 6 C-4 5.01 -4 4.02 -4 3 C-2.68 2.67 -1.36 2.34 0 2 C0 1.34 0 0.68 0 0 Z " fill="#D9EFF5" transform="translate(56,96)"/>
<path d="M0 0 C-0.875 3.875 -0.875 3.875 -2 5 C-3.99958364 5.04080783 -6.00045254 5.04254356 -8 5 C-7 2 -7 2 -5.125 0.8125 C-3 0 -3 0 0 0 Z " fill="#FBF9F1" transform="translate(170,135)"/>
<path d="M0 0 C1.98828125 -0.328125 1.98828125 -0.328125 4.3125 -0.25 C5.11171875 -0.22421875 5.9109375 -0.1984375 6.734375 -0.171875 C9.21879552 0.01659828 11.58641295 0.37713883 14 1 C14 1.33 14 1.66 14 2 C6.08 2.495 6.08 2.495 -2 3 C-1.34 2.01 -0.68 1.02 0 0 Z " fill="#BEBEBE" transform="translate(133,57)"/>
<path d="M0 0 C0 0.66 0 1.32 0 2 C-1.40751221 2.86916887 -2.8264521 3.71985149 -4.25 4.5625 C-5.03890625 5.03816406 -5.8278125 5.51382813 -6.640625 6.00390625 C-9.30844625 7.13022151 -10.34501768 7.0169313 -13 6 C-11.21118264 4.99491199 -9.41885304 3.99607264 -7.625 3 C-6.62726563 2.443125 -5.62953125 1.88625 -4.6015625 1.3125 C-2 0 -2 0 0 0 Z " fill="#DFDFDE" transform="translate(120,151)"/>
<path d="M0 0 C0.66 0.33 1.32 0.66 2 1 C1.67 1.66 1.34 2.32 1 3 C1.66 3 2.32 3 3 3 C3 3.66 3 4.32 3 5 C1.02 5.33 -0.96 5.66 -3 6 C-3 5.34 -3 4.68 -3 4 C-3.66 3.34 -4.32 2.68 -5 2 C-2.625 0.9375 -2.625 0.9375 0 0 Z " fill="#E6F0F7" transform="translate(152,124)"/>
<path d="M0 0 C0 0.99 0 1.98 0 3 C0.99 3.33 1.98 3.66 3 4 C-0.98196457 5.05404945 -3.98195309 4.84098656 -8 4 C-2.7826087 0 -2.7826087 0 0 0 Z " fill="#DDEEF6" transform="translate(186,108)"/>
<path d="M0 0 C1.65 0 3.3 0 5 0 C5 0.66 5 1.32 5 2 C6.32 1.67 7.64 1.34 9 1 C9 2.32 9 3.64 9 5 C6.03 4.01 3.06 3.02 0 2 C0 1.34 0 0.68 0 0 Z " fill="#206C93" transform="translate(92,140)"/>
<path d="M0 0 C4.38889325 0.66498383 7.9811485 2.18757677 12 4 C12 4.33 12 4.66 12 5 C5.25 5.125 5.25 5.125 3 4 C3 3.34 3 2.68 3 2 C2.01 1.67 1.02 1.34 0 1 C0 0.67 0 0.34 0 0 Z " fill="#115B81" transform="translate(69,114)"/>
<path d="M0 0 C1.65 0.33 3.3 0.66 5 1 C4.01 1.66 3.02 2.32 2 3 C1.67 3.99 1.34 4.98 1 6 C-0.65 5.67 -2.3 5.34 -4 5 C-2.68 3.35 -1.36 1.7 0 0 Z " fill="#256688" transform="translate(149,106)"/>
<path d="M0 0 C0.99 0 1.98 0 3 0 C3 3.96 3 7.92 3 12 C1 10 1 10 0.8046875 8.0546875 C0.90234375 5.02734375 0.90234375 5.02734375 1 2 C0.34 1.67 -0.32 1.34 -1 1 C-0.67 0.67 -0.34 0.34 0 0 Z " fill="#37728C" transform="translate(60,98)"/>
<path d="M0 0 C0.12375 0.639375 0.2475 1.27875 0.375 1.9375 C0.684375 2.9584375 0.684375 2.9584375 1 4 C1.66 4.33 2.32 4.66 3 5 C1.25 7.0625 1.25 7.0625 -1 9 C-3.25 8.75 -3.25 8.75 -5 8 C-4.0409375 7.13375 -4.0409375 7.13375 -3.0625 6.25 C-1.01776132 4.01937599 -0.41794801 2.92563609 0 0 Z " fill="#0B5D86" transform="translate(169,99)"/>
<path d="M0 0 C1.32 0 2.64 0 4 0 C4 1.65 4 3.3 4 5 C4.66 5 5.32 5 6 5 C5.67 6.98 5.34 8.96 5 11 C4.67 11 4.34 11 4 11 C4 9.35 4 7.7 4 6 C3.34 6 2.68 6 2 6 C1.34 4.02 0.68 2.04 0 0 Z " fill="#F5F5F5" transform="translate(154,60)"/>
<path d="M0 0 C0.33 0.66 0.66 1.32 1 2 C2.65 2 4.3 2 6 2 C6.66 3.32 7.32 4.64 8 6 C6.53932801 5.54917531 5.08151968 5.08906463 3.625 4.625 C2.81289062 4.36976563 2.00078125 4.11453125 1.1640625 3.8515625 C-1 3 -1 3 -3 1 C-2.01 0.67 -1.02 0.34 0 0 Z " fill="#C6E6EF" transform="translate(63,150)"/>
<path d="M0 0 C1.2065625 0.0309375 1.2065625 0.0309375 2.4375 0.0625 C3.0975 1.7125 3.7575 3.3625 4.4375 5.0625 C0.74995243 4.56418276 -1.16740662 3.96182357 -3.5625 1.0625 C-2.5625 0.0625 -2.5625 0.0625 0 0 Z " fill="#125881" transform="translate(42.5625,143.9375)"/>
<path d="M0 0 C0.66 0.33 1.32 0.66 2 1 C1 4 1 4 -1 5 C-3.3329866 5.04022391 -5.66706666 5.04320247 -8 5 C-5.45378681 2.99940392 -3.01962385 1.20784954 0 0 Z " fill="#D8F3F9" transform="translate(172,114)"/>
<path d="M0 0 C0.33 0 0.66 0 1 0 C1 1.65 1 3.3 1 5 C-0.98 5.99 -2.96 6.98 -5 8 C-5.66 7.01 -6.32 6.02 -7 5 C-4 3 -4 3 -1.8125 3.375 C-1.214375 3.58125 -0.61625 3.7875 0 4 C0 2.68 0 1.36 0 0 Z " fill="#F6F6F6" transform="translate(59,225)"/>
<path d="M0 0 C-0.66 1.32 -1.32 2.64 -2 4 C-3.98 4 -5.96 4 -8 4 C-7.67 3.01 -7.34 2.02 -7 1 C-4.53721199 -0.231394 -2.7204945 -0.07159196 0 0 Z " fill="#0D5E88" transform="translate(140,158)"/>
<path d="M0 0 C-1.75 3.875 -1.75 3.875 -4 5 C-5.99960012 5.039992 -8.00047242 5.04346799 -10 5 C-3.63636364 0 -3.63636364 0 0 0 Z " fill="#C8E7F3" transform="translate(122,139)"/>
<path d="M0 0 C-1 3 -1 3 -2.70703125 3.984375 C-3.40183594 4.23703125 -4.09664062 4.4896875 -4.8125 4.75 C-5.49957031 5.01296875 -6.18664063 5.2759375 -6.89453125 5.546875 C-9.28143969 6.06056958 -10.70637773 5.76282269 -13 5 C-11.21046815 4.16209211 -9.41830305 3.32980604 -7.625 2.5 C-6.62726562 2.0359375 -5.62953125 1.571875 -4.6015625 1.09375 C-2 0 -2 0 0 0 Z " fill="#27658B" transform="translate(56,101)"/>
<path d="M0 0 C0 1.32 0 2.64 0 4 C-1.11375 3.505 -1.11375 3.505 -2.25 3 C-5.13883312 1.77217129 -5.13883312 1.77217129 -9 2 C-9 1.34 -9 0.68 -9 0 C-5.67465243 -1.10844919 -3.37817425 -0.84454356 0 0 Z " fill="#DCF0F6" transform="translate(176,92)"/>
<path d="M0 0 C1.77706209 2.66559313 2.87548273 5.0280615 4 8 C2.35 8.33 0.7 8.66 -1 9 C-1 5.72724974 -0.70074844 3.153368 0 0 Z " fill="#2F6E91" transform="translate(28,131)"/>
<path d="M0 0 C4.72224516 1.53472968 9.35855331 3.23945126 14 5 C10.30962722 6.37095624 8.29116165 5.60010967 4.75 4.0625 C3.85796875 3.68222656 2.9659375 3.30195312 2.046875 2.91015625 C1.37140625 2.60980469 0.6959375 2.30945313 0 2 C0 1.34 0 0.68 0 0 Z " fill="#D1F1F8" transform="translate(48,123)"/>
<path d="M0 0 C-5.445 2.475 -5.445 2.475 -11 5 C-10.67 4.01 -10.34 3.02 -10 2 C-9.34 2 -8.68 2 -8 2 C-8 1.34 -8 0.68 -8 0 C-4.63458162 -1.08174162 -3.70152678 -0.92538169 0 0 Z " fill="#24648B" transform="translate(180,111)"/>
<path d="M0 0 C1.32 0.33 2.64 0.66 4 1 C4.33 1.66 4.66 2.32 5 3 C4.01 3 3.02 3 2 3 C1.67 5.31 1.34 7.62 1 10 C0.67 10 0.34 10 0 10 C0 6.7 0 3.4 0 0 Z " fill="#427A93" transform="translate(168,93)"/>
<path d="M0 0 C0.99 0.33 1.98 0.66 3 1 C3 1.66 3 2.32 3 3 C2.34 3.66 1.68 4.32 1 5 C1 5.66 1 6.32 1 7 C-0.32 6.67 -1.64 6.34 -3 6 C-3 3 -3 3 -1.5 1.3125 C-0.7575 0.6628125 -0.7575 0.6628125 0 0 Z " fill="#E4F3F4" transform="translate(74,151)"/>
<path d="M0 0 C0.33 0.99 0.66 1.98 1 3 C-1.31 3 -3.62 3 -6 3 C-6.33 2.01 -6.66 1.02 -7 0 C-4.3333581 -1.33332095 -2.83319697 -0.67102033 0 0 Z " fill="#0F6996" transform="translate(151,122)"/>
<path d="M0 0 C2.31 0 4.62 0 7 0 C7 0.66 7 1.32 7 2 C6.34 2 5.68 2 5 2 C5 2.66 5 3.32 5 4 C3.02 3.34 1.04 2.68 -1 2 C-0.67 1.34 -0.34 0.68 0 0 Z " fill="#266E93" transform="translate(53,123)"/>
<path d="M0 0 C0.66 0.33 1.32 0.66 2 1 C1.195625 1.45375 0.39125 1.9075 -0.4375 2.375 C-3.08856572 3.74725665 -3.08856572 3.74725665 -4 6 C-6.97 5.505 -6.97 5.505 -10 5 C-8.66666667 4.33333333 -7.33333333 3.66666667 -6 3 C-4.453125 2.1646875 -4.453125 2.1646875 -2.875 1.3125 C-1.451875 0.6628125 -1.451875 0.6628125 0 0 Z " fill="#C0C4C3" transform="translate(134,110)"/>
<path d="M0 0 C0.99 0 1.98 0 3 0 C2.67 2.31 2.34 4.62 2 7 C1.67 6.34 1.34 5.68 1 5 C0.01 4.67 -0.98 4.34 -2 4 C-1.34 2.68 -0.68 1.36 0 0 Z " fill="#DEEDEC" transform="translate(189,99)"/>
<path d="M0 0 C1.625 2 1.625 2 3 4 C1.1875 4.625 1.1875 4.625 -1 5 C-1.99 4.34 -2.98 3.68 -4 3 C-4 2.34 -4 1.68 -4 1 C-2 0 -2 0 0 0 Z " fill="#10617E" transform="translate(99,169)"/>
<path d="M0 0 C0.928125 0.515625 1.85625 1.03125 2.8125 1.5625 C1.4925 2.5525 0.1725 3.5425 -1.1875 4.5625 C-1.5175 3.2425 -1.8475 1.9225 -2.1875 0.5625 C-3.5075 0.2325 -4.8275 -0.0975 -6.1875 -0.4375 C-3.1875 -1.4375 -3.1875 -1.4375 0 0 Z " fill="#1F6689" transform="translate(176.1875,96.4375)"/>
<path d="M0 0 C0.33 0.66 0.66 1.32 1 2 C1.66 2.33 2.32 2.66 3 3 C2.67 3.99 2.34 4.98 2 6 C0.35 6 -1.3 6 -3 6 C-2.01 4.02 -1.02 2.04 0 0 Z " fill="#F6F6F6" transform="translate(162,227)"/>
<path d="M0 0 C0.66 0.33 1.32 0.66 2 1 C1.67 1.66 1.34 2.32 1 3 C0.34 3 -0.32 3 -1 3 C-1 3.66 -1 4.32 -1 5 C-2.98 5 -4.96 5 -7 5 C-2.25 1.125 -2.25 1.125 0 0 Z " fill="#CBE7F1" transform="translate(159,150)"/>
<path d="M0 0 C0.66 0 1.32 0 2 0 C2.33 2.31 2.66 4.62 3 7 C1.68 6.67 0.36 6.34 -1 6 C-1.042721 4.33388095 -1.04063832 2.66617115 -1 1 C-0.67 0.67 -0.34 0.34 0 0 Z " fill="#8E8E8E" transform="translate(134,222)"/>
<path d="M0 0 C0.66 0 1.32 0 2 0 C2.33 2.31 2.66 4.62 3 7 C1.68 6.67 0.36 6.34 -1 6 C-1.042721 4.33388095 -1.04063832 2.66617115 -1 1 C-0.67 0.67 -0.34 0.34 0 0 Z " fill="#909090" transform="translate(124,222)"/>
<path d="M0 0 C0.66 0 1.32 0 2 0 C2.33 2.31 2.66 4.62 3 7 C1.68 6.67 0.36 6.34 -1 6 C-1.042721 4.33388095 -1.04063832 2.66617115 -1 1 C-0.67 0.67 -0.34 0.34 0 0 Z " fill="#8F8F8F" transform="translate(129,222)"/>
<path d="M0 0 C0 0.66 0 1.32 0 2 C-0.66 2 -1.32 2 -2 2 C-2 2.66 -2 3.32 -2 4 C-3.65 4.33 -5.3 4.66 -7 5 C-6 2 -6 2 -4.0625 0.8125 C-2 0 -2 0 0 0 Z " fill="#CDE7F0" transform="translate(127,168)"/>
<path d="M0 0 C-0.33 1.32 -0.66 2.64 -1 4 C-3.31 4 -5.62 4 -8 4 C-2.7826087 0 -2.7826087 0 0 0 Z " fill="#C8EEF7" transform="translate(135,164)"/>
<path d="M0 0 C0.33 0.99 0.66 1.98 1 3 C-5.75 5.125 -5.75 5.125 -8 4 C-5.36 2.68 -2.72 1.36 0 0 Z " fill="#CDE9F0" transform="translate(175,142)"/>
<path d="M0 0 C0.66 0 1.32 0 2 0 C2 1.65 2 3.3 2 5 C0.35 4.67 -1.3 4.34 -3 4 C-1.625 2 -1.625 2 0 0 Z " fill="#FAFDFD" transform="translate(158,140)"/>
<path d="M0 0 C0.33 0.99 0.66 1.98 1 3 C-0.1875 4.5 -0.1875 4.5 -2 6 C-4.6875 6.1875 -4.6875 6.1875 -7 6 C-5.68 5.34 -4.36 4.68 -3 4 C-3 3.01 -3 2.02 -3 1 C-2.01 0.67 -1.02 0.34 0 0 Z " fill="#E1EFF4" transform="translate(195,130)"/>
<path d="M0 0 C1.32 0.33 2.64 0.66 4 1 C3.67 2.32 3.34 3.64 3 5 C2.01 4.67 1.02 4.34 0 4 C0 2.68 0 1.36 0 0 Z " fill="#949494" transform="translate(103,224)"/>
<path d="M0 0 C0.99 0.33 1.98 0.66 3 1 C3.33 2.65 3.66 4.3 4 6 C2.68 6.33 1.36 6.66 0 7 C0.66 6.67 1.32 6.34 2 6 C2 5.34 2 4.68 2 4 C1.34 4 0.68 4 0 4 C0 2.68 0 1.36 0 0 Z " fill="#848484" transform="translate(158,222)"/>
<path d="M0 0 C0.99 0 1.98 0 3 0 C3 1.65 3 3.3 3 5 C1.68 4.67 0.36 4.34 -1 4 C-0.67 2.68 -0.34 1.36 0 0 Z " fill="#909090" transform="translate(67,224)"/>
<path d="M0 0 C0.763125 0.20625 1.52625 0.4125 2.3125 0.625 C0.9925 1.615 -0.3275 2.605 -1.6875 3.625 C-3.0075 2.965 -4.3275 2.305 -5.6875 1.625 C-2.6875 -0.375 -2.6875 -0.375 0 0 Z " fill="#336D92" transform="translate(40.6875,142.375)"/>
<path d="M0 0 C0.5775 0.763125 1.155 1.52625 1.75 2.3125 C3.71703093 4.66200917 5.48476744 6.29323505 8 8 C5.6875 8.25 5.6875 8.25 3 8 C1.1875 6.25 1.1875 6.25 0 4 C0 2.68 0 1.36 0 0 Z " fill="#C1E7F4" transform="translate(25,136)"/>
<path d="M0 0 C0 0.66 0 1.32 0 2 C-2.66666667 3.33333333 -5.33333333 4.66666667 -8 6 C-8.66 5.34 -9.32 4.68 -10 4 C-8.71086513 3.32845067 -7.41859796 2.66291141 -6.125 2 C-5.40570313 1.62875 -4.68640625 1.2575 -3.9453125 0.875 C-2 0 -2 0 0 0 Z " fill="#D5F6FC" transform="translate(164,119)"/>
<path d="M0 0 C1.65 0 3.3 0 5 0 C4.54625 0.391875 4.0925 0.78375 3.625 1.1875 C1.72357081 3.30832487 0.93795972 5.33042235 0 8 C-0.98120464 4.94736336 -0.98120464 3.05263664 0 0 Z " fill="#CEEDF7" transform="translate(25,112)"/>
<path d="M0 0 C1.32 0 2.64 0 4 0 C4 0.66 4 1.32 4 2 C5.65 2.33 7.3 2.66 9 3 C8.67 3.66 8.34 4.32 8 5 C4.62496331 3.8141763 2.35277269 2.72426311 0 0 Z " fill="#D0ECF6" transform="translate(66,110)"/>
<path d="M0 0 C1.32 0.33 2.64 0.66 4 1 C1.03 3.475 1.03 3.475 -2 6 C-2 4.68 -2 3.36 -2 2 C-1.34 2 -0.68 2 0 2 C0 1.34 0 0.68 0 0 Z " fill="#DAF4FA" transform="translate(145,106)"/>
<path d="M0 0 C0.33 0 0.66 0 1 0 C1.33 2.64 1.66 5.28 2 8 C0.68 8.33 -0.64 8.66 -2 9 C-1.34 6.03 -0.68 3.06 0 0 Z " fill="#E2E2E2" transform="translate(44,54)"/>
</svg>
