<?xml version="1.0" encoding="UTF-8"?>
<svg version="1.1" xmlns="http://www.w3.org/2000/svg" width="1024" height="1024">
<path d="M0 0 C337.92 0 675.84 0 1024 0 C1024 337.92 1024 675.84 1024 1024 C686.08 1024 348.16 1024 0 1024 C0 686.08 0 348.16 0 0 Z " fill="#F7F5F1" transform="translate(0,0)"/>
<path d="M0 0 C0.98223541 0.00337372 1.96447083 0.00674744 2.97647095 0.01022339 C18.58927392 0.08765167 33.61268286 0.87996711 48.875 4.4375 C50.49825195 4.81551758 50.49825195 4.81551758 52.15429688 5.20117188 C105.12169919 17.91700766 154.74264207 46.39068015 187.56005859 90.67382812 C188.90041059 92.47158209 190.26973497 94.24411416 191.64453125 96.015625 C198.75809419 105.29332113 204.51585408 115.05978528 209.875 125.4375 C210.25897949 126.16888184 210.64295898 126.90026367 211.03857422 127.65380859 C238.86445765 181.15782071 241.55572779 244.67446243 223.87304688 301.76904297 C213.47922963 333.54427148 196.40889034 361.93831233 174.27392578 386.84912109 C172.24636247 389.15127238 170.26592314 391.49296479 168.28491211 393.83520508 C166.86480186 395.44908968 165.47854161 397.00380561 163.875 398.4375 C163.215 398.4375 162.555 398.4375 161.875 398.4375 C161.875 399.0975 161.875 399.7575 161.875 400.4375 C160.58203125 401.77734375 160.58203125 401.77734375 158.6875 403.375 C157.9553125 403.99503906 157.223125 404.61507813 156.46875 405.25390625 C155.6128125 405.97449219 154.756875 406.69507813 153.875 407.4375 C152.8953125 408.29214844 151.915625 409.14679688 150.90625 410.02734375 C143.56800338 416.40488545 136.02191556 422.10838897 127.875 427.4375 C126.40546875 428.40236328 126.40546875 428.40236328 124.90625 429.38671875 C97.51407611 446.78922097 66.98639179 458.50694566 34.875 463.4375 C33.83625732 463.60668945 32.79751465 463.77587891 31.72729492 463.95019531 C21.31112461 465.5151054 11.07975318 465.83721359 0.5625 465.8125 C-0.3125116 465.81195618 -1.18752319 465.81141235 -2.08905029 465.81085205 C-58.80729419 465.64950432 -113.66142155 443.06213074 -155.125 404.4375 C-156.51644666 403.22411781 -157.91208639 402.01552197 -159.3125 400.8125 C-166.74844372 394.2986133 -172.94379118 387.14785804 -179.125 379.4375 C-179.76179688 378.67953125 -180.39859375 377.9215625 -181.0546875 377.140625 C-203.81382937 349.75410573 -218.89506686 316.90936907 -227.125 282.4375 C-227.42921875 281.19097656 -227.7334375 279.94445312 -228.046875 278.66015625 C-229.16103211 273.78856111 -230.08372396 268.94456286 -230.6875 263.984375 C-232.01915139 253.31067693 -234.49708649 243.73938714 -238.06762695 233.59033203 C-240.48928282 226.61108739 -242.44127705 219.65885631 -244 212.4375 C-244.19062012 211.56762451 -244.38124023 210.69774902 -244.57763672 209.80151367 C-247.64790988 194.92666537 -248.47338562 180.39530793 -248.44067383 165.24853516 C-248.43751886 162.2056879 -248.46104978 159.16382144 -248.48632812 156.12109375 C-248.54273542 138.97466412 -246.49270075 122.58961214 -242.375 105.9375 C-242.11823486 104.88981445 -241.86146973 103.84212891 -241.59692383 102.76269531 C-229.15281621 53.46531621 -229.15281621 53.46531621 -215.125 39.4375 C-211.21484478 39.81159517 -208.01849521 41.2706037 -204.50390625 42.95703125 C-203.41480957 43.47845703 -202.32571289 43.99988281 -201.20361328 44.53710938 C-200.0432959 45.10236328 -198.88297852 45.66761719 -197.6875 46.25 C-197.08919373 46.54028076 -196.49088745 46.83056152 -195.87445068 47.12963867 C-163.19382471 63.00547586 -131.34138617 81.52449894 -104.49609375 106.25390625 C-102.86022214 107.76041734 -101.20520415 109.24630993 -99.53515625 110.71484375 C-95.08472237 114.62988709 -90.89600163 118.56591824 -87.0859375 123.109375 C-85.55729038 124.92426282 -84.0033953 126.6925326 -82.4140625 128.453125 C-64.92837613 148.0062114 -52.1200179 171.49645838 -44.125 196.4375 C-43.72667969 197.67371094 -43.32835937 198.90992188 -42.91796875 200.18359375 C-30.6523559 242.12555829 -36.97079521 286.33613585 -55.125 325.4375 C-54.47015625 324.57769531 -53.8153125 323.71789062 -53.140625 322.83203125 C-46.95565904 314.79214872 -40.42842628 307.25754032 -33.46923828 299.88330078 C-31.55221229 297.82143592 -29.7162435 295.6920008 -27.875 293.5625 C-24.86481594 290.1559131 -21.68921667 287.15019888 -18.21484375 284.22265625 C-16.8014755 283.01534917 -15.41871533 281.77142129 -14.06640625 280.49609375 C46.14083966 223.8365885 131.0480075 206.62631349 210.875 207.4375 C210.58138801 204.77546852 210.28241173 202.11421406 209.98046875 199.453125 C209.89921753 198.71143066 209.81796631 197.96973633 209.73425293 197.20556641 C205.21838931 157.77489027 185.62711562 120.62268852 158.9609375 91.7109375 C157.0227745 89.5985576 155.16476729 87.43751928 153.3125 85.25 C149.79813291 81.24154956 145.98731789 77.82220398 141.875 74.4375 C141.35405762 74.00421387 140.83311523 73.57092773 140.29638672 73.12451172 C96.85663158 37.1057656 40.87043628 17.76947189 -15.81689453 22.76269531 C-31.52052515 24.40268824 -47.0070035 26.82560646 -62.125 31.4375 C-62.9195459 31.67807129 -63.7140918 31.91864258 -64.53271484 32.16650391 C-88.02279429 39.45297379 -110.76594482 50.53333478 -129.79296875 66.234375 C-132.125 67.4375 -132.125 67.4375 -134.5 66.8984375 C-137.69983075 65.11757931 -140.84116994 63.26626011 -143.9375 61.3125 C-144.53498047 60.93996094 -145.13246094 60.56742188 -145.74804688 60.18359375 C-147.20926251 59.2717952 -148.66744585 58.35514024 -150.125 57.4375 C-148.57847407 52.91524485 -144.8875947 50.64346006 -141.1875 47.9375 C-140.48238281 47.41704102 -139.77726562 46.89658203 -139.05078125 46.36035156 C-125.81079061 36.72548075 -111.9916751 28.3010542 -97.125 21.4375 C-96.47998535 21.13505371 -95.8349707 20.83260742 -95.17041016 20.52099609 C-81.48215565 14.13813681 -67.41754619 9.34177214 -52.75 5.75 C-51.60398315 5.46455322 -51.60398315 5.46455322 -50.43481445 5.17333984 C-33.69868597 1.26090952 -17.15050489 -0.11506245 0 0 Z " fill="#02432D" transform="translate(510.125,148.5625)"/>
<path d="M0 0 C5.06680113 1.51129076 9.53813664 3.65899801 14.1875 6.125 C15.40070923 6.76828247 15.40070923 6.76828247 16.63842773 7.42456055 C35.21182268 17.40457936 53.28287644 28.11571846 70 41 C70.97839844 41.74765625 71.95679688 42.4953125 72.96484375 43.265625 C78.04638967 47.24316788 82.85501329 51.49144796 87.62109375 55.83984375 C89.78271952 57.80269933 91.97526262 59.7196626 94.1875 61.625 C101.61303393 68.12976772 107.91364823 75.22461281 114 83 C114.4336084 83.55187988 114.8672168 84.10375977 115.31396484 84.67236328 C136.99808082 112.50278837 148.22218409 144.03418384 148.25 179.375 C148.25067474 180.14143829 148.25134949 180.90787659 148.25204468 181.69754028 C148.23650807 192.78385555 147.77928142 203.2163881 145 214 C144.63168862 215.55442163 144.26456549 217.10912515 143.8984375 218.6640625 C141.36433182 229.08783658 137.99346016 239.05065768 134 249 C133.67 249 133.34 249 133 249 C132.82726562 247.90429688 132.65453125 246.80859375 132.4765625 245.6796875 C128.08418401 220.09242739 118.54599121 196.13124236 107 173 C106.46971191 171.93378418 105.93942383 170.86756836 105.39306641 169.76904297 C95.07810875 149.17325232 83.70209845 129.52973147 70 111 C69.56977539 110.41669922 69.13955078 109.83339844 68.69628906 109.23242188 C58.47204295 95.4564275 47.17496637 82.09260056 35 70 C41.68850385 84.9294012 48.59489365 99.66516097 56.234375 114.1328125 C70.86548442 141.93784393 84.55080681 170.33311926 95 200 C95.33420959 200.94715881 95.33420959 200.94715881 95.6751709 201.91345215 C103.46932811 224.05456727 110.17100465 246.17644341 114.375 269.3125 C114.54314209 270.22531738 114.71128418 271.13813477 114.88452148 272.07861328 C115.96197062 278.42676411 116.18096833 284.56789045 116 291 C111.98814663 288.81964491 108.26713991 286.50452615 104.578125 283.8125 C98.53173215 279.55251619 92.12666303 276.07208604 85.625 272.5625 C68.91675638 263.53891696 53.45424138 253.30653508 39.53125 240.34375 C37.31517223 238.29182614 35.05494366 236.32533694 32.75 234.375 C28.76128885 230.885885 25.35678777 227.09461637 22 223 C21.59378418 222.51144531 21.18756836 222.02289063 20.76904297 221.51953125 C13.58985645 212.84675894 7.35085989 203.91111654 2 194 C1.62633301 193.30874023 1.25266602 192.61748047 0.86767578 191.90527344 C-8.59928241 174.02099847 -15.00977591 154.01456659 -18 134 C-18.13245117 133.15888672 -18.26490234 132.31777344 -18.40136719 131.45117188 C-25.39630354 86.21201049 -18.57395233 41.67353771 0 0 Z " fill="#40B02C" transform="translate(304,215)"/>
<path d="M0 0 C1.47786304 0.00503337 2.95572777 0.00959298 4.43359375 0.01367188 C7.99743195 0.02451282 11.56120447 0.04167221 15.125 0.0625 C15.15216824 2.60423977 15.17191969 5.14568415 15.1875 7.6875 C15.19587891 8.40035156 15.20425781 9.11320312 15.21289062 9.84765625 C15.23210296 14.03594438 14.9517327 17.9353462 14.125 22.0625 C12.86731812 22.24256592 12.86731812 22.24256592 11.58422852 22.42626953 C-13.78998342 26.1047949 -38.43304711 31.17270746 -62.875 39.0625 C-63.56899902 39.28341309 -64.26299805 39.50432617 -64.97802734 39.73193359 C-93.501858 48.91571677 -120.4593824 62.75795227 -144.875 80.0625 C-145.56287598 80.54686523 -146.25075195 81.03123047 -146.95947266 81.53027344 C-157.38579423 88.92927955 -166.73779889 97.13748353 -175.875 106.0625 C-176.61073242 106.77245117 -177.34646484 107.48240234 -178.10449219 108.21386719 C-187.29887583 117.09932572 -196.04918377 126.02484165 -203.61279297 136.3515625 C-204.91659958 138.11888875 -206.25359038 139.85689123 -207.59765625 141.59375 C-214.96847363 151.22652506 -221.02259305 161.45349352 -226.875 172.0625 C-227.27992676 172.78727539 -227.68485352 173.51205078 -228.10205078 174.25878906 C-233.5527326 184.04437137 -238.13144995 194.02878351 -242.34375 204.40625 C-243.875 208.0625 -243.875 208.0625 -244.875 209.0625 C-252.06419528 208.65266464 -258.4796536 206.39822867 -265.25 204.0625 C-266.34183594 203.69382812 -267.43367188 203.32515625 -268.55859375 202.9453125 C-276.50639479 200.24680261 -276.50639479 200.24680261 -278.875 199.0625 C-274.84656057 156.22348562 -242.82009353 114.05317186 -213.875 84.0625 C-212.97523438 83.12148438 -212.07546875 82.18046875 -211.1484375 81.2109375 C-205.41749889 75.33445125 -199.33130504 70.12328072 -192.875 65.0625 C-192.27864746 64.58441895 -191.68229492 64.10633789 -191.06787109 63.61376953 C-137.42674551 20.63305475 -68.340486 -0.41187693 0 0 Z " fill="#F4C818" transform="translate(707.875,376.9375)"/>
<path d="M0 0 C-0.81406516 7.28447959 -2.47769744 14.13433985 -4.8125 21.0625 C-5.16658936 22.16936157 -5.16658936 22.16936157 -5.52783203 23.29858398 C-6.6218589 26.4132115 -7.57916498 28.64061778 -10.11328125 30.8046875 C-14.13249395 32.46893525 -18.22272981 33.77288445 -22.375 35.0625 C-49.90681384 43.98173064 -76.49450537 57.1047308 -100 74 C-101.04124023 74.74032471 -101.04124023 74.74032471 -102.10351562 75.49560547 C-111.16373007 81.97049825 -119.49232513 88.93477015 -127.5390625 96.62451172 C-129.76779495 98.72288716 -132.0749129 100.73049581 -134.375 102.75 C-137.9445489 105.95167268 -141.15981223 109.27119805 -144.24609375 112.9375 C-146.14276719 115.16788658 -148.13034741 117.29442498 -150.125 119.4375 C-161.25995473 131.82656226 -171.83751429 145.54075777 -178.75390625 160.7890625 C-179.30949219 161.97242188 -179.86507812 163.15578125 -180.4375 164.375 C-180.88996094 165.43460938 -181.34242188 166.49421875 -181.80859375 167.5859375 C-184.30520829 170.33621876 -184.92973804 170.43671995 -188.4765625 170.84375 C-190.31651691 170.92800222 -192.1582466 170.9782041 -194 171 C-194.95173096 171.02529785 -195.90346191 171.0505957 -196.8840332 171.07666016 C-199.90307076 171.13401364 -202.91798472 171.1365469 -205.9375 171.125 C-206.94490234 171.12886719 -207.95230469 171.13273438 -208.99023438 171.13671875 C-225.65414179 171.11528607 -225.65414179 171.11528607 -232 169 C-228.11475785 142.77461546 -205.4866757 114.94420557 -188.38134766 95.57006836 C-187.38900114 94.44214675 -186.4052916 93.30660435 -185.42724609 92.16625977 C-175.08096309 80.15585819 -163.73380577 68.48500488 -151 59 C-149.99710938 58.24203125 -148.99421875 57.4840625 -147.9609375 56.703125 C-108.51522573 27.42535298 -50.39936445 -1.22925279 0 0 Z " fill="#F4C818" transform="translate(718,422)"/>
<path d="M0 0 C3.62298387 2.12298387 3.62298387 2.12298387 5.0625 3.5625 C5.3925 1.9125 5.7225 0.2625 6.0625 -1.4375 C11.6725 -1.4375 17.2825 -1.4375 23.0625 -1.4375 C23.10794427 6.43904014 23.14452631 14.31550675 23.16612434 22.19214249 C23.17649781 25.85080136 23.19053707 29.50936478 23.21337891 33.16796875 C23.23533987 36.70821807 23.24711682 40.24837641 23.25225449 43.78868866 C23.25767002 45.77584335 23.27324434 47.76296217 23.28909302 49.75006104 C23.2904861 61.18878043 23.18653802 73.35861953 15.4453125 82.46484375 C6.58964615 91.15515533 -4.26546614 92.18169666 -16.12084961 92.10791016 C-23.43406369 91.85825831 -30.83098876 90.94749478 -36.9375 86.5625 C-38.16011999 83.5436852 -38.06749928 82.00998497 -37.16015625 78.88671875 C-36.77730469 78.01660156 -36.39445313 77.14648438 -36 76.25 C-35.61972656 75.36699219 -35.23945312 74.48398437 -34.84765625 73.57421875 C-34.54730469 72.91035156 -34.24695313 72.24648438 -33.9375 71.5625 C-32.85082031 72.08650391 -32.85082031 72.08650391 -31.7421875 72.62109375 C-24.62574517 76.06422938 -24.62574517 76.06422938 -16.9375 77.5625 C-16.25171875 77.61277344 -15.5659375 77.66304687 -14.859375 77.71484375 C-9.52269807 77.94174328 -4.58244452 77.3788917 0.0625 74.5625 C2.67332875 71.72330089 3.57807494 69.3298747 4.25 65.5625 C4.48783203 64.2940625 4.48783203 64.2940625 4.73046875 63 C5.15248099 60.31193541 5.15248099 60.31193541 5.0625 56.5625 C4.2375 57.34625 3.4125 58.13 2.5625 58.9375 C-2.63081257 63.23080056 -8.91386308 64.07905773 -15.5234375 63.86328125 C-25.26953105 62.64896215 -32.59226475 57.94561759 -38.9375 50.5625 C-40.6918612 47.65712934 -41.95163063 44.80532819 -42.9375 41.5625 C-43.12570312 40.96179688 -43.31390625 40.36109375 -43.5078125 39.7421875 C-45.37177903 30.28679365 -44.62536295 20.03773245 -39.9375 11.5625 C-30.87431275 -1.80256876 -14.95812277 -7.36102742 0 0 Z " fill="#03442C" transform="translate(712.9375,670.4375)"/>
<path d="M0 0 C3.68343563 1.78569598 6.64868033 4.14741871 9.3046875 7.24609375 C10.06652344 6.63121094 10.06652344 6.63121094 10.84375 6.00390625 C11.53210938 5.46507812 12.22046875 4.92625 12.9296875 4.37109375 C13.60257812 3.83742188 14.27546875 3.30375 14.96875 2.75390625 C22.56966094 -2.15236737 32.1429641 -1.72327395 40.8125 -0.359375 C46.46934705 1.35986283 50.13547973 5.38720227 53.3046875 10.24609375 C54.62197138 13.18947531 55.54026302 16.11783355 56.3046875 19.24609375 C56.47781967 19.85439026 56.65095184 20.46268677 56.82933044 21.0894165 C57.33992639 23.40597126 57.42487275 25.46014308 57.41821289 27.83105469 C57.41809959 29.18200226 57.41809959 29.18200226 57.41798401 30.5602417 C57.41282272 31.52391663 57.40766144 32.48759155 57.40234375 33.48046875 C57.4009288 34.47363098 57.39951385 35.46679321 57.39805603 36.49005127 C57.39246338 39.65876287 57.3799122 42.82740354 57.3671875 45.99609375 C57.36217155 48.14583231 57.35760881 50.29557198 57.35351562 52.4453125 C57.34249635 57.71226687 57.32523673 62.97916829 57.3046875 68.24609375 C51.3646875 68.24609375 45.4246875 68.24609375 39.3046875 68.24609375 C39.2749585 66.19515503 39.2749585 66.19515503 39.24462891 64.1027832 C39.16848794 59.02414711 39.07978327 53.94579435 38.98730469 48.86743164 C38.9490501 46.67054849 38.9141911 44.47360345 38.8828125 42.27661133 C38.8370859 39.11647443 38.77910332 35.95676225 38.71875 32.796875 C38.70719879 31.81648758 38.69564758 30.83610016 38.68374634 29.82600403 C38.60917977 23.28615642 38.60917977 23.28615642 36.3046875 17.24609375 C32.41502454 14.91229597 28.75871386 14.85538968 24.3046875 15.24609375 C20.97711103 16.461939 18.93713368 17.48729016 16.66479492 20.21362305 C14.6789497 24.64122733 14.82498637 28.77535595 14.79296875 33.578125 C14.77501755 34.56987228 14.75706635 35.56161957 14.73857117 36.5834198 C14.68451782 39.74176826 14.65058798 42.899966 14.6171875 46.05859375 C14.58401008 48.20379699 14.54952003 50.34898036 14.51367188 52.49414062 C14.42879396 57.74468285 14.36195868 62.99518076 14.3046875 68.24609375 C8.6946875 68.24609375 3.0846875 68.24609375 -2.6953125 68.24609375 C-2.70989502 67.05121338 -2.72447754 65.85633301 -2.73950195 64.62524414 C-2.79783016 60.1576669 -2.87505897 55.69057561 -2.95776367 51.22338867 C-2.9908515 49.29638606 -3.01893278 47.36929029 -3.04174805 45.44213867 C-3.07559287 42.65894166 -3.1279211 39.87658604 -3.18359375 37.09375 C-3.18998367 36.24337662 -3.1963736 35.39300323 -3.20295715 34.51686096 C-3.34134798 28.78263667 -4.15145628 23.44995866 -6.6953125 18.24609375 C-10.16180457 15.43988588 -12.92832988 15.02997981 -17.2578125 15.24609375 C-21.73405964 15.91790824 -23.8844473 17.64467271 -26.6953125 21.24609375 C-27.85957226 23.57461327 -27.84989242 25.00889559 -27.90063477 27.60400391 C-27.92057999 28.50478668 -27.94052521 29.40556946 -27.96107483 30.33364868 C-27.98614357 31.79464493 -27.98614357 31.79464493 -28.01171875 33.28515625 C-28.03249985 34.28114838 -28.05328094 35.2771405 -28.07469177 36.30331421 C-28.14020292 39.49250229 -28.19907954 42.68177433 -28.2578125 45.87109375 C-28.30099623 48.02995668 -28.34461047 50.18881105 -28.38867188 52.34765625 C-28.49588592 57.64704885 -28.59714898 62.94652609 -28.6953125 68.24609375 C-34.3053125 68.24609375 -39.9153125 68.24609375 -45.6953125 68.24609375 C-45.6953125 45.80609375 -45.6953125 23.36609375 -45.6953125 0.24609375 C-40.4153125 0.24609375 -35.1353125 0.24609375 -29.6953125 0.24609375 C-29.6953125 2.22609375 -29.6953125 4.20609375 -29.6953125 6.24609375 C-29.06882812 5.82457031 -28.44234375 5.40304687 -27.796875 4.96875 C-26.97960937 4.42089844 -26.16234375 3.87304688 -25.3203125 3.30859375 C-24.50820313 2.76332031 -23.69609375 2.21804688 -22.859375 1.65625 C-16.75308446 -2.32275882 -6.96310959 -1.94765239 0 0 Z " fill="#02452D" transform="translate(341.6953125,668.75390625)"/>
<path d="M0 0 C6.6 0 13.2 0 20 0 C20.59498291 1.68262939 21.18996582 3.36525879 21.80297852 5.09887695 C27.98863018 22.53656187 34.401999 39.87741085 40.9375 57.1875 C42.33874006 60.90071334 43.73884595 64.61435061 45.13710022 68.32868958 C45.99466623 70.60657373 46.853798 72.88386931 47.71482849 75.16044617 C48.10276077 76.19055313 48.49069305 77.2206601 48.89038086 78.28198242 C49.39473915 79.61757454 49.39473915 79.61757454 49.9092865 80.98014832 C51.34700817 84.96075937 52.66163129 88.98489388 54 93 C47.73 93 41.46 93 35 93 C32.69 86.73 30.38 80.46 28 74 C16.12 74 4.24 74 -8 74 C-11.96 83.9 -11.96 83.9 -16 94 C-21.94 94 -27.88 94 -34 94 C-33.31859451 89.91156704 -32.7653086 86.95757932 -31.36450195 83.22436523 C-31.02890259 82.32195099 -30.69330322 81.41953674 -30.34753418 80.48977661 C-29.79845398 79.03884109 -29.79845398 79.03884109 -29.23828125 77.55859375 C-28.8553894 76.53394012 -28.47249756 75.5092865 -28.07800293 74.45358276 C-26.82809235 71.11289152 -25.57041895 67.77518304 -24.3125 64.4375 C-23.45164586 62.14167807 -22.5912155 59.8456972 -21.73120117 57.54956055 C-19.16218983 50.69666426 -16.58251994 43.84781517 -14 37 C-13.61714844 35.9843396 -13.23429688 34.9686792 -12.83984375 33.92224121 C-8.57494692 22.60909554 -4.29507472 11.30172191 0 0 Z " fill="#02442C" transform="translate(614,643)"/>
<path d="M0 0 C8.49993719 6.17857503 14.88141963 13.5442724 17 24 C18.04288447 34.6298827 16.26806974 42.82697937 11.3125 52.1875 C4.43211403 60.55553699 -2.28326704 65.14113983 -13 67 C-23.17860972 67.81303795 -32.10446372 66.32639657 -40.12109375 59.71875 C-47.81122349 52.68411988 -52.28080192 45.93247637 -53.37890625 35.34765625 C-53.71940057 24.52872378 -51.69131748 15.282633 -44.7578125 6.78125 C-32.84706509 -5.28830738 -15.05632784 -7.70275981 0 0 Z " fill="#02432C" transform="translate(385,787)"/>
<path d="M0 0 C-8.29882142 14.58473723 -16.90159214 28.13314292 -28.484375 40.33203125 C-30.55147816 42.52431613 -32.50669493 44.7520949 -34.4375 47.0625 C-47.94794046 62.51208604 -65.3830447 74.70308417 -83 85 C-83.87543457 85.52303711 -83.87543457 85.52303711 -84.76855469 86.05664062 C-98.89046068 94.42577018 -119.36694171 105 -136 105 C-134.39798273 99.90538606 -131.30215876 96.14919981 -128.0625 92 C-127.47476807 91.24307861 -126.88703613 90.48615723 -126.28149414 89.70629883 C-124.53029867 87.46335686 -122.76744429 85.23015029 -121 83 C-120.32469238 82.14027588 -120.32469238 82.14027588 -119.63574219 81.26318359 C-107.91799515 66.45184035 -94.11266865 52.33989117 -79 41 C-77.80508022 40.06626673 -76.61114559 39.13127197 -75.41796875 38.1953125 C-65.73274085 30.67726463 -55.62061947 24.11644729 -45 18 C-44.35708008 17.62891113 -43.71416016 17.25782227 -43.05175781 16.87548828 C-7.17903102 -3.58951551 -7.17903102 -3.58951551 0 0 Z " fill="#F4C918" transform="translate(698,481)"/>
<path d="M0 0 C-0.58367389 6.30367803 -2.04071619 11.98660063 -4 18 C-4.64066406 17.59007812 -5.28132813 17.18015625 -5.94140625 16.7578125 C-14.5492328 11.3955599 -21.78873321 9.0004031 -32 10 C-35.38475046 11.18763174 -37.21859672 11.96996841 -39.375 14.8125 C-40.39135854 18.36975487 -40.54150735 21.53821074 -39.24609375 25.03515625 C-35.57801494 30.81899211 -26.55268872 32.51565473 -20.375 34.4375 C-11.54817284 37.22133704 -5.35521462 41.439697 0 49 C3.51035409 56.35502762 2.70487242 64.97989912 0.16796875 72.54296875 C-3.06598128 79.34616128 -8.30549674 84.29336218 -15.140625 87.34375 C-27.06410455 91.5520369 -42.67259082 90.08677055 -54 85 C-56.83557562 83.47647155 -59.36344843 81.86109523 -62 80 C-60.41078475 74.63904723 -58.81027062 69.29156027 -57 64 C-54.84707106 65.07148084 -52.70099355 66.15381582 -50.5625 67.25390625 C-49.716875 67.68574219 -48.87125 68.11757813 -48 68.5625 C-47.154375 68.99691406 -46.30875 69.43132812 -45.4375 69.87890625 C-38.4196853 73.10665115 -29.67107633 73.208751 -22.375 70.75 C-19.0713263 69.30425123 -19.0713263 69.30425123 -17.5 67.25 C-16.76564329 63.9453948 -16.58488338 61.3802353 -17 58 C-22.5893976 50.48924697 -32.12130718 48.14932414 -40.6328125 45.34375 C-45.6757998 43.33123534 -49.77940771 40.69522145 -53.25 36.5 C-53.72953125 35.9328125 -54.2090625 35.365625 -54.703125 34.78125 C-59.49741075 28.1963274 -58.9174967 19.84373482 -58 12 C-55.96889226 5.05644564 -50.89509321 -0.00479871 -45 -4 C-30.26933997 -11.27175958 -13.51557602 -8.8008402 0 0 Z " fill="#03432C" transform="translate(283,649)"/>
<path d="M0 0 C8.04102591 4.66614277 11.68149131 10.61756893 15.140625 19.2421875 C16.140625 24.2421875 16.140625 24.2421875 16.140625 38.2421875 C0.630625 38.2421875 -14.879375 38.2421875 -30.859375 38.2421875 C-28.72090467 46.21512387 -28.72090467 46.21512387 -23.859375 51.2421875 C-15.45421475 54.04390758 -5.65785051 52.95980816 2.1875 49.1171875 C4.140625 48.2421875 4.140625 48.2421875 7.140625 48.2421875 C8.96484375 49.9921875 8.96484375 49.9921875 10.828125 52.2421875 C11.45074219 52.9846875 12.07335937 53.7271875 12.71484375 54.4921875 C13.18535156 55.0696875 13.65585937 55.6471875 14.140625 56.2421875 C12.0448838 61.15310345 8.82041443 62.94441855 4.140625 65.2421875 C-6.14656355 69.32466233 -18.05249794 69.99696656 -28.55078125 66.2734375 C-38.08478803 62.01459183 -43.71760495 55.85640099 -47.734375 46.2421875 C-50.49066828 36.8344799 -50.22150479 24.75857091 -46.30859375 15.73828125 C-36.91179885 -0.44649488 -17.52877133 -8.41613193 0 0 Z " fill="#04442C" transform="translate(611.859375,785.7578125)"/>
<path d="M0 0 C-0.47770523 1.93786085 -0.95721571 3.87527674 -1.4375 5.8125 C-1.70433594 6.89144531 -1.97117187 7.97039063 -2.24609375 9.08203125 C-2.76077412 11.0740843 -3.34937175 13.04811524 -4 15 C-8.74209108 14.25481426 -12.31002229 12.40836302 -16.5 10.15625 C-23.85318492 6.75540197 -32.12937546 7.11948691 -39.6875 9.625 C-48.07574621 13.0323553 -52.17721978 17.40788119 -56.0546875 25.53515625 C-59.54151673 34.62684734 -59.3068939 46.65972164 -56.03125 55.7890625 C-52.49357591 63.37362135 -47.69637309 67.73953649 -40 71 C-30.28176394 74.15240302 -19.30490715 72.16186389 -10.3828125 67.6875 C-8.22349327 66.50357419 -6.10102443 65.28395937 -4 64 C-3.13153169 65.74294678 -2.28069373 67.49468663 -1.4375 69.25 C-0.96183594 70.22453125 -0.48617187 71.1990625 0.00390625 72.203125 C1 75 1 75 0.95703125 77.13671875 C-1.92983254 82.7572658 -10.30578202 86.06321973 -16.0625 87.9375 C-30.14721313 91.16146867 -45.50270285 89.94357872 -57.875 82.1875 C-59.27245367 81.15471034 -60.64908766 80.09296254 -62 79 C-62.92039062 78.28263672 -62.92039062 78.28263672 -63.859375 77.55078125 C-73.37689843 69.19136355 -77.39321533 56.34328917 -78.28125 44.1328125 C-78.95177755 29.82493786 -75.64009682 17.02561681 -66 6 C-48.3634605 -13.26186765 -21.13540857 -13.32568396 0 0 Z " fill="#02432B" transform="translate(325,765)"/>
<path d="M0 0 C6.55235222 4.10508814 9.41023684 9.5472487 11.537323 16.8429718 C12.0380548 19.17741376 12.12703645 21.27408178 12.12939453 23.66088867 C12.13254669 24.57831345 12.13569885 25.49573822 12.13894653 26.44096375 C12.1369223 27.4233754 12.13489807 28.40578705 12.1328125 29.41796875 C12.13376923 30.43095535 12.13472595 31.44394196 12.13571167 32.48762512 C12.13639145 34.62513288 12.13455124 36.76264271 12.13037109 38.90014648 C12.12500338 42.18543073 12.13033146 45.47057929 12.13671875 48.75585938 C12.13605826 50.83072947 12.1347777 52.90559948 12.1328125 54.98046875 C12.13483673 55.96895309 12.13686096 56.95743744 12.13894653 57.97587585 C12.13421829 59.33782829 12.13421829 59.33782829 12.12939453 60.72729492 C12.12859894 61.53019455 12.12780334 62.33309418 12.12698364 63.1603241 C12 65 12 65 11 66 C8.30345146 66.07319621 5.63308542 66.09242537 2.9375 66.0625 C2.17888672 66.05798828 1.42027344 66.05347656 0.63867188 66.04882812 C-1.24091871 66.0370068 -3.12046899 66.01907078 -5 66 C-5 64.35 -5 62.7 -5 61 C-5.69222656 61.433125 -6.38445312 61.86625 -7.09765625 62.3125 C-15.94407387 67.34761517 -24.25954881 68.73765231 -34.296875 66.484375 C-39.50251566 64.50346749 -43.67413583 60.85620984 -46.875 56.375 C-49.12819917 49.6154025 -48.91097077 42.27728835 -46.0390625 35.71484375 C-42.84608149 30.44522472 -37.6172762 27.97097411 -32 26 C-26.31997266 24.94840804 -20.81239901 24.88065689 -15.0625 24.9375 C-14.18787109 24.94201172 -13.31324219 24.94652344 -12.41210938 24.95117188 C-10.27470953 24.96285166 -8.13734537 24.98078311 -6 25 C-6.30035156 23.73027344 -6.60070312 22.46054687 -6.91015625 21.15234375 C-7.079104 20.43812256 -7.24805176 19.72390137 -7.42211914 18.98803711 C-8.15204842 16.47692004 -9.15273904 14.84726096 -11 13 C-15.94826938 11.35057687 -20.84817449 11.27682449 -26 12 C-28.61494065 13.41105168 -30.7233153 14.93929072 -32.96484375 16.8828125 C-35 18 -35 18 -37.578125 17.3125 C-40.33552023 15.81816968 -42.62224208 14.03807822 -45 12 C-43.39545063 5.93836905 -39.080166 3.13900416 -34.171875 -0.26953125 C-25.084938 -5.33174222 -9.05277504 -5.12861075 0 0 Z " fill="#02442C" transform="translate(458,671)"/>
<path d="M0 0 C0.66 0 1.32 0 2 0 C3.32401922 1.53913447 4.58269257 3.13459432 5.8125 4.75 C23.41996868 26.69594897 48.59248799 41.77718035 73 55 C86.50534286 62.36814929 98.70297842 73.15609166 104.57421875 87.76953125 C105.42163427 92.20874465 103.58537453 95.9068512 102 100 C101.25626865 102.37047943 100.52733785 104.74564801 99.8125 107.125 C99.20868482 109.08344174 98.60464367 111.04181389 98 113 C92.93276869 111.31428759 88.76875663 108.39488899 84.375 105.4375 C83.57175293 104.89810791 82.76850586 104.35871582 81.94091797 103.80297852 C71.13788237 96.46791962 61.46477542 87.97238826 52 79 C51.49823242 78.52691406 50.99646484 78.05382812 50.47949219 77.56640625 C27.96700361 56.19763896 11.04277849 28.88673843 0 0 Z " fill="#F5F5F1" transform="translate(311,452)"/>
<path d="M0 0 C6.52026029 4.01246787 9.54144668 8.03502492 11.9296875 15.1875 C12.69602991 18.50968725 13.05259665 21.57147789 13.04321289 24.9777832 C13.04313736 25.89836014 13.04306183 26.81893707 13.04298401 27.76741028 C13.03782272 28.7477977 13.03266144 29.72818512 13.02734375 30.73828125 C13.0259288 31.75222458 13.02451385 32.76616791 13.02305603 33.81083679 C13.01747078 37.04058821 13.00492095 40.27026962 12.9921875 43.5 C12.9871706 45.69335837 12.98260802 47.88671783 12.97851562 50.08007812 C12.96750617 55.44924561 12.95025164 60.81836095 12.9296875 66.1875 C6.9896875 66.1875 1.0496875 66.1875 -5.0703125 66.1875 C-5.0796582 64.82020752 -5.08900391 63.45291504 -5.09863281 62.04418945 C-5.13854153 56.965409 -5.2043035 51.88723374 -5.27783203 46.80883789 C-5.3060364 44.61197694 -5.32725357 42.41501461 -5.34130859 40.21801758 C-5.36274499 37.0575777 -5.4094003 33.89835604 -5.4609375 30.73828125 C-5.46216614 29.75789383 -5.46339478 28.77750641 -5.46466064 27.76741028 C-5.55831131 23.39526827 -5.63624097 20.88009135 -7.99902344 17.11010742 C-11.8449164 13.54028103 -14.6696433 12.71490092 -20.04296875 12.875 C-23.49687956 13.40739473 -25.48875745 14.90612577 -28.0703125 17.1875 C-31.48183286 22.45063945 -31.53940638 27.11204183 -31.58203125 33.1796875 C-31.59998245 34.12562775 -31.61793365 35.07156799 -31.63642883 36.0461731 C-31.69037887 39.05157079 -31.72437854 42.05681104 -31.7578125 45.0625 C-31.79099907 47.10679267 -31.82548997 49.1510646 -31.86132812 51.1953125 C-31.94609665 56.19259448 -32.01298089 61.18983099 -32.0703125 66.1875 C-37.6803125 66.1875 -43.2903125 66.1875 -49.0703125 66.1875 C-49.0703125 43.7475 -49.0703125 21.3075 -49.0703125 -1.8125 C-43.4603125 -1.8125 -37.8503125 -1.8125 -32.0703125 -1.8125 C-31.7403125 -0.1625 -31.4103125 1.4875 -31.0703125 3.1875 C-30.3690625 2.56875 -29.6678125 1.95 -28.9453125 1.3125 C-20.7128436 -4.77236832 -8.90279721 -4.69598095 0 0 Z " fill="#03442D" transform="translate(463.0703125,785.8125)"/>
<path d="M0 0 C6.18978061 4.08759097 8.7213126 9.16393779 11 16 C11.08738898 17.6415845 11.11766621 19.28651622 11.11352539 20.93041992 C11.11344986 21.93123093 11.11337433 22.93204193 11.11329651 23.96318054 C11.10813522 25.04138565 11.10297394 26.11959076 11.09765625 27.23046875 C11.0962413 28.33602615 11.09482635 29.44158356 11.09336853 30.5806427 C11.08776514 34.11628917 11.07521204 37.65187262 11.0625 41.1875 C11.05748544 43.58268138 11.05292246 45.97786375 11.04882812 48.37304688 C11.0377946 54.24872225 11.02052767 60.12435043 11 66 C5.39 66 -0.22 66 -6 66 C-6.0093457 64.63270752 -6.01869141 63.26541504 -6.02832031 61.85668945 C-6.06822903 56.777909 -6.133991 51.69973374 -6.20751953 46.62133789 C-6.2357239 44.42447694 -6.25694107 42.22751461 -6.27099609 40.03051758 C-6.29243249 36.8700777 -6.3390878 33.71085604 -6.390625 30.55078125 C-6.39185364 29.57039383 -6.39308228 28.59000641 -6.39434814 27.57991028 C-6.48748794 23.23161865 -6.57642624 20.68838928 -8.89355469 16.92260742 C-12.28498582 13.82716002 -14.90321321 13.11964947 -19.4375 12.625 C-23.77324712 13.08139443 -25.71260746 14.16088826 -29 17 C-32.4160866 22.25763038 -32.46911505 26.92755537 -32.51171875 32.9921875 C-32.52966995 33.93812775 -32.54762115 34.88406799 -32.56611633 35.8586731 C-32.62006637 38.86407079 -32.65406604 41.86931104 -32.6875 44.875 C-32.72068657 46.91929267 -32.75517747 48.9635646 -32.79101562 51.0078125 C-32.87578415 56.00509448 -32.94266839 61.00233099 -33 66 C-38.61 66 -44.22 66 -50 66 C-50 43.56 -50 21.12 -50 -2 C-44.39 -2 -38.78 -2 -33 -2 C-32.67 -0.35 -32.34 1.3 -32 3 C-31.29875 2.38125 -30.5975 1.7625 -29.875 1.125 C-21.37596273 -5.15689711 -9.27014801 -4.57056999 0 0 Z " fill="#01422B" transform="translate(540,786)"/>
<path d="M0 0 C2.45736397 1.95645373 4.86808878 3.95604455 7.26953125 5.98046875 C8.18992187 6.61726563 9.1103125 7.2540625 10.05859375 7.91015625 C12.26953125 9.98046875 12.26953125 9.98046875 12.92578125 12.3984375 C11.98260873 16.10937224 9.609565 17.9379039 6.76953125 20.29296875 C6.24488281 20.74736328 5.72023438 21.20175781 5.1796875 21.66992188 C3.88718972 22.78616995 2.57974983 23.88507497 1.26953125 24.98046875 C-1.97832556 23.53210017 -4.31573003 21.69410308 -6.98046875 19.35546875 C-25.33628364 4.53065496 -46.71193071 1.18717317 -69.73046875 2.98046875 C-74.37488024 3.60374918 -78.47822931 5.017003 -82.73046875 6.98046875 C-83.8596875 7.47804687 -84.98890625 7.975625 -86.15234375 8.48828125 C-93.73753964 12.04901731 -100.26035545 16.27198339 -106.890625 21.35546875 C-109.73046875 22.98046875 -109.73046875 22.98046875 -112.3359375 22.96875 C-115.19678681 21.78800795 -116.82600398 20.38410713 -118.98046875 18.16796875 C-119.66625 17.48089844 -120.35203125 16.79382813 -121.05859375 16.0859375 C-122.73830977 13.9705942 -123.3273621 12.61844606 -123.73046875 9.98046875 C-91.27532017 -21.36596358 -37.04782923 -27.40161332 0 0 Z " fill="#02422B" transform="translate(622.73046875,232.01953125)"/>
<path d="M0 0 C5.39173809 3.74663987 5.39173809 3.74663987 6.58984375 8.5390625 C3.28984375 11.1790625 -0.01015625 13.8190625 -3.41015625 16.5390625 C-7.41015625 14.5390625 -7.41015625 14.5390625 -9.19921875 13.46875 C-14.57213096 10.38218341 -19.27079375 9.57430554 -25.41015625 10.5390625 C-31.78402548 12.58702392 -35.41022756 15.93919087 -38.66015625 21.7890625 C-40.78813944 29.59166753 -39.3150788 36.52536666 -35.41015625 43.5390625 C-31.37928344 47.56993531 -27.39088554 49.8241864 -21.66015625 49.8515625 C-13.86150379 49.67928005 -9.4880069 47.40134302 -3.41015625 42.5390625 C-0.11015625 45.5090625 3.18984375 48.4790625 6.58984375 51.5390625 C3.57054916 57.57765167 -1.3338447 60.92686125 -7.59765625 63.3515625 C-18.55205733 66.76358907 -29.68561541 66.67518419 -40.03515625 61.3515625 C-48.65752907 56.20522479 -53.39339536 49.67671388 -56.4921875 40.24609375 C-59.24103613 29.14542418 -57.87297762 19.09465977 -52.125 9.36328125 C-47.60911475 2.68379639 -40.63361665 -2.42047079 -32.9609375 -4.98828125 C-21.4353763 -7.12395185 -10.10352501 -6.12434093 0 0 Z " fill="#02432B" transform="translate(694.41015625,788.4609375)"/>
<path d="M0 0 C5.61 0 11.22 0 17 0 C17 5.94 17 11.88 17 18 C22.61 18 28.22 18 34 18 C34 22.62 34 27.24 34 32 C28.39 32 22.78 32 17 32 C17.09691004 37.07247575 17.19962164 42.14412917 17.31738281 47.21606445 C17.35567345 48.94157708 17.39052621 50.66716956 17.421875 52.39282227 C17.46752404 54.87284895 17.52551781 57.35232591 17.5859375 59.83203125 C17.60326431 60.98998955 17.60326431 60.98998955 17.62094116 62.17134094 C17.72521273 65.95246674 17.8534589 67.78018835 20 71 C23.31517055 71.51120761 23.31517055 71.51120761 27.0625 71.5625 C29.3782945 71.64008499 31.69437667 71.76972915 34 72 C35.26237731 74.52475462 35.09856404 76.31200466 35.0625 79.125 C35.05347656 80.03507813 35.04445313 80.94515625 35.03515625 81.8828125 C35.02355469 82.58148437 35.01195312 83.28015625 35 84 C26.5980854 87.40947259 19.29281991 88.44360675 10.625 85.3125 C5.56697179 83.05303599 3.05813269 80.57058025 0.93212891 75.40576172 C-0.2277308 71.16792963 -0.35261209 67.25629232 -0.4140625 62.8828125 C-0.43342865 62.02565643 -0.4527948 61.16850037 -0.4727478 60.28536987 C-0.53221256 57.56534572 -0.57879569 54.84527848 -0.625 52.125 C-0.6632103 50.27341972 -0.70226378 48.42185663 -0.7421875 46.5703125 C-0.83788664 42.04701575 -0.92203906 37.52363584 -1 33 C-4.63 32.67 -8.26 32.34 -12 32 C-12.02685412 29.68756208 -12.04632841 27.3750373 -12.0625 25.0625 C-12.07410156 23.77472656 -12.08570313 22.48695313 -12.09765625 21.16015625 C-12 18 -12 18 -11 17 C-7.3308423 16.85689713 -3.67284559 16.95778338 0 17 C0 11.39 0 5.78 0 0 Z " fill="#03472F" transform="translate(721,767)"/>
<path d="M0 0 C5.61 0 11.22 0 17 0 C17 6.27 17 12.54 17 19 C22.61 19 28.22 19 34 19 C34 23.62 34 28.24 34 33 C28.39 33 22.78 33 17 33 C17.07412174 37.75145924 17.15705269 42.50107697 17.26245117 47.25170898 C17.2956311 48.86651963 17.32368458 50.48144431 17.34643555 52.09643555 C17.38011025 54.42285592 17.43242963 56.74823783 17.48828125 59.07421875 C17.49467117 59.79212082 17.5010611 60.51002289 17.50764465 61.24967957 C17.63479181 65.61974455 18.21425881 68.57296949 21 72 C24.14921291 72.74721775 24.14921291 72.74721775 27.625 72.6875 C29.75208388 72.73210772 31.87991884 72.82186646 34 73 C35.26237731 75.52475462 35.09856404 77.31200466 35.0625 80.125 C35.05347656 81.03507813 35.04445313 81.94515625 35.03515625 82.8828125 C35.02355469 83.58148437 35.01195312 84.28015625 35 85 C30.28683636 86.84844386 26.01278456 87.33605632 21 87.3125 C19.97132813 87.33666992 19.97132813 87.33666992 18.921875 87.36132812 C14.19096637 87.36584235 11.01174885 86.48094994 7 84 C1.90174268 78.90174268 -0.0408856 73.87703347 -0.22705078 66.71704102 C-0.22673861 65.1459605 -0.21570835 63.5748544 -0.1953125 62.00390625 C-0.1924826 61.17036118 -0.18965271 60.3368161 -0.18673706 59.47801208 C-0.17562289 56.8393564 -0.15053515 54.20105152 -0.125 51.5625 C-0.11495885 49.76367681 -0.10583499 47.96484825 -0.09765625 46.16601562 C-0.07571235 41.77721045 -0.04124387 37.38866452 0 33 C-3.63 33 -7.26 33 -11 33 C-11 28.05 -11 23.1 -11 18 C-7.37 18 -3.74 18 0 18 C0 12.06 0 6.12 0 0 Z " fill="#03442C" transform="translate(541,651)"/>
<path d="M0 0 C0 5.28 0 10.56 0 16 C-2.784375 16.3403125 -2.784375 16.3403125 -5.625 16.6875 C-11.31234974 17.63315603 -14.14411601 18.73823349 -18 23 C-19.68076909 25.83047714 -20.25813864 27.93948678 -20.31884766 31.21777344 C-20.33871735 32.03832214 -20.35858704 32.85887085 -20.37905884 33.70428467 C-20.39638565 35.01855438 -20.39638565 35.01855438 -20.4140625 36.359375 C-20.43342865 37.26375305 -20.4527948 38.1681311 -20.4727478 39.09991455 C-20.53243831 41.98318099 -20.57888686 44.86648758 -20.625 47.75 C-20.66318947 49.70704848 -20.70224177 51.66408033 -20.7421875 53.62109375 C-20.83975251 58.41397504 -20.91940441 63.20668312 -21 68 C-26.94 68 -32.88 68 -39 68 C-39 45.89 -39 23.78 -39 1 C-33.39 1 -27.78 1 -22 1 C-21.67 2.98 -21.34 4.96 -21 7 C-20.2575 6.21625 -19.515 5.4325 -18.75 4.625 C-12.82063904 -1.03484455 -7.97485771 -0.17336647 0 0 Z " fill="#03442C" transform="translate(523,668)"/>
<path d="M0 0 C0 5.28 0 10.56 0 16 C-1.485 16.061875 -2.97 16.12375 -4.5 16.1875 C-9.79503588 16.73578031 -14.22455406 18.11120349 -18 22 C-20.8705359 27.53221648 -21.4633878 32.03575597 -21.51171875 38.21484375 C-21.52966995 39.07058487 -21.54762115 39.92632599 -21.56611633 40.80799866 C-21.61992031 43.51778361 -21.65401813 46.2273955 -21.6875 48.9375 C-21.72069956 50.78452914 -21.75519164 52.63153552 -21.79101562 54.47851562 C-21.87804249 58.98569786 -21.9383646 63.49211433 -22 68 C-27.61 68 -33.22 68 -39 68 C-39 45.89 -39 23.78 -39 1 C-33.39 1 -27.78 1 -22 1 C-21.67 2.65 -21.34 4.3 -21 6 C-20.071875 5.195625 -19.14375 4.39125 -18.1875 3.5625 C-12.73591021 -1.16221115 -6.9043835 -0.07424068 0 0 Z " fill="#01422A" transform="translate(789,668)"/>
<path d="M0 0 C1.36125 1.2684375 1.36125 1.2684375 2.75 2.5625 C2.27596629 7.06582029 0.85015873 8.95341822 -2.5 11.9375 C-3.65242187 13.00097656 -3.65242187 13.00097656 -4.828125 14.0859375 C-7.25 15.5625 -7.25 15.5625 -9.78515625 15.49609375 C-12.54392766 14.45117082 -14.22321379 13.19009692 -16.4375 11.25 C-26.05759792 3.42865161 -37.11231327 1.57648655 -49.25 2.5625 C-57.49449423 4.45592059 -65.24853984 8.56103984 -71.25 14.5625 C-75.12545156 14.30579274 -77.24556105 12.05190667 -80 9.5 C-80.79921875 8.76652344 -81.5984375 8.03304688 -82.421875 7.27734375 C-83.02515625 6.71144531 -83.6284375 6.14554687 -84.25 5.5625 C-83.52093172 1.64061545 -81.91469985 -0.19356954 -78.796875 -2.71875 C-54.39656989 -19.18521357 -23.07007389 -19.51728251 0 0 Z " fill="#03412A" transform="translate(608.25,265.4375)"/>
<path d="M0 0 C6.31676973 3.49983188 10.66545628 7.9395647 12.765625 14.94921875 C13.97997525 21.02096999 13.48218343 25.67862102 10.5 31.05078125 C7.08153586 35.88860769 2.78734505 39.11134388 -2.8359375 40.94140625 C-10.1704729 41.8114339 -16.83276678 41.54071745 -22.8359375 36.94140625 C-28.06528082 31.90658992 -29.98683429 28.10621545 -30.2109375 20.75390625 C-30.13639184 13.29934066 -28.24651638 9.34452216 -23.05078125 4.16015625 C-16.47647002 -1.75811968 -8.46233394 -3.15880509 0 0 Z " fill="#01422B" transform="translate(575.8359375,288.05859375)"/>
<path d="M0 0 C5.61 0 11.22 0 17 0 C17 22.77 17 45.54 17 69 C11.06 69 5.12 69 -1 69 C-1.02255318 60.15117276 -1.04091634 51.30236448 -1.05181217 42.45351505 C-1.05704046 38.34505715 -1.06413713 34.23661986 -1.07543945 30.12817383 C-1.08627025 26.16653172 -1.09227724 22.20490948 -1.09487724 18.24325371 C-1.09673114 16.72851689 -1.1003511 15.21378121 -1.10573006 13.69905281 C-1.11294307 11.58458187 -1.11399083 9.47019406 -1.11352539 7.35571289 C-1.115746 6.14992081 -1.11796661 4.94412872 -1.12025452 3.70179749 C-1 1 -1 1 0 0 Z " fill="#00452D" transform="translate(798,668)"/>
<path d="M0 0 C4.01399961 2.29494196 6.12050861 5.60203846 8.13671875 9.73046875 C9.81233769 17.80390548 9.56495037 24.59673777 5.4296875 31.87109375 C2.20846413 36.22875846 -1.3142151 38.54511006 -6.66796875 39.4765625 C-12.66456968 39.77730388 -16.37215603 38.59765141 -21.17578125 35.04296875 C-26.00607842 30.21267158 -27.24057842 24.83732962 -27.55078125 18.16796875 C-27.40049396 11.59540466 -25.40366783 6.21515816 -20.67578125 1.60546875 C-19.43828125 0.83203125 -19.43828125 0.83203125 -18.17578125 0.04296875 C-17.57765625 -0.36953125 -16.97953125 -0.78203125 -16.36328125 -1.20703125 C-10.81172796 -3.11042095 -5.29182143 -2.21445573 0 0 Z " fill="#F5F5F0" transform="translate(376.17578125,799.95703125)"/>
<path d="M0 0 C5.31154321 1.80840479 8.35703472 5.12067948 11 10 C12.97359299 16.13129556 12.86029663 23.37131586 10.875 29.4375 C7.93584347 33.45434726 4.81397832 36.39534056 0 38 C-4.66694522 38.54225459 -8.07771048 38.4698456 -12.3125 36.3125 C-15.91425097 33.21331893 -18.48595612 30.54213163 -20 26 C-20.14648082 23.73236426 -20.2209626 21.45967634 -20.25 19.1875 C-20.28867187 17.38345703 -20.28867187 17.38345703 -20.328125 15.54296875 C-19.90679725 10.99363223 -18.60050615 7.71453712 -15.46484375 4.35546875 C-10.04251563 0.20898254 -6.77681346 -0.78877665 0 0 Z " fill="#F5F5F1" transform="translate(707,682)"/>
<path d="M0 0 C0.66 0 1.32 0 2 0 C3.23008904 3.78515641 4.45672226 7.57141494 5.68041992 11.35864258 C6.29757133 13.26635318 6.91730851 15.17322666 7.53710938 17.08007812 C7.93349609 18.30791016 8.32988281 19.53574219 8.73828125 20.80078125 C9.28029175 22.47394409 9.28029175 22.47394409 9.83325195 24.1809082 C11.33246633 29.08825504 12.64987958 34.04955844 14 39 C5.42 39 -3.16 39 -12 39 C-10.72108908 33.24490084 -9.47858184 28.07118467 -7.6171875 22.55859375 C-7.39805695 21.90544693 -7.17892639 21.25230011 -6.95315552 20.57936096 C-6.26471919 18.53060137 -5.56999725 16.48404199 -4.875 14.4375 C-4.40192249 13.03334498 -3.92926287 11.6290491 -3.45703125 10.22460938 C-2.30949994 6.81476903 -1.15632848 3.40686863 0 0 Z " fill="#F3F4F0" transform="translate(623,662)"/>
<path d="M0 0 C3.0262924 2.0409879 4.77512461 3.6960364 6.6875 6.8125 C7.0175 9.1225 7.3475 11.4325 7.6875 13.8125 C-2.5425 13.8125 -12.7725 13.8125 -23.3125 13.8125 C-22.1286435 5.52550448 -22.1286435 5.52550448 -18.3125 1.8125 C-12.46467304 -2.1313833 -6.51568756 -2.33581252 0 0 Z " fill="#F6F6F2" transform="translate(604.3125,798.1875)"/>
<path d="M0 0 C5.61 0 11.22 0 17 0 C17 22.77 17 45.54 17 69 C11.06 69 5.12 69 -1 69 C-1.02255318 60.15117276 -1.04091634 51.30236448 -1.05181217 42.45351505 C-1.05704046 38.34505715 -1.06413713 34.23661986 -1.07543945 30.12817383 C-1.08627025 26.16653172 -1.09227724 22.20490948 -1.09487724 18.24325371 C-1.09673114 16.72851689 -1.1003511 15.21378121 -1.10573006 13.69905281 C-1.11294307 11.58458187 -1.11399083 9.47019406 -1.11352539 7.35571289 C-1.115746 6.14992081 -1.11796661 4.94412872 -1.12025452 3.70179749 C-1 1 -1 1 0 0 Z M0 1 C-0.04635629 9.01469833 -0.08188589 17.02934057 -0.10362434 25.04413986 C-0.11405811 28.7658029 -0.12820982 32.48737416 -0.15087891 36.20898438 C-0.1726219 39.80106762 -0.18457169 43.39306263 -0.18975449 46.9852066 C-0.19344764 48.35512938 -0.20065945 49.72504738 -0.21146011 51.09493256 C-0.22599349 53.01473779 -0.22681708 54.93463196 -0.22705078 56.85449219 C-0.231492 57.94703308 -0.23593323 59.03957397 -0.24050903 60.16522217 C-0.14903963 63.31858585 -0.14903963 63.31858585 2 67 C7.94 66.505 7.94 66.505 14 66 C14 45.21 14 24.42 14 3 C10.13209997 1.06604999 8.8499541 0.76710647 4.75 0.875 C3.41195312 0.90207031 3.41195312 0.90207031 2.046875 0.9296875 C1.37140625 0.95289063 0.6959375 0.97609375 0 1 Z " fill="#295F49" transform="translate(798,668)"/>
<path d="M0 0 C0.70189453 0.00451172 1.40378906 0.00902344 2.12695312 0.01367188 C3.85550538 0.02543073 5.58401365 0.04336546 7.3125 0.0625 C7.77943504 4.73185037 8.16399069 8.6727711 5.125 12.5 C0.36489927 16.83698066 -3.27086233 17.28491499 -9.50390625 17.328125 C-12.00118349 17.02434172 -13.56602681 16.40804325 -15.6875 15.0625 C-17.6875 12.0625 -17.6875 12.0625 -17.6875 8.625 C-16.6875 5.0625 -16.6875 5.0625 -13.8125 2.6875 C-9.03264089 0.20197326 -5.2723911 -0.06399728 0 0 Z " fill="#F3F4F0" transform="translate(444.6875,707.9375)"/>
<path d="M0 0 C3.0625 1.375 3.0625 1.375 5 4 C5.84663781 8.55067823 5.85022053 12.4843895 3.5625 16.5625 C-0.20445611 18.6756705 -3.68987225 19.33556358 -8 19 C-13.39759036 16.20481928 -13.39759036 16.20481928 -15 13 C-15.58394161 5.75912409 -15.58394161 5.75912409 -13.125 2.5625 C-8.87980053 -0.5589702 -5.1471014 -0.59457896 0 0 Z " fill="#04412A" transform="translate(811,642)"/>
<path d="M0 0 C5.61 0 11.22 0 17 0 C17 5.94 17 11.88 17 18 C22.61 18 28.22 18 34 18 C34 22.62 34 27.24 34 32 C28.39 32 22.78 32 17 32 C17.096999 37.05415853 17.199767 42.10750904 17.31738281 47.16113281 C17.35563327 48.87981011 17.39049303 50.59856638 17.421875 52.31738281 C17.46761128 54.7900004 17.52559084 57.26207613 17.5859375 59.734375 C17.59748871 60.50118591 17.60903992 61.26799683 17.62094116 62.05804443 C17.72502269 65.83188352 17.89444046 68.79363916 20 72 C18.515 71.505 18.515 71.505 17 71 C14.95132555 66.47202442 14.75392896 62.40735795 14.76953125 57.484375 C14.77021858 56.43881439 14.77021858 56.43881439 14.7709198 55.37213135 C14.77392308 53.90985393 14.78175115 52.44757916 14.79418945 50.98535156 C14.8125596 48.74272409 14.81469807 46.50050773 14.81445312 44.2578125 C14.85225263 33.29549474 14.85225263 33.29549474 16 31 C21.61 31 27.22 31 33 31 C33 27.04 33 23.08 33 19 C27.39 19 21.78 19 16 19 C14.46733418 15.93466836 14.89723529 12.73245728 14.9375 9.375 C14.94201172 8.66859375 14.94652344 7.9621875 14.95117188 7.234375 C14.96296125 5.48954725 14.98089676 3.744763 15 2 C10.38 2 5.76 2 1 2 C1 6.95 1 11.9 1 17 C0.67 17 0.34 17 0 17 C0 11.39 0 5.78 0 0 Z " fill="#012C15" transform="translate(721,767)"/>
<path d="M0 0 C0.66 0.33 1.32 0.66 2 1 C1.35256836 1.7748877 0.70513672 2.54977539 0.03808594 3.34814453 C-2.8868667 7.76362053 -2.60274071 12.28185541 -2.609375 17.4296875 C-2.62591125 18.42001984 -2.64244751 19.41035217 -2.65948486 20.43069458 C-2.70788329 23.57886 -2.72931811 26.72654261 -2.75 29.875 C-2.77816644 32.01564918 -2.8080948 34.15627595 -2.83984375 36.296875 C-2.9136404 41.53121025 -2.96326511 46.76527876 -3 52 C-8.61 52 -14.22 52 -20 52 C-20 37.81 -20 23.62 -20 9 C-19.67 9 -19.34 9 -19 9 C-19 22.53 -19 36.06 -19 50 C-14.38 50 -9.76 50 -5 50 C-5.01571045 48.83017578 -5.0314209 47.66035156 -5.04760742 46.45507812 C-5.10218711 42.08665945 -5.13645153 37.71827053 -5.16479492 33.34960938 C-5.17981793 31.46414103 -5.20024231 29.57870725 -5.22631836 27.69335938 C-5.26298863 24.9725691 -5.27979146 22.25224359 -5.29296875 19.53125 C-5.30845261 18.69758911 -5.32393646 17.86392822 -5.33988953 17.00500488 C-5.34149398 11.33879792 -4.35486274 7.17275425 -2 2 C-1.34 1.34 -0.68 0.68 0 0 Z " fill="#052B16" transform="translate(359,685)"/>
<path d="M0 0 C0.33 0 0.66 0 1 0 C2.16991744 8.97865207 2.15246192 17.89711742 2.13037109 26.93481445 C2.12494898 29.58745878 2.13037447 32.23993853 2.13671875 34.89257812 C2.13605903 36.57552121 2.13478009 38.25846419 2.1328125 39.94140625 C2.13483673 40.73607803 2.13686096 41.53074982 2.13894653 42.34950256 C2.11499275 47.88500725 2.11499275 47.88500725 1 49 C-0.40348735 49.09860131 -1.81180477 49.13078937 -3.21875 49.1328125 C-4.49298828 49.13474609 -4.49298828 49.13474609 -5.79296875 49.13671875 C-7.13294922 49.13091797 -7.13294922 49.13091797 -8.5 49.125 C-9.39332031 49.12886719 -10.28664063 49.13273438 -11.20703125 49.13671875 C-12.05652344 49.13542969 -12.90601563 49.13414062 -13.78125 49.1328125 C-14.56564453 49.13168457 -15.35003906 49.13055664 -16.15820312 49.12939453 C-18 49 -18 49 -19 48 C-19.0927833 46.61839885 -19.11747043 45.23211962 -19.11352539 43.84741211 C-19.11341209 42.52615578 -19.11341209 42.52615578 -19.11329651 41.1782074 C-19.10555458 39.74227989 -19.10555458 39.74227989 -19.09765625 38.27734375 C-19.0962413 37.30213272 -19.09482635 36.32692169 -19.09336853 35.32215881 C-19.08775133 32.19390857 -19.07519593 29.06572877 -19.0625 25.9375 C-19.05748722 23.82226666 -19.05292393 21.70703219 -19.04882812 19.59179688 C-19.03777631 14.39450704 -19.02102146 9.19725855 -19 4 C-18.67 4 -18.34 4 -18 4 C-18 18.19 -18 32.38 -18 47 C-12.06 47 -6.12 47 0 47 C0 31.49 0 15.98 0 0 Z " fill="#FCFDFB" transform="translate(476,805)"/>
<path d="M0 0 C2 2 2 2 2.24050903 3.94888306 C2.2338472 5.14135147 2.2338472 5.14135147 2.22705078 6.35791016 C2.22689972 7.25869293 2.22674866 8.15947571 2.22659302 9.08755493 C2.21627045 10.06155243 2.20594788 11.03554993 2.1953125 12.0390625 C2.1924826 13.03505463 2.18965271 14.03104675 2.18673706 15.05722046 C2.1755184 18.24660118 2.15041081 21.43570378 2.125 24.625 C2.11497238 26.78385012 2.10584615 28.94270463 2.09765625 31.1015625 C2.07557356 36.40114926 2.04103225 41.70052744 2 47 C-3.61 47 -9.22 47 -15 47 C-15 33.14 -15 19.28 -15 5 C-14.67 5 -14.34 5 -14 5 C-14 18.2 -14 31.4 -14 45 C-9.38 45 -4.76 45 0 45 C0 30.15 0 15.3 0 0 Z " fill="#1A3F2B" transform="translate(397,690)"/>
<path d="M0 0 C2 2 2 2 2.24723816 3.9801178 C2.24581314 4.78984543 2.24438812 5.59957306 2.24291992 6.43383789 C2.24599655 7.35141373 2.24907318 8.26898956 2.25224304 9.21437073 C2.24505753 10.20710495 2.23787201 11.19983917 2.23046875 12.22265625 C2.22978142 13.746381 2.22978142 13.746381 2.2290802 15.30088806 C2.22605596 17.45035977 2.21816456 19.59982925 2.20581055 21.74926758 C2.18755624 25.05232442 2.1853008 28.35510112 2.18554688 31.65820312 C2.18063179 33.74218994 2.17480351 35.82617485 2.16796875 37.91015625 C2.16685593 38.9049147 2.1657431 39.89967316 2.16459656 40.92457581 C2.15821671 41.83899948 2.15183685 42.75342316 2.14526367 43.69555664 C2.13954597 44.9089547 2.13954597 44.9089547 2.13371277 46.14686584 C2 48 2 48 1 49 C-1.69654854 49.07319621 -4.36691458 49.09242537 -7.0625 49.0625 C-8.20041992 49.05573242 -8.20041992 49.05573242 -9.36132812 49.04882812 C-11.24091871 49.0370068 -13.12046899 49.01907078 -15 49 C-15 47.35 -15 45.7 -15 44 C-14.34 44 -13.68 44 -13 44 C-13 44.66 -13 45.32 -13 46 C-9.04 46 -5.08 46 -1 46 C-0.67 30.82 -0.34 15.64 0 0 Z " fill="#193F2C" transform="translate(468,688)"/>
<path d="M0 0 C1.01578125 -0.01675781 2.0315625 -0.03351562 3.078125 -0.05078125 C6.1546125 0.3675131 6.78387751 1.02832829 8.75 3.3125 C9.74 3.6425 10.73 3.9725 11.75 4.3125 C9.77 5.6325 7.79 6.9525 5.75 8.3125 C5.75 6.3325 5.75 4.3525 5.75 2.3125 C0.14 2.3125 -5.47 2.3125 -11.25 2.3125 C-11.25 16.8325 -11.25 31.3525 -11.25 46.3125 C-12.24 46.8075 -12.24 46.8075 -13.25 47.3125 C-13.25 32.4625 -13.25 17.6125 -13.25 2.3125 C-8.12729623 0.84887035 -5.05194766 0.01943057 0 0 Z " fill="#FAFCFA" transform="translate(501.25,781.6875)"/>
<path d="M0 0 C1.10601562 -0.04898438 2.21203125 -0.09796875 3.3515625 -0.1484375 C6.375 0.375 6.375 0.375 8.7734375 2.8984375 C9.30195313 3.71570313 9.83046875 4.53296875 10.375 5.375 C9.055 6.365 7.735 7.355 6.375 8.375 C6.375 6.395 6.375 4.415 6.375 2.375 C0.435 2.375 -5.505 2.375 -11.625 2.375 C-11.625 25.145 -11.625 47.915 -11.625 71.375 C-11.955 71.375 -12.285 71.375 -12.625 71.375 C-12.625 48.275 -12.625 25.175 -12.625 1.375 C-8.27672714 0.65028786 -4.36777118 0.13297664 0 0 Z " fill="#FCFDFC" transform="translate(424.625,781.625)"/>
<path d="M0 0 C3.72874806 2.79656104 6.60139644 5.73133285 9.5 9.375 C10.27214844 10.33792969 11.04429687 11.30085938 11.83984375 12.29296875 C12.55269531 13.18628906 13.26554687 14.07960938 14 15 C15.65666531 17.00865887 17.32784744 19.00420501 19 21 C16.07909997 19.69063102 14.24380538 18.24380538 12 16 C11.01 15.67 10.02 15.34 9 15 C9.515625 15.94875 10.03125 16.8975 10.5625 17.875 C11.036875 18.90625 11.51125 19.9375 12 21 C11.67 21.66 11.34 22.32 11 23 C9.53586529 20.29466468 8.07859168 17.58599307 6.625 14.875 C6.2125 14.11445313 5.8 13.35390625 5.375 12.5703125 C3.17497794 8.4541422 1.30981651 4.50519306 0 0 Z " fill="#043630" transform="translate(337,282)"/>
<path d="M0 0 C-3.61696875 1.36489387 -7.23129342 2.72740161 -10.875 4.01953125 C-12.3290625 4.53580078 -12.3290625 4.53580078 -13.8125 5.0625 C-14.72644531 5.38347656 -15.64039063 5.70445312 -16.58203125 6.03515625 C-19.19710999 6.98203062 -19.19710999 6.98203062 -22 9 C-23.95348444 9.48837111 -25.90802342 9.97358638 -27.87109375 10.421875 C-29.98349966 10.99551917 -31.83224255 11.76253898 -33.8125 12.6875 C-37 14 -37 14 -40 13 C-31.86508006 8.87789086 -23.5239333 5.60732496 -14.9375 2.5625 C-13.9261499 2.19640625 -12.9147998 1.8303125 -11.87280273 1.453125 C-10.43336304 0.95232422 -10.43336304 0.95232422 -8.96484375 0.44140625 C-8.1049585 0.13920166 -7.24507324 -0.16300293 -6.35913086 -0.47436523 C-3.82417235 -1.03917592 -2.4255923 -0.8470823 0 0 Z " fill="#F0DC15" transform="translate(663,435)"/>
<path d="M0 0 C-0.33 0.99 -0.66 1.98 -1 3 C-1.66 3 -2.32 3 -3 3 C-4.60979288 5.00887802 -6.01931663 7.12052782 -7.46484375 9.25 C-7.97144531 9.8275 -8.47804688 10.405 -9 11 C-9.99 11 -10.98 11 -12 11 C-12.226875 11.598125 -12.45375 12.19625 -12.6875 12.8125 C-14.33811133 15.56351888 -16.1972081 16.52484637 -19 18 C-18.05498713 11.16802169 -10.54414375 6.27427661 -5.625 1.9375 C-3 0 -3 0 0 0 Z " fill="#053730" transform="translate(550,468)"/>
<path d="M0 0 C2.28062828 3.42094242 2.21925007 4.68187222 2.125 8.6875 C2.10695313 9.68136719 2.08890625 10.67523438 2.0703125 11.69921875 C2.03550781 12.83810547 2.03550781 12.83810547 2 14 C-3.3762621 11.08785803 -8.17918273 7.75648099 -13 4 C-10.1353288 2.5676644 -8.08594927 3.42138451 -5 4 C-4.34 4 -3.68 4 -3 4 C-2.34 5.98 -1.68 7.96 -1 10 C-0.67 10 -0.34 10 0 10 C0 6.7 0 3.4 0 0 Z " fill="#48BD2C" transform="translate(418,492)"/>
<path d="M0 0 C-2.88889409 1.92592939 -5.20191125 2.85839056 -8.47265625 3.9453125 C-9.53677734 4.29980469 -10.60089844 4.65429688 -11.69726562 5.01953125 C-12.80779297 5.38433594 -13.91832031 5.74914062 -15.0625 6.125 C-16.17689453 6.49753906 -17.29128906 6.87007813 -18.43945312 7.25390625 C-26.73305861 10 -26.73305861 10 -29 10 C-29.33 11.32 -29.66 12.64 -30 14 C-30.66 14 -31.32 14 -32 14 C-32 13.34 -32 12.68 -32 12 C-32.99 11.67 -33.98 11.34 -35 11 C-27.96447756 7.8822979 -20.84626211 5.16086703 -13.5625 2.6875 C-12.40935303 2.28797119 -12.40935303 2.28797119 -11.23291016 1.88037109 C-7.37619471 0.59367282 -4.12416977 -0.35256322 0 0 Z " fill="#0B2F31" transform="translate(659,412)"/>
<path d="M0 0 C0.33 0 0.66 0 1 0 C0.98839844 0.91523437 0.97679687 1.83046875 0.96484375 2.7734375 C0.95582031 3.96195313 0.94679688 5.15046875 0.9375 6.375 C0.92589844 7.55835938 0.91429687 8.74171875 0.90234375 9.9609375 C0.78533407 12.91921521 0.78533407 12.91921521 2 15 C-3.28 15 -8.56 15 -14 15 C-14 13.35 -14 11.7 -14 10 C-13.34 10 -12.68 10 -12 10 C-12 10.66 -12 11.32 -12 12 C-8.04 12 -4.08 12 0 12 C0 8.04 0 4.08 0 0 Z " fill="#16543E" transform="translate(467,722)"/>
<path d="M0 0 C0.66 0.33 1.32 0.66 2 1 C-0.43201863 2.67519118 -2.86997798 4.34025134 -5.3125 6 C-6.00279297 6.47695313 -6.69308594 6.95390625 -7.40429688 7.4453125 C-8.07138672 7.89648438 -8.73847656 8.34765625 -9.42578125 8.8125 C-10.34484253 9.44091797 -10.34484253 9.44091797 -11.2824707 10.08203125 C-13 11 -13 11 -16 11 C-16 10.34 -16 9.68 -16 9 C-15.34 9 -14.68 9 -14 9 C-13.7834375 8.071875 -13.7834375 8.071875 -13.5625 7.125 C-13 5 -13 5 -12 3 C-11.13375 3.2475 -10.2675 3.495 -9.375 3.75 C-5.01140688 4.07322912 -3.3658276 2.64457883 0 0 Z " fill="#EFD416" transform="translate(577,445)"/>
<path d="M0 0 C2.86867231 1.38264837 5.56024032 2.92148553 8.25 4.625 C8.95640625 5.07101562 9.6628125 5.51703125 10.390625 5.9765625 C10.92171875 6.31429687 11.4528125 6.65203125 12 7 C10 8 10 8 7.8359375 7.44140625 C7.02382812 7.15136719 6.21171875 6.86132812 5.375 6.5625 C4.55773437 6.27503906 3.74046875 5.98757813 2.8984375 5.69140625 C2.27195313 5.46324219 1.64546875 5.23507812 1 5 C1 6.32 1 7.64 1 9 C0.01 9.495 0.01 9.495 -1 10 C-1.66 10.99 -2.32 11.98 -3 13 C-2.45144652 8.428721 -1.58255197 4.32564205 0 0 Z " fill="#0A3621" transform="translate(226,713)"/>
<path d="M0 0 C4.56038006 4.24035339 6.97104453 9.0902041 9.8125 14.5625 C10.32748047 15.52091797 10.84246094 16.47933594 11.37304688 17.46679688 C11.85451172 18.38654297 12.33597656 19.30628906 12.83203125 20.25390625 C13.27264893 21.09252197 13.7132666 21.9311377 14.16723633 22.79516602 C15 25 15 25 14 28 C12.16002803 24.54515902 10.32916118 21.0855752 8.5 17.625 C7.97535156 16.64015625 7.45070313 15.6553125 6.91015625 14.640625 C6.41386719 13.69960938 5.91757812 12.75859375 5.40625 11.7890625 C4.94541016 10.91975098 4.48457031 10.05043945 4.00976562 9.15478516 C3 7 3 7 3 5 C2.01 4.67 1.02 4.34 0 4 C0 2.68 0 1.36 0 0 Z " fill="#052210" transform="translate(443,299)"/>
<path d="M0 0 C-5.86050397 4.43630328 -10.67568804 5.8349028 -18 6 C-17.01 5.67 -16.02 5.34 -15 5 C-15 4.34 -15 3.68 -15 3 C-13.25531628 2.29911844 -11.50398839 1.61475991 -9.75 0.9375 C-8.77546875 0.55464844 -7.8009375 0.17179688 -6.796875 -0.22265625 C-3.95992605 -1.01113787 -2.70590448 -1.02437812 0 0 Z " fill="#093925" transform="translate(695,847)"/>
<path d="M0 0 C1.25224024 3.75672071 0.61855923 5.78460577 -0.25 9.625 C-0.62898437 11.37683594 -0.62898437 11.37683594 -1.015625 13.1640625 C-1.50289062 14.56785156 -1.50289062 14.56785156 -2 16 C-2.99 16.33 -3.98 16.66 -5 17 C-5.33 18.65 -5.66 20.3 -6 22 C-6.66 22 -7.32 22 -8 22 C-5.60309494 14.55697903 -2.84737559 7.28162848 0 0 Z " fill="#09351F" transform="translate(609,657)"/>
<path d="M0 0 C-2.97 4.95 -2.97 4.95 -6 10 C-7 6 -7 6 -7 4 C-7.99 4.33 -8.98 4.66 -10 5 C-10.33 4.01 -10.66 3.02 -11 2 C-9.54494642 1.47007308 -8.08581873 0.9513211 -6.625 0.4375 C-5.81289063 0.14746094 -5.00078125 -0.14257812 -4.1640625 -0.44140625 C-2 -1 -2 -1 0 0 Z " fill="#EAD318" transform="translate(698,481)"/>
<path d="M0 0 C3.25195722 4.87793583 3.11325659 9.22391379 3 15 C2.67 13.68 2.34 12.36 2 11 C1.34 11 0.68 11 0 11 C-0.33 12.32 -0.66 13.64 -1 15 C-1.66 14.34 -2.32 13.68 -3 13 C-3 10.66666667 -3 8.33333333 -3 6 C-2.01 6 -1.02 6 0 6 C0 4.02 0 2.04 0 0 Z " fill="#47BB2C" transform="translate(447,359)"/>
<path d="M0 0 C0.33 0.99 0.66 1.98 1 3 C0.67 3.66 0.34 4.32 0 5 C-5.94 5 -11.88 5 -18 5 C-17.67 3.68 -17.34 2.36 -17 1 C-16.67 1.66 -16.34 2.32 -16 3 C-13.51979503 2.88658509 -11.04155031 2.75985314 -8.5625 2.625 C-7.85544922 2.5940625 -7.14839844 2.563125 -6.41992188 2.53125 C-4.60760812 2.42719371 -2.80182012 2.22080108 -1 2 C-0.67 1.34 -0.34 0.68 0 0 Z " fill="#0F3924" transform="translate(598,732)"/>
<path d="M0 0 C0.99 0 1.98 0 3 0 C4.00926479 4.15626368 4.10239579 8.04365094 4.0625 12.3125 C4.05347656 13.56675781 4.04445313 14.82101562 4.03515625 16.11328125 C4.01775391 17.54220703 4.01775391 17.54220703 4 19 C2.2450818 15.87359111 1.4850446 13.02470215 0.875 9.5 C0.70742188 8.5615625 0.53984375 7.623125 0.3671875 6.65625 C0 4 0 4 0 0 Z " fill="#144732" transform="translate(624,805)"/>
<path d="M0 0 C5.61 0 11.22 0 17 0 C16.67 6.6 16.34 13.2 16 20 C15.67 20 15.34 20 15 20 C15 14.06 15 8.12 15 2 C10.05 1.67 5.1 1.34 0 1 C0 0.67 0 0.34 0 0 Z " fill="#234533" transform="translate(798,668)"/>
<path d="M0 0 C5.94 0 11.88 0 18 0 C18.33 1.32 18.66 2.64 19 4 C18.01 4.495 18.01 4.495 17 5 C17 4.01 17 3.02 17 2 C11.39 2 5.78 2 0 2 C0 1.34 0 0.68 0 0 Z " fill="#DFE8E3" transform="translate(484,667)"/>
<path d="M0 0 C0.99 1.32 1.98 2.64 3 4 C-3.15034169 12.44646925 -3.15034169 12.44646925 -7 16 C-5.56835889 12.34061828 -4.01065704 8.76011932 -2.375 5.1875 C-1.92898438 4.21167969 -1.48296875 3.23585938 -1.0234375 2.23046875 C-0.51683594 1.12638672 -0.51683594 1.12638672 0 0 Z " fill="#E4EDE8" transform="translate(461,459)"/>
<path d="M0 0 C-2.28560647 1.5306999 -4.57762667 3.04965044 -6.875 4.5625 C-7.52597656 5.00013672 -8.17695312 5.43777344 -8.84765625 5.88867188 C-10.52625497 6.98754836 -12.26023387 8.0007818 -14 9 C-14.66 8.67 -15.32 8.34 -16 8 C-15.39816251 5.97954558 -14.72693904 3.97888961 -14 2 C-13.34 1.67 -12.68 1.34 -12 1 C-12 2.32 -12 3.64 -12 5 C-10.35 4.34 -8.7 3.68 -7 3 C-7 2.01 -7 1.02 -7 0 C-2.25 -1.125 -2.25 -1.125 0 0 Z " fill="#09352F" transform="translate(546,421)"/>
<path d="M0 0 C0.74958984 0.00451172 1.49917969 0.00902344 2.27148438 0.01367188 C4.11852383 0.02543646 5.96552213 0.04337135 7.8125 0.0625 C7.8125 0.3925 7.8125 0.7225 7.8125 1.0625 C3.8525 1.0625 -0.1075 1.0625 -4.1875 1.0625 C-4.1875 1.7225 -4.1875 2.3825 -4.1875 3.0625 C-6.0128125 3.2171875 -6.0128125 3.2171875 -7.875 3.375 C-11.63138896 3.82044789 -13.99783867 4.99860149 -17.1875 7.0625 C-17.8475 6.7325 -18.5075 6.4025 -19.1875 6.0625 C-17.91918307 5.24607746 -16.64774069 4.43450895 -15.375 3.625 C-14.66730469 3.17253906 -13.95960938 2.72007812 -13.23046875 2.25390625 C-8.90717378 -0.26732695 -4.84420344 -0.05499969 0 0 Z " fill="#072815" transform="translate(439.1875,667.9375)"/>
<path d="M0 0 C5.28 0 10.56 0 16 0 C15.67 2.31 15.34 4.62 15 7 C14.67 7 14.34 7 14 7 C14 5.35 14 3.7 14 2 C9.38 2 4.76 2 0 2 C0 1.34 0 0.68 0 0 Z " fill="#03301B" transform="translate(415,784)"/>
<path d="M0 0 C0.33 0 0.66 0 1 0 C0.88610125 1.79240663 0.75852313 3.58394835 0.625 5.375 C0.55539062 6.37273438 0.48578125 7.37046875 0.4140625 8.3984375 C0 11 0 11 -2 13 C-2.60311615 14.68761858 -3.13850237 16.40014476 -3.625 18.125 C-3.88539063 19.03507813 -4.14578125 19.94515625 -4.4140625 20.8828125 C-4.60742188 21.58148437 -4.80078125 22.28015625 -5 23 C-5.33 23 -5.66 23 -6 23 C-5.57200914 14.72550999 -2.95555804 7.66700112 0 0 Z " fill="#EBD614" transform="translate(437,547)"/>
<path d="M0 0 C2 2 2 2 2 5 C2.66 5 3.32 5 4 5 C5.70084819 10.32932432 6.52013969 15.43109483 7 21 C4.29646988 18.29646988 3.53245504 15.17811781 2.375 11.625 C2.03082031 10.61566406 2.03082031 10.61566406 1.6796875 9.5859375 C0.55368814 6.18112992 0 3.62604845 0 0 Z " fill="#07311C" transform="translate(626,665)"/>
<path d="M0 0 C8.79136811 -0.62008082 15.62906996 -0.19745067 23 5 C23.33 5.66 23.66 6.32 24 7 C21.69 6.34 19.38 5.68 17 5 C17 4.34 17 3.68 17 3 C14.69 3 12.38 3 10 3 C10 2.34 10 1.68 10 1 C6.7 1 3.4 1 0 1 C0 0.67 0 0.34 0 0 Z " fill="#092C19" transform="translate(694,668)"/>
<path d="M0 0 C4.73789165 1.44323469 8.98858151 3.37226733 13.375 5.625 C14.01566406 5.94984375 14.65632812 6.2746875 15.31640625 6.609375 C16.87947501 7.40257407 18.44000622 8.20077031 20 9 C16.98968256 9.93423645 16.13349732 10.04449911 13 9 C13 8.34 13 7.68 13 7 C12.31292969 6.79503906 11.62585938 6.59007812 10.91796875 6.37890625 C10.01691406 6.10949219 9.11585938 5.84007812 8.1875 5.5625 C7.29417969 5.29566406 6.40085937 5.02882812 5.48046875 4.75390625 C3.64526945 4.19612127 1.81966274 3.60655425 0 3 C0 2.01 0 1.02 0 0 Z " fill="#E7EFEB" transform="translate(597,188)"/>
<path d="M0 0 C1.21236328 0.01353516 1.21236328 0.01353516 2.44921875 0.02734375 C3.37154297 0.04474609 3.37154297 0.04474609 4.3125 0.0625 C4.3125 1.0525 4.3125 2.0425 4.3125 3.0625 C0.0225 3.0625 -4.2675 3.0625 -8.6875 3.0625 C-6.88341097 -0.54567807 -3.60175697 -0.05219938 0 0 Z M-10.6875 3.0625 C-10.0275 3.3925 -9.3675 3.7225 -8.6875 4.0625 C-10.6675 5.0525 -10.6675 5.0525 -12.6875 6.0625 C-12.0275 5.0725 -11.3675 4.0825 -10.6875 3.0625 Z " fill="#E6EFE9" transform="translate(596.6875,796.9375)"/>
<path d="M0 0 C0.66 0.33 1.32 0.66 2 1 C-0.22189824 3.22189824 -2.08482708 3.92598892 -5 5 C-4.67 5.66 -4.34 6.32 -4 7 C-4.66 7 -5.32 7 -6 7 C-6.33 7.99 -6.66 8.98 -7 10 C-7.66 9.67 -8.32 9.34 -9 9 C-9 8.34 -9 7.68 -9 7 C-9.99 6.67 -10.98 6.34 -12 6 C-9.48617788 4.32411859 -7.17052712 3.05969689 -4.4375 1.8125 C-3.65246094 1.44769531 -2.86742187 1.08289063 -2.05859375 0.70703125 C-1.37925781 0.47371094 -0.69992187 0.24039062 0 0 Z " fill="#073630" transform="translate(621,424)"/>
<path d="M0 0 C1.32305991 3.96917972 0.24841356 5.30231881 -1.4375 9.0625 C-3.32329324 12.89571408 -3.32329324 12.89571408 -4 17 C-4.66 17 -5.32 17 -6 17 C-6.33 18.32 -6.66 19.64 -7 21 C-7.66 20.67 -8.32 20.34 -9 20 C-6.03 13.4 -3.06 6.8 0 0 Z " fill="#1A3831" transform="translate(475,558)"/>
<path d="M0 0 C0 3.59422497 -1.14981068 4.99344236 -3 8 C-3 8.66 -3 9.32 -3 10 C-3.66 10 -4.32 10 -5 10 C-6.68762851 11.6454378 -8.3540349 13.31288577 -10 15 C-10.99 15.495 -10.99 15.495 -12 16 C-10.45333439 12.53611348 -8.38609908 9.81376173 -6 6.875 C-5.29875 6.00617187 -4.5975 5.13734375 -3.875 4.2421875 C-2 2 -2 2 0 0 Z " fill="#F4DC14" transform="translate(584,556)"/>
<path d="M0 0 C0.66 0.33 1.32 0.66 2 1 C0.6875 3 0.6875 3 -1 5 C-1.99 5 -2.98 5 -4 5 C-4.33 6.32 -4.66 7.64 -5 9 C-6.98 9.33 -8.96 9.66 -11 10 C-7.84778899 5.58690458 -4.44536093 2.99206986 0 0 Z " fill="#05341F" transform="translate(374,193)"/>
<path d="M0 0 C2.31 1.65 4.62 3.3 7 5 C5 6 5 6 2.8125 5.375 C-1.07430094 4.85675988 -3.47326687 6.43256305 -7 8 C-7.99 7.67 -8.98 7.34 -10 7 C-9.44570313 6.66226563 -8.89140625 6.32453125 -8.3203125 5.9765625 C-7.59585938 5.53054688 -6.87140625 5.08453125 -6.125 4.625 C-5.04605469 3.96371094 -5.04605469 3.96371094 -3.9453125 3.2890625 C-1.88206418 2.0146287 -1.88206418 2.0146287 0 0 Z " fill="#0C3521" transform="translate(690,831)"/>
<path d="M0 0 C3.3 1.65 6.6 3.3 10 5 C5.82412255 6.39195915 3.86525224 4.82323219 0 3 C0.309375 3.928125 0.309375 3.928125 0.625 4.875 C0.74875 5.57625 0.8725 6.2775 1 7 C0.34 7.66 -0.32 8.32 -1 9 C-1.66 9.99 -2.32 10.98 -3 12 C-2.51855059 7.18550592 -2.1991413 4.39828259 0 0 Z " fill="#0B2F1B" transform="translate(679,742)"/>
<path d="M0 0 C4.29 0 8.58 0 13 0 C12 2 12 2 9.6015625 2.8515625 C8.61929688 3.10679687 7.63703125 3.36203125 6.625 3.625 C5.15933594 4.01558594 5.15933594 4.01558594 3.6640625 4.4140625 C1 5 1 5 -2 5 C-1.34 3.35 -0.68 1.7 0 0 Z " fill="#EDD916" transform="translate(564,581)"/>
<path d="M0 0 C1.65 0 3.3 0 5 0 C4.67 1.65 4.34 3.3 4 5 C5.65 5.33 7.3 5.66 9 6 C7.02 6.99 7.02 6.99 5 8 C5 9.65 5 11.3 5 13 C2.53698577 10.53698577 2.23233479 8.72639964 1.375 5.375 C1.11460937 4.37210937 0.85421875 3.36921875 0.5859375 2.3359375 C0.39257812 1.56507813 0.19921875 0.79421875 0 0 Z " fill="#46BD2C" transform="translate(426,420)"/>
<path d="M0 0 C0.66 0 1.32 0 2 0 C2 1.98 2 3.96 2 6 C2.66 6 3.32 6 4 6 C4.33 8.64 4.66 11.28 5 14 C4.01 14.495 4.01 14.495 3 15 C2.49564306 13.0636296 1.99666126 11.12585854 1.5 9.1875 C1.2215625 8.10855469 0.943125 7.02960938 0.65625 5.91796875 C0 3 0 3 0 0 Z " fill="#103B27" transform="translate(265,352)"/>
<path d="M0 0 C3.68405866 3.18025577 5.11258392 6.201622 6.75 10.75 C7.17796875 11.92046875 7.6059375 13.0909375 8.046875 14.296875 C8.36140625 15.18890625 8.6759375 16.0809375 9 17 C8.34 17.33 7.68 17.66 7 18 C5.82625827 15.56568361 4.66084237 13.12795818 3.5 10.6875 C3.16613281 9.99720703 2.83226562 9.30691406 2.48828125 8.59570312 C0 3.33984375 0 3.33984375 0 0 Z " fill="#E7EEEA" transform="translate(452,311)"/>
<path d="M0 0 C0.33 0 0.66 0 1 0 C1.33 4.29 1.66 8.58 2 13 C3.65 13.33 5.3 13.66 7 14 C7 14.33 7 14.66 7 15 C4.69 15 2.38 15 0 15 C0 10.05 0 5.1 0 0 Z " fill="#FBFBFB" transform="translate(738,770)"/>
<path d="M0 0 C0.33 0.66 0.66 1.32 1 2 C-0.40895236 4.61788643 -1.86243091 7.11045672 -3.4375 9.625 C-3.87126953 10.33140625 -4.30503906 11.0378125 -4.75195312 11.765625 C-5.82748132 13.51483568 -6.91283725 15.25799654 -8 17 C-9.32 16.67 -10.64 16.34 -12 16 C-11.01 15.67 -10.02 15.34 -9 15 C-7.57401803 13.05113098 -7.57401803 13.05113098 -6.375 10.6875 C-5.73691406 9.51767578 -5.73691406 9.51767578 -5.0859375 8.32421875 C-3.93254858 6.08354142 -3.93254858 6.08354142 -3.5390625 3.83203125 C-3 2 -3 2 0 0 Z " fill="#EFDC14" transform="translate(488,533)"/>
<path d="M0 0 C1.32988011 3.98964032 0.35283549 6.11426937 -0.8125 10.125 C-1.16957031 11.38570313 -1.52664063 12.64640625 -1.89453125 13.9453125 C-3 17 -3 17 -5 18 C-5.125 11.25 -5.125 11.25 -4 9 C-3.34 9 -2.68 9 -2 9 C-1.34 6.03 -0.68 3.06 0 0 Z " fill="#072F1C" transform="translate(736,436)"/>
<path d="M0 0 C6.6 0.33 13.2 0.66 20 1 C20 1.33 20 1.66 20 2 C13.30386804 2.797837 6.74233419 3.12910853 0 3 C0 2.01 0 1.02 0 0 Z " fill="#042A33" transform="translate(667,376)"/>
<path d="M0 0 C1.32 0.66 2.64 1.32 4 2 C1.38321437 3.70051054 -1.24462239 5.38310507 -3.875 7.0625 C-4.99455078 7.79049805 -4.99455078 7.79049805 -6.13671875 8.53320312 C-6.85214844 8.98759766 -7.56757812 9.44199219 -8.3046875 9.91015625 C-8.96452637 10.33433838 -9.62436523 10.75852051 -10.30419922 11.19555664 C-11.14362061 11.5937561 -11.14362061 11.5937561 -12 12 C-12.66 11.67 -13.32 11.34 -14 11 C-12.04532248 9.66101601 -10.0866421 8.32870953 -8.125 7 C-7.03445313 6.2575 -5.94390625 5.515 -4.8203125 4.75 C-2 3 -2 3 0 3 C0 2.01 0 1.02 0 0 Z " fill="#0D2C33" transform="translate(647,499)"/>
<path d="M0 0 C3.3 0.33 6.6 0.66 10 1 C7.69846709 3.30153291 6.15124095 3.7577028 3.0625 4.6875 C2.18722656 4.95949219 1.31195312 5.23148437 0.41015625 5.51171875 C-2 6 -2 6 -5 5 C-3.35 4.67 -1.7 4.34 0 4 C0 2.68 0 1.36 0 0 Z " fill="#F3DA14" transform="translate(649,409)"/>
<path d="M0 0 C0 0.99 0 1.98 0 3 C-1.2375 3.144375 -2.475 3.28875 -3.75 3.4375 C-6.56504499 3.78688502 -9.2701497 4.20379366 -12 5 C-12 4.01 -12 3.02 -12 2 C-10.56342755 1.66269158 -9.12569907 1.33030409 -7.6875 1 C-6.88699219 0.814375 -6.08648438 0.62875 -5.26171875 0.4375 C-3 0 -3 0 0 0 Z " fill="#ECF1ED" transform="translate(568,607)"/>
<path d="M0 0 C1.32 0.33 2.64 0.66 4 1 C3.44449305 4.59905908 2.25112752 5.99909799 -0.5625 8.25 C-1.20316406 8.77078125 -1.84382812 9.2915625 -2.50390625 9.828125 C-2.99761719 10.21484375 -3.49132812 10.6015625 -4 11 C-3.53980469 10.12601562 -3.53980469 10.12601562 -3.0703125 9.234375 C-1.64398178 6.25677947 -0.85658432 3.18159889 0 0 Z " fill="#F4D615" transform="translate(518,489)"/>
<path d="M0 0 C3.73163287 1.81906477 7.29471758 3.88528209 10.87890625 5.9765625 C13.05780509 7.21728176 13.05780509 7.21728176 16 7 C15.67 7.99 15.34 8.98 15 10 C11.34426939 8.62992438 8.04532353 6.98982135 4.6875 5 C3.80449219 4.484375 2.92148437 3.96875 2.01171875 3.4375 C1.34785156 2.963125 0.68398438 2.48875 0 2 C0 1.34 0 0.68 0 0 Z " fill="#0E311F" transform="translate(363,206)"/>
<path d="M0 0 C6.93 0.495 6.93 0.495 14 1 C11.66997945 3.33002055 10.75309505 3.41956957 7.5625 3.8125 C6.78003906 3.92207031 5.99757813 4.03164063 5.19140625 4.14453125 C3 4 3 4 1.21484375 2.57421875 C0 1 0 1 0 0 Z " fill="#DDBE16" transform="translate(677,378)"/>
<path d="M0 0 C2.64 0 5.28 0 8 0 C8 0.66 8 1.32 8 2 C8.66 2.33 9.32 2.66 10 3 C6.7 3 3.4 3 0 3 C0 2.01 0 1.02 0 0 Z " fill="#E6EDE9" transform="translate(362,798)"/>
<path d="M0 0 C0 3 0 3 -1.8125 5.1875 C-4 7 -4 7 -7 7 C-7 3 -7 3 -6 1 C-5.38125 1.20625 -4.7625 1.4125 -4.125 1.625 C-3.073125 1.810625 -3.073125 1.810625 -2 2 C-1.34 1.34 -0.68 0.68 0 0 Z " fill="#F8D616" transform="translate(671,517)"/>
<path d="M0 0 C-0.5 1.8125 -0.5 1.8125 -2 4 C-4.58598421 5.26011942 -7.27041877 6.10719947 -10 7 C-10.99 7.495 -10.99 7.495 -12 8 C-10.77974937 4.3392481 -9.873509 4.07660559 -6.5625 2.3125 C-5.75941406 1.87550781 -4.95632813 1.43851562 -4.12890625 0.98828125 C-2 0 -2 0 0 0 Z " fill="#0C3030" transform="translate(644,480)"/>
<path d="M0 0 C0.66 0.33 1.32 0.66 2 1 C1.88557539 2.60495567 1.75805306 4.20898119 1.625 5.8125 C1.55539062 6.70582031 1.48578125 7.59914063 1.4140625 8.51953125 C1 11 1 11 -1 14 C-1.027193 12.41676312 -1.04648306 10.83338938 -1.0625 9.25 C-1.07410156 8.36828125 -1.08570313 7.4865625 -1.09765625 6.578125 C-1.00826198 4.2181162 -0.66912821 2.25501476 0 0 Z " fill="#04311D" transform="translate(468,423)"/>
<path d="M0 0 C3.375 -0.125 3.375 -0.125 7 0 C7.66 0.66 8.32 1.32 9 2 C8 3 8 3 6.15234375 3.09765625 C4.1015625 3.06510417 2.05078125 3.03255208 0 3 C0 2.01 0 1.02 0 0 Z " fill="#E6EDE9" transform="translate(517,798)"/>
<path d="M0 0 C0.66 0.33 1.32 0.66 2 1 C0.8803014 2.00593243 -0.2459412 3.0045849 -1.375 4 C-2.00148438 4.556875 -2.62796875 5.11375 -3.2734375 5.6875 C-5 7 -5 7 -7 7 C-6.67 5.35 -6.34 3.7 -6 2 C-4.7934375 1.7834375 -4.7934375 1.7834375 -3.5625 1.5625 C-1.07896294 1.25864751 -1.07896294 1.25864751 0 0 Z " fill="#083432" transform="translate(619,520)"/>
<path d="M0 0 C0.66 0.99 1.32 1.98 2 3 C-0.40435006 4.20217503 -1.68381369 4.03897118 -4.3515625 3.87890625 C-5.20234375 3.83056641 -6.053125 3.78222656 -6.9296875 3.73242188 C-7.81914062 3.67634766 -8.70859375 3.62027344 -9.625 3.5625 C-10.5221875 3.51029297 -11.419375 3.45808594 -12.34375 3.40429688 C-14.56284012 3.2744565 -16.78149871 3.13948661 -19 3 C-19 2.67 -19 2.34 -19 2 C-12.73 2 -6.46 2 0 2 C0 1.34 0 0.68 0 0 Z " fill="#154634" transform="translate(452,694)"/>
<path d="M0 0 C0.66 0 1.32 0 2 0 C2 0.66 2 1.32 2 2 C2.763125 1.649375 3.52625 1.29875 4.3125 0.9375 C7 0 7 0 10 1 C8.73581754 1.69965443 7.46334598 2.38434763 6.1875 3.0625 C5.47980469 3.44535156 4.77210938 3.82820313 4.04296875 4.22265625 C2 5 2 5 -1 4 C-0.67 2.68 -0.34 1.36 0 0 Z " fill="#043231" transform="translate(558,408)"/>
<path d="M0 0 C0.33 0.66 0.66 1.32 1 2 C0.34 1.67 -0.32 1.34 -1 1 C-0.67 0.67 -0.34 0.34 0 0 Z M-3 2 C-2.34 2.33 -1.68 2.66 -1 3 C-1.66 3.66 -2.32 4.32 -3 5 C-3 4.01 -3 3.02 -3 2 Z M-6 4 C-5.34 4.33 -4.68 4.66 -4 5 C-4.99 5 -5.98 5 -7 5 C-6.67 4.67 -6.34 4.34 -6 4 Z M-7 6 C-7.66 7.32 -8.32 8.64 -9 10 C-10.32 9.67 -11.64 9.34 -13 9 C-9.25 6 -9.25 6 -7 6 Z " fill="#EBF3EF" transform="translate(395,203)"/>
<path d="M0 0 C0 0.66 0 1.32 0 2 C-4.95 1.67 -9.9 1.34 -15 1 C-15 0.67 -15 0.34 -15 0 C-13.06325815 -0.19517554 -11.12555991 -0.38087873 -9.1875 -0.5625 C-8.10855469 -0.66691406 -7.02960937 -0.77132812 -5.91796875 -0.87890625 C-3 -1 -3 -1 0 0 Z " fill="#1C4E39" transform="translate(609,839)"/>
<path d="M0 0 C0.66 0.33 1.32 0.66 2 1 C1.67 1.99 1.34 2.98 1 4 C0.34 4 -0.32 4 -1 4 C-1 6.31 -1 8.62 -1 11 C-1.99 11.495 -1.99 11.495 -3 12 C-2.88541307 10.56163249 -2.75790884 9.12429034 -2.625 7.6875 C-2.55539062 6.88699219 -2.48578125 6.08648438 -2.4140625 5.26171875 C-2 3 -2 3 0 0 Z " fill="#E7EEEA" transform="translate(690,688)"/>
<path d="M0 0 C1.32 0 2.64 0 4 0 C3.34 3.63 2.68 7.26 2 11 C2.66 11 3.32 11 4 11 C3.67 11.66 3.34 12.32 3 13 C2.34 12.67 1.68 12.34 1 12 C1.01160156 11.30132813 1.02320313 10.60265625 1.03515625 9.8828125 C1.04417969 8.97273437 1.05320312 8.06265625 1.0625 7.125 C1.07410156 6.22007812 1.08570313 5.31515625 1.09765625 4.3828125 C1.16249257 1.9831415 1.16249257 1.9831415 0 0 Z " fill="#082B30" transform="translate(427,565)"/>
<path d="M0 0 C0.33 0.66 0.66 1.32 1 2 C0.67 2.99 0.34 3.98 0 5 C-2.375 5.625 -2.375 5.625 -5 6 C-5.66 5.34 -6.32 4.68 -7 4 C-4.69 2.68 -2.38 1.36 0 0 Z " fill="#09372C" transform="translate(622,561)"/>
<path d="M0 0 C0.66 0.33 1.32 0.66 2 1 C1.67 2.32 1.34 3.64 1 5 C-1.31 5.66 -3.62 6.32 -6 7 C-4.60667426 3.63279613 -3.0210714 2.0140476 0 0 Z " fill="#083430" transform="translate(644,545)"/>
<path d="M0 0 C0 0.99 0 1.98 0 3 C-1 4 -2 5 -3 6 C-4.19027984 8.59915538 -4.19027984 8.59915538 -5 11 C-5.33 10.34 -5.66 9.68 -6 9 C-6.66 8.67 -7.32 8.34 -8 8 C-5.36 5.36 -2.72 2.72 0 0 Z " fill="#072C31" transform="translate(596,512)"/>
<path d="M0 0 C2.0625 0.4375 2.0625 0.4375 4 1 C2.63016497 4.16115776 2.0109362 4.9927092 -1 7 C-1.04254356 5.00045254 -1.04080783 2.99958364 -1 1 C-0.67 0.67 -0.34 0.34 0 0 Z " fill="#154030" transform="translate(545,495)"/>
<path d="M0 0 C0.33 0 0.66 0 1 0 C1.05437607 1.58294782 1.09296271 3.16644256 1.125 4.75 C1.14820313 5.63171875 1.17140625 6.5134375 1.1953125 7.421875 C0.99139502 10.1135858 0.36551721 11.69904974 -1 14 C-1 11.69 -1 9.38 -1 7 C-1.66 7 -2.32 7 -3 7 C-2.67 6.34 -2.34 5.68 -2 5 C-1.67 5 -1.34 5 -1 5 C-0.67 3.35 -0.34 1.7 0 0 Z " fill="#4DC42B" transform="translate(450,408)"/>
<path d="M0 0 C0.33 0 0.66 0 1 0 C1.33 3.3 1.66 6.6 2 10 C1.01 10.33 0.02 10.66 -1 11 C-0.67 7.37 -0.34 3.74 0 0 Z " fill="#EDF1EE" transform="translate(744,397)"/>
<path d="M0 0 C1.65 0 3.3 0 5 0 C5.33 0.99 5.66 1.98 6 3 C5.34 3 4.68 3 4 3 C3.67 3.99 3.34 4.98 3 6 C2.01 5.67 1.02 5.34 0 5 C0 3.33333333 0 1.66666667 0 0 Z " fill="#E1C018" transform="translate(661,380)"/>
<path d="M0 0 C-3.21182149 1.90608098 -5.53882603 2.22266247 -9.25 2.125 C-10.14203125 2.10695313 -11.0340625 2.08890625 -11.953125 2.0703125 C-12.96632813 2.03550781 -12.96632813 2.03550781 -14 2 C-14 1.67 -14 1.34 -14 1 C-8.83955235 -0.512545 -5.34001821 -1.33500455 0 0 Z " fill="#E2ECE7" transform="translate(682,837)"/>
<path d="M0 0 C0.66 0.33 1.32 0.66 2 1 C2.625 4.0625 2.625 4.0625 3 7 C2.67 6.34 2.34 5.68 2 5 C-1.02934491 4.34227572 -1.02934491 4.34227572 -4 4 C-2.68 2.68 -1.36 1.36 0 0 Z " fill="#08331E" transform="translate(320,829)"/>
<path d="M0 0 C1.134375 0.020625 2.26875 0.04125 3.4375 0.0625 C1.9375 1.625 1.9375 1.625 -0.5625 3.0625 C-3.33687543 3.03073234 -5.81536467 2.56614148 -8.5625 2.0625 C-7.923125 1.918125 -7.28375 1.77375 -6.625 1.625 C-0.7125 0.0125 -0.7125 0.0125 0 0 Z " fill="#EDF0EC" transform="translate(433.5625,693.9375)"/>
<path d="M0 0 C3.33557632 2.9905167 5.15083921 5.93184627 7 10 C6.01 10.495 6.01 10.495 5 11 C4.731875 10.030625 4.46375 9.06125 4.1875 8.0625 C3.795625 7.051875 3.40375 6.04125 3 5 C2.01 4.67 1.02 4.34 0 4 C0 2.68 0 1.36 0 0 Z " fill="#072D1B" transform="translate(443,299)"/>
<path d="M0 0 C0.66 0.33 1.32 0.66 2 1 C0.76058615 4.71824156 -0.9233963 5.67378745 -4 8 C-4.66 8.66 -5.32 9.32 -6 10 C-6 8.68 -6 7.36 -6 6 C-3.5625 3.875 -3.5625 3.875 -1 2 C-0.67 1.34 -0.34 0.68 0 0 Z " fill="#EDF1EF" transform="translate(344,787)"/>
<path d="M0 0 C0 0.99 0 1.98 0 3 C-2 4.6875 -2 4.6875 -4 6 C-4.66 4.35 -5.32 2.7 -6 1 C-4.02 0.67 -2.04 0.34 0 0 Z " fill="#023432" transform="translate(482,472)"/>
<path d="M0 0 C0.66 0.66 1.32 1.32 2 2 C-0.85306797 4.32472205 -3.54074837 5.7508258 -7 7 C-7.66 6.34 -8.32 5.68 -9 5 C-8.43410156 4.72285156 -7.86820313 4.44570313 -7.28515625 4.16015625 C-6.55167969 3.79792969 -5.81820312 3.43570312 -5.0625 3.0625 C-3.96615234 2.52302734 -3.96615234 2.52302734 -2.84765625 1.97265625 C-1.03750973 1.13628173 -1.03750973 1.13628173 0 0 Z " fill="#DEE7E4" transform="translate(582,323)"/>
<path d="M0 0 C3.65316671 1.24976756 4.78065836 1.67098753 7 5 C5.35 5.33 3.7 5.66 2 6 C0 3 0 3 0 0 Z " fill="#03321D" transform="translate(618,230)"/>
<path d="M0 0 C1.08667969 0.29197266 1.08667969 0.29197266 2.1953125 0.58984375 C2.74960937 0.74582031 3.30390625 0.90179688 3.875 1.0625 C3.545 1.7225 3.215 2.3825 2.875 3.0625 C-0.85987777 2.5645163 -2.93737635 2.18758244 -6.125 0.0625 C-3.57797384 -1.21101308 -2.6967055 -0.73941925 0 0 Z " fill="#EDF2ED" transform="translate(585.125,182.9375)"/>
<path d="M0 0 C0.33 1.32 0.66 2.64 1 4 C0.34 4 -0.32 4 -1 4 C-0.67 2.68 -0.34 1.36 0 0 Z M-2 4 C-1.67 4.99 -1.34 5.98 -1 7 C-2.32 7.99 -3.64 8.98 -5 10 C-5 7 -5 7 -3.5 5.3125 C-2.7575 4.6628125 -2.7575 4.6628125 -2 4 Z " fill="#E5EEE9" transform="translate(397,836)"/>
<path d="M0 0 C1.1875 1.5625 1.1875 1.5625 2 4 C0.625 7.75 0.625 7.75 -1 11 C-1.33 11 -1.66 11 -2 11 C-1.125 3.375 -1.125 3.375 0 0 Z " fill="#E9F0ED" transform="translate(351,807)"/>
<path d="M0 0 C0.66 0.33 1.32 0.66 2 1 C-0.44580676 4.66871014 -3.12424268 6.06212134 -7 8 C-5.50902342 4.2047869 -3.24299151 2.38957269 0 0 Z " fill="#052B18" transform="translate(237,646)"/>
<path d="M0 0 C2.12046792 3.53411321 2.53199289 6.94393835 3 11 C1 10 1 10 -0.1875 7.75 C-1.08937081 4.69751418 -0.86361585 3.02265546 0 0 Z " fill="#E7EFEC" transform="translate(285,439)"/>
<path d="M0 0 C0.33 0.66 0.66 1.32 1 2 C-3.75 6.875 -3.75 6.875 -6 8 C-4.73058503 4.08597051 -3.48832306 2.20927127 0 0 Z " fill="#083C26" transform="translate(513,231)"/>
<path d="M0 0 C7.75 0.75 7.75 0.75 10 3 C6.65155086 4.05236973 5.40920111 4.20005388 2.1875 2.625 C1.465625 2.08875 0.74375 1.5525 0 1 C0 0.67 0 0.34 0 0 Z " fill="#EEF1ED" transform="translate(454,781)"/>
<path d="M0 0 C0.99 0.495 0.99 0.495 2 1 C2.4140625 3.06640625 2.4140625 3.06640625 2.625 5.5625 C2.69976562 6.38878906 2.77453125 7.21507812 2.8515625 8.06640625 C2.92503906 9.02353516 2.92503906 9.02353516 3 10 C2.01 9.67 1.02 9.34 0 9 C0 6.03 0 3.06 0 0 Z " fill="#49BF2C" transform="translate(444,348)"/>
<path d="M0 0 C3 1 3 1 3.94921875 2.84765625 C4.19285156 3.57855469 4.43648437 4.30945313 4.6875 5.0625 C4.93886719 5.79597656 5.19023438 6.52945312 5.44921875 7.28515625 C5.63097656 7.85105469 5.81273437 8.41695313 6 9 C5.34 9.66 4.68 10.32 4 11 C3.52014033 9.72942818 3.0411407 8.45853152 2.5625 7.1875 C2.16224609 6.12595703 2.16224609 6.12595703 1.75390625 5.04296875 C1.13774814 3.37327604 0.56280765 1.68842296 0 0 Z " fill="#E3EDE8" transform="translate(584,294)"/>
<path d="M0 0 C0.66 0 1.32 0 2 0 C2 2.31 2 4.62 2 7 C0.35 7.33 -1.3 7.66 -3 8 C-2.67 7.01 -2.34 6.02 -2 5 C-1.67 5 -1.34 5 -1 5 C-0.67 3.35 -0.34 1.7 0 0 Z " fill="#39A82A" transform="translate(292,252)"/>
<path d="M0 0 C0.33 0 0.66 0 1 0 C0.67 3.3 0.34 6.6 0 10 C-2 6 -2 6 -1.6875 3.875 C-1 2 -1 2 0 0 Z " fill="#E3EBE9" transform="translate(266,257)"/>
<path d="M0 0 C5.75 0.75 5.75 0.75 8 3 C5.03 3 2.06 3 -1 3 C-0.67 2.01 -0.34 1.02 0 0 Z " fill="#0E4F37" transform="translate(519,783)"/>
<path d="M0 0 C1.65 0.33 3.3 0.66 5 1 C4.01 1.495 4.01 1.495 3 2 C3 2.66 3 3.32 3 4 C0.36 4 -2.28 4 -5 4 C-5 3.67 -5 3.34 -5 3 C-3.35 3 -1.7 3 0 3 C0 2.01 0 1.02 0 0 Z " fill="#003119" transform="translate(563,734)"/>
<path d="M0 0 C0.66 0.33 1.32 0.66 2 1 C0.95125002 3.62187494 0.35068687 4.79371361 -2.125 6.25 C-2.74375 6.4975 -3.3625 6.745 -4 7 C-2.92598892 4.08482708 -2.22189824 2.22189824 0 0 Z " fill="#0A331F" transform="translate(417,676)"/>
<path d="M0 0 C1 3 1 3 1 5 C0.34 5 -0.32 5 -1 5 C-1.33 6.32 -1.66 7.64 -2 9 C-2.66 8.67 -3.32 8.34 -4 8 C-2.68 5.36 -1.36 2.72 0 0 Z " fill="#0F3130" transform="translate(470,570)"/>
<path d="M0 0 C0.33 1.32 0.66 2.64 1 4 C0.34 4 -0.32 4 -1 4 C-1.33 4.66 -1.66 5.32 -2 6 C-2 5.34 -2 4.68 -2 4 C-3.32 4.33 -4.64 4.66 -6 5 C-2.25 1.125 -2.25 1.125 0 0 Z " fill="#F5DB13" transform="translate(589,466)"/>
<path d="M0 0 C0 0.66 0 1.32 0 2 C-3.22791555 4.1519437 -4.28400809 4.20086443 -8 4 C-7.67 3.01 -7.34 2.02 -7 1 C-2.25 0 -2.25 0 0 0 Z " fill="#12402F" transform="translate(683,405)"/>
<path d="M0 0 C0.99 0.33 1.98 0.66 3 1 C0.51047079 3.66735273 -1.63408134 5.55746343 -5 7 C-3.70700306 4.11562221 -2.34058637 2.12780579 0 0 Z " fill="#E8EFEB" transform="translate(526,403)"/>
<path d="M0 0 C1.64826111 2.96687001 2.44271087 5.65626525 3 9 C2.01 9.33 1.02 9.66 0 10 C-1.125 2.25 -1.125 2.25 0 0 Z " fill="#E9EEEA" transform="translate(713,315)"/>
<path d="M0 0 C2.5 2.3125 2.5 2.3125 5 5 C5 5.99 5 6.98 5 8 C3.0625 7.375 3.0625 7.375 1 6 C0.25 2.875 0.25 2.875 0 0 Z " fill="#47BE2D" transform="translate(416,297)"/>
<path d="M0 0 C1.2684375 0.12375 1.2684375 0.12375 2.5625 0.25 C3.2225 1.24 3.8825 2.23 4.5625 3.25 C2.5825 3.25 0.6025 3.25 -1.4375 3.25 C-1.7675 3.91 -2.0975 4.57 -2.4375 5.25 C-3 3.3125 -3 3.3125 -3.4375 1.25 C-2.4375 0.25 -2.4375 0.25 0 0 Z " fill="#0D4D37" transform="translate(538.4375,149.75)"/>
</svg>
